<svg version="1.1" id="Livello_1" xmlns="http://www.w3.org/2000/svg" x="0" y="0" viewBox="0 0 2000 857" style="enable-background:new 0 0 2000 857" xml:space="preserve">
    <style>
        .st0{fill:#ececec;stroke:#000;stroke-width:.2;stroke-linecap:round;stroke-linejoin:round}
    </style>
    <path class="st0" d="m1743 763.6 3.7 2.2 3.3-.9 4.9-1.2 2.8.4-4.5 7.6-3.3 2.1-4 5.2-.6-1.8-6.6 4.4-.8-.3-3-.2.5-5.4 2-4.2.6-5.6 2-2.9 3 .6zM1793.5 590.2l1.2 5 4-2.4 1.4 2.7 2.3 2.5-1.1 2.9.2 5.5.2 3.2 1.3.8.4 5.5-1.2 3.3.8 4.3 5.4 3.4 3.2 3 3.2 2.8-1.1 1.6 2.3 4 .5 7 2.6-1.4 1.5 2.7 1.6-.9-.7 6.8 2.9 3.9 1.9 2.4 2.8 5.2v5.2l-1 3.7-1.8 3.9.7 5.5-2.5 5.7-2.1 3-3.8 5.7-1.5 3.7-3.1 4.6-5 5.8-5.5 3.2-4.4 4.9-3.3 3.2-4.4 5.5-3.7 3.2-3.9 4.8-3.1 4.4-.8 2.1-4.3 2.2-6.1.2-6.3 2.7-3.8 2.4-4.8 2.8-2.7-2.9-2.6-1.1 2.6-3.3-3.5 1.2-7.2 4.6-3.6-1.7-2.4-1-2.8-.5-4.1-1.8-1.3-4 1.5-4.8.4-3.3-1.4-2.6-4.7-.7 3.2-3.2.9-4.7-4.7 4.4-5.3 1.2 4.5-3.5 2.5-3.7 3.5-3.2 1.6-4.7-6.8 5.4-4.3 2.2-4.3 5.1-3-2.6 1.7-3.4-1.4-4.7-1.8-2.4 1.6-1.5-5.3-3.9-3.8-.1-4-3.2-9.9.6-7.9 2.3-6.9 2.2-5-.4-7 3.3-5.3 1.4-2.3 3.4-3 2.6-4.7.2-3.6.5-4.2-1.1-4.2.7-3.8.3-4.5 3.4-1.5-.3-3.4 1.8-3.4 2-3.8-.2h-3.5l-4.1-4.1-2.4-1.2 1.5-3.7 2.9-.9 1.5-1.4.6-2.3 2.3-4.5.7-3.8-.7-6.5.2-3.7 1.4-3.6-.9-4.2.3-1.9-1.7-2.6.7-5-1.9-5.1-.1-2.7 1.8 2.8-.5-6 2.3 1.9 1.1 2.5.6-3.3-1.6-5.1-.1-2-.8-1.9 1.3-3.7 1.5-1.6 1.3-3.2.1-3.8 3.1-4.6-.4 4.9 3.1-4.4 4.9-2.2 3.2-2.7 4.7-2.4 2.6-.5 1.4.8 4.8-2.4 3.5-.7 1.1-1.4 1.5-.6 3.1.2 6.2-1.9 3.5-2.9 2-3.4 3.9-3.2.7-2.6.7-3.5 4.9-5.5 1.4 5.6 2.6-1.3-1.5-3 2.3-3.1 2.2 1.4 1.5-4.9 3.5-3.2 1.8-2.5 2.9-1.1.4-1.8 2.3.7.4-1.6 2.6-.9 2.8-.9 3.7 3 2.6 3.8h3.5l3.5.6-.7-3.5 3.5-5.1 2.7-1.7-.6-1.6 2.9-3.7 3.7-2.3 2.7.8 4.9-1.2.3-3.3-3.9-2.1 3.1-.9 3.6 1.6 2.7 2.6 4.5 1.6 1.7-.6 3.3 2 3.5-1.9 2 .6 1.5-1.3 2.2 3.2-2 3.5-2.5 2.6-1.9.2.3 2.5-2.2 3.2-2.5 3.2.2 1.8 3.8 3.6 4 2 2.5 2.2 3.3 3.8h1.6l2.6 1.7.5 2 4.9 2.1 4.1-2.2 1.8-3.4 1.7-2.9 1.3-3.5 2.6-5.1-.2-3.1.7-1.9-.1-3.6 1.4-4.9 1.3-1.3-.6-2.1 1.8-3.4 1.5-3.5.4-1.9 2.3-2.4 1.3 3.2-.1 4 1.3.8-.1 2.7 1.6 3.2-.1 3.7-.6 2.3z"/>
    <path id="BF" class="st0" d="m793.2 295.7-.6 3.7 1 3.5 3.7 5 .2 3.7 7.8 1.8-.1 5.3-1.4 2.3-3.4.7-1.3 3.4-2.4.8-5.9-.1-3.1-.6-2.2 1.2-3-.6-11.8.4-.2 4.4 1 5.8-4.7-1.9-3.1.2-2.4 1.9-3-1.6-1.2-2.6-3-1.7-.5-4.4 1.9-3.2-.2-2.6 5.4-6.4 1.1-5.3 1.8-1.9 3.2 1.1 2.9-1.6 1-2 5.2-3.4 1.3-2.4 6.4-3.2 3.7-1.1 1.7 1.4h4.2z"/>
    <path id="BR" class="st0" d="m665.8 489.6 3.1.6.6-1.4-1-1.2.6-1.9 2.3.6 2.7-.7 3.2 1.4 2.5 1.3 1.7-1.7 1.3.2.8 1.8 2.7-.4 2.2-2.5 1.8-4.7 3.4-5.9 2-.3 1.3 3.6 3 11.2 3.1 1.1.1 4.4-4.3 5.3 1.7 1.9 10.1 1 .2 6.5 4.3-4.2 7.1 2.3 9.5 3.9 2.8 3.7-.9 3.6 6.6-2 11 3.4 8.5-.2 8.4 5.3 7.4 7.2 4.4 1.8 4.8.3 2.1 2 2 8.2 1.1 3.9-2.1 10.6-2.7 4.2-7.7 8.9-3.4 7.3-4 5.5-1.4.2-1.3 4.7.9 12-1.1 9.9-.3 4.2-1.6 2.6-.5 8.6-5.2 8.3-.5 6.7-4.3 2.7-1.1 3.9h-6l-8.5 2.4-3.7 2.9-6 1.9-6.1 5.1-4.1 6.4-.3 4.8 1.3 3.5-.3 6.5-.8 3.1-3.4 3.6-4.5 11.3-4 5-3.2 3.1-1.5 6.1-2.9 3.6-2.1-3.6 1.8-3.1-3.8-4.3-4.8-3.6-6.3-4.1-1.9.2-6.3-5-3.4.7 6-8.7 5.3-6.3 3.3-2.6 4.2-3.5-.4-5.1-3.2-3.8-2.6 1.3.7-3.7.3-3.8-.3-3.6-2.1-1.1-2 1-2.1-.3-.8-2.4-1.1-5.9-1.2-1.9-3.9-1.8-2.2 1.3-5.9-1.3-.4-8.7-2-3.5 1.6-1.4-.8-3.6 1.3-2.8.6-5.1-1.7-4-3.2-1.8-.8-2.5.5-3.7-10.7-.3-2.8-7.5 1.7-.1-.3-2.7-1.2-1.9-.5-3.7-3.4-1.9h-3.5l-2.5-1.8-3.9-1.3-2.3-2.4-6.4-1.1-6.5-5.7.3-4.3-.9-2.5.4-4.8-7.3 1.1-2.9 2.4-4.8 2.6-1.1 1.9-2.9.2-4.2-.6-3.2 1.1-2.6-.7-.1-9.7-4.4 3.7-5-.1-2.3-3.5-3.8-.3 1-2.8-3.3-3.9-2.6-5.8 1.5-1.1-.2-2.8 3.4-1.8-.7-3.5 1.4-2.2.3-3 6.3-4.4 4.6-1.2.8-1 5.1.3 2.2-17.6.1-2.8-.9-3.6-2.6-2.4.1-4.7 3.2-1 1.1.7.2-2.5-3.3-.7v-4l11 .2 1.9-2.3 1.6 2.1 1 3.8 1.1-.8 3.1 3.4 4.4-.4 1.1-2 4.2-1.5 2.4-1.1.7-2.7 4.1-1.8-.3-1.4-4.8-.5-.7-4.1.3-4.3-2.5-1.6 1.1-.6 4.1.8 4.5 1.6 1.7-1.5 4.1-1 6.4-2.4 2.1-2.5-.7-1.8 3-.2 1.2 1.4-.8 2.9 2 .9 1.2 3-1.6 2.3-1 5.4 1.4 3.3.3 3 3.5 3 2.8.3.6-1.3 1.8-.3 2.6-1.1 1.8-1.7 3.2.6 1.3-.3h0z"/>
    <path class="st0" d="m665.9 203.6 3.4.9 4.7-.2-3.3 2.6-2 .4-5.5-2.7-.6-2.1 2.5-1.9.8 3zM680.3 187.6l-2.4.1-5.8-1.9-3.5-3 1.9-.5 5.9 1.6 4.2 2.6-.3 1.1zM372.4 191.3l-3.1.9-6.3-2.8v-2.2l-2.9-2.2.3-1.8-4.3-1.1.6-3.4 1.5-1.4 4.1 1.3 2.4 1 4.1.6.2 2.2.4 2.9 3.2 2.6-.2 3.4zM711.5 177.8l-5 5.4 3.9-2.1 2.9 1.4-2.4 2.1 3.8 1.7 2.8-1.5 4.3 1.9-2.8 4.6 3.8-1.1-.3 3.3.5 3.9-3.6 5.6-2.4.2-2.9-1.2 2.5-5.1-1.2-.8-7.3 5.4-3-.2 4.4-3-4.4-1.5-5.5.4-9.6-.2-.2-1.8 3.8-2.3-1.7-1.6 5.4-3.8 8.2-9.9 4.2-3.5 5-2.1 2.1.2-1.5 1.7-3.8 3.9zM351.5 156.4l1.5.8 5-.5-7.2 6.9.3 5h-1.9l-.7-2.8.5-2.9-.8-1.9 1.3-2.7 2-1.9zM634.9 108.9l-3.6 3-1.7-.5-.1-1.7.4-.4 2.8-1.7 1.7.1.5 1.2zM625.2 105.7l-7.2 3.2-3-.2v-1.5l5-2.7 6 .1-.8 1.1zM622.1 88.9l-.9 2.5 2.7-.9 1.5 1.5 3.5 2 3.8 1.7-1.4 2.7 3.5-.4 1.9 1.9-5 1.8-5.9-1.4-.8-2.6-6.3 3.1-8.2 2.9.7-3.3-6.3.5 5.7-2.8 3.6-4.5 5.1-5.1 2.8.4zM667 80.6l-4.9.3.7-2.7 3.8-3.1 4.3-.7 2.3 1.5-1.5 2.3-.9.8-3.8 1.6zM592.5 69.9l-4.1 1.9-4.2-1.6-3.9.5-3.4-2.4 5-1.7 4.9-2.3 3 1.5 1.6 1 .4 1 .7 2.1z"/>
    <path class="st0" d="m645.5 212.5-2.2-3.6 2.9-8.5-1.6-1.8-3.7 1-1.1-1.6-5.5 4.7-3.2 4.9-2.8 2.9-2.5 1-1.7.3-1.1 1.5h-9.3l-7.8.1-2.7 1.1-6.8 4.4v-.1l-.9-.4-2 .9-1.9 1.3-1.8-1.1-4.7.8-3.9.9-1.9.8-2.3 2.1 1.8.7 1.7-.4h.3l-.3 1.9-4.8.7-2.8.8-1.7 1-2.6-.6-1.6.3-2.9 1.8-4.6 2-2.7-.4 2-2.2 3.7-3.5 4.1-2.1 1.1-1.8.9-3 3.8-3.5.9-4 1.1 3.9 3.8.9 2.4-2.1-1.4-4.8-.9-2-4-1.2-3.8-.7h-3.9l-3.4-.8-.4-1.4-1.4.9-1.2-.2 1.9-2.1-1.8-.8 1.9-2.4-1.2-1.8 1.7-1.8-5.2-.9-.1-3.6-.8-.8-3.3-.2-4.1-1.2-1.5.8-1.8 1.5-3.3 1-3.1 2.5-5.4-1.7-4.4.8-3.9-1.9-4.6-1-3.3-.4-1-1 .9-3.4h-1.7l-1.3 2.4H377l-5.4-6.1-1.6-2.7-7-2.6 1.3-5.5 3.6-3.7-4.1-2.7 3.1-4.9-2.1-4.4 2.5-3.2 5.1-2.9 3.2-3.8-4.6-3.8 1.4-6.9 1.1-4.2-1.6-2.7-.8-2.4.6-3.1-6.5 1.9-7.6 3.3-.3-3.8-.5-2.6-2.8-1.6-4.2-.2L385.4 87 410 66.6l6 1.3 3.3 2.6 3.7.5 6.3-2.2 7-1.7 5.3.6 8.9-2.3 8.2-1.3.2 2.2 4.5-1.3 3.9-2.5 2.1.6 1.4 4.8 9.5-3.7-3.9 4.1 6-.9 3.2-1.5 4.6.3 3.9 2.2 7.5 2 4.7.9 4.4-.3 2.9 2.8-8.5 2.7 6.4 1.1 11.9-.6 4.4-1 1.4 3.3 7.1-2.7-2.1-2.4 4.5-1.8 5.2-.3 3.9-.5 2.1 1.3 1.5 2.9 5-.4 5.3 2.5 7.2-.9 6 .1 2.4-3.4 4.5-.9 4.9 1.8-4.3 5.2 6.2-4.4 3.2.2 6.4-5.5-1.6-3.3-2.9-2.2 5.5-5.9 8.2-3.8 4.5.9 2 2.3.4 6-5.8 2.6 6.7 1.1-4.4 5.5 8.9-4.2 2.2 3.5-4.3 4 1.3 3.7 7.3-3.9 6.5-4.8 4.7-5.9 5.5.4 5.4.8 3.6 2.7-1.7 2.7-5.1 2.9.9 2.9-2.4 2.7-10.9 3.9-6.5.9-3.2-1.7-3.3 2.8-7.4 4.7-3 2.5-7.7 3.8-6.5.4-5.1 2.4-2.9 3.8-5.7.7-8.7 4.7-9.4 6.5-5 4.6-4.9 6.9 6 1-1.5 5.5-.8 4.6 7.3-1.2 7 2.6 3.3 2.3 1.7 2.8 4.9 1.7 3.6 2.5 7.6.4 4.8.6-3.6 5.2-1.7 6.1.1 6.9 4.4 5.9 4.7-2 5.6-6.4 2.3-9.6-1.7-3.2 9-2.9 7.5-4.2 4.8-4.2 1.7-4-.4-5.1-3.2-4.5 8.9-6.2 1-5.3 3.9-9 3.8-1.4 6.7 1.6 4.2.6 4.5-1.6 3.1 2 3.6 3.4.2 2.2 7.7.5-2.6 4.9-2.3 7.4 3.8 1 1.6 3.5 8.2-3.3 7.5-6.6 4.2-2.7 1.1 5.3 2.6 7.5 2 7.2-3.4 3.8 4.8 3.4 2.9 3.4 6.9 1.6 2.4 1.9v5.2l3.4.8 1.1 2.3-2 6.9-4.3 2.3-4.2 2.2-8.8 2.2-7.9 5-8.6 1.1-10.1-1.4h-7.3l-5.3.4-5.7 4.5-7.4 2.8-10.1 8.2-7.9 5.8 4.7-1 10.9-8.3 12.3-5.2 7.6-.6 3.3 3.1-6.1 4.2-.6 6.7.1 4.8 5.6 3.1 8.6-.9 7.2-7.1-1 4.6 2.5 2.3-7.4 4.1-12.4 3.8-5.8 2.5-7.2 4.6-3.7-.5 1.5-5.3 10.4-5.3-8.1.2-5.9.8z"/>
    <path class="st0" d="m539 48.7-4.7 2.4 10.5-1.5 2.6 2.6 7.3-2.7 1.8 1.7-2.2 5.1 4.3-2.1 2.8-5.3 4.3-.8 3 .8 2.2 2.1-2.7 5.1-2.4 3.7 4.2 2.6 5 2.6-2.6 2.3-7.1.5.8 2-3.2 2-6.7-.8-5.7-1.5-5.1.3-9.5 1.9-11.3.8-7.9.5.3-2.6-4.1-1.4-4.3.6-.6-4.3 3.3-.6 7.3-.9 5.5.3 6.2-1-6.5-1.2-9.1.4-5.7-.1v-1.9l11.7-2.2-6.3.1-5.4-1.4 7.8-3.9 5.2-2.1 14.2-3.1 2.8 1zM578.5 47.2l-7 3.4-2.3-3.6 2.1-.8 5.5-.2 1.7 1.2zM687.1 48.8l-.7 1.4-4.1-.1-4.1-.1-4.9.7-.9-.4-2.1-2.7 1.7-1.8 2.2-.4 8.4.6 4.5 2.8z"/>
    <path class="st0" d="m647.3 48.5.3 3.2 7.2-4.1 11.7-2.1 2.3 5.3-3.2 3.4 9-1.5 5.3-2.1 6.8 2.6 3.7 2.5-1.1 2.3 8.2-1.2 1.9 3.4 8.4 2.1 2.2 2.1.9 5.1-9.1 2.5 7.7 3.6 5.9 1.2 3.3 5 6.5.4-3.3 3.9-10.9 6.5-4-2.4-3.8-5.4-5.9.7-2.3 3.3 2.7 3.2 4.5 2.6 1 1.5-.1 5.7-3.6 4.1-4.7-1.6-8.6-4.5 3.6 4.9 2.8 3.5-.3 2-10.9-2.3-7.6-3.4-3.8-2.7 2.4-1.7-4.8-2.9-4.7-2.7-.9 1.6-13.1.9-2.4-1.9 5.4-4.2 8.1-.1 9.3-.7-.2-2 3.1-2.8 8.8-5.4.4-2.5-.5-1.8-4.7-2.7-7.1-1.8 3.5-1.4-2-3.4-3.4-.3-1.9-1.8-3.3 1.6-7.9.7-14-1.2-7.4-1.6-5.9-.8-1.9-1.9 6.3-2.4h-5.7l3.3-5.3 7.1-4.6 6-2.1 11.2-1.4-5.8 3.3zM596.9 45l3.6 1.1 7.6-.7-.5 1.5-6.1 2.5 3.8 2.2-5.2 4.7-8.4 2-3.4-.4-.9-2-5.9-4 1.7-1.7 7.4.6-.9-3.3 7.2-2.5zM619.5 50.5l-7.8 3.9-4.4-.2 1.8-4.6 2.6-2.5 4.2-2.2 5.2-1.4 7.9.2 6.2 1.2-10.1 4.6-5.6 1zM503.7 57.7l-13.5 2.6.6-2.3-6-2.8 4.4-2.2 7.5-3.8 7.6-3.4.4-3.1 14-.8 4.2 1.1 9.5.3 1.9 1.4 1.6 2.2-6.5 1.3-13.9 3.6-9.2 3.7-2.6 2.2zM628.9 39.3l-4.1 1.9-5.2-.4-3.2-1.3 4.5-2.2 6.9-1.4 1.4 1.8-.3 1.6zM620.1 30.6l.2 2.3-2.8 2.5-5.8 3.8-6.9.5-3.2-.8L605 36l-6.6.3 4.3-3.8 3.8.2 7.7-1.7 4.9.3 1-.7zM580.7 33.2l-.7 1.7 4.4-.8 3.6.2-2.3 2.5-5.1 2.3-13.9.8-12.3 2.2-6 .1 1.5-1.6 10.7-2.3-17.9.6-4.2-.9 11.7-4.8 5.4-1.4 8.3 1.7 2.9 2.9 6.1.4.7-4.7 5.8-1.8 3.1.5-1.8 2.4zM636.4 28.8l2.3 1.6h7.4l1.4 1.6-2.8 1.8 3.1 1.1 1.2 1.2 4.9.2 5.1.4 7.1-1 8.1-.5 5.8.4 2.3 1.9-1 2-3.6 1.4L671 42l-4.3-.7-11.8.8-8 .1-5.6-.6-8.6-1.6 1.6-2.8 2.1-2.4-1.4-2.2-7-.6-2.6-1.5 3.8-2 7.2.3zM560.7 26.2l-5.8 3.7-5.3 1.7-3.8.2-9.9 2.1-7.1.8-3.6-1.1 11.7-3.7 12.2-3.1 5.5.1 6.1-.7zM641.9 26.8l-1.8.1-6.6-.3.7-1.3 7.2.1 1.6.8-1.1.6zM583.1 25.9l-8.8 1.4-3.3-1.5 5.1-1.5 6-.5 4.1.7-3.1 1.4zM590.9 21.7l-5.7.9h-6l1-.7 5.7-1.3 1.7.2 3.3.9zM637.7 24.2l-6.6 1-1.6-1.1.6-1.7 2.2-1.9 4.4.2 1.7.3 2.3 1.6-3 1.6zM623.9 23l-1.1 1.9-5.3-.5-4-1.5-7.8-.2 5.3-1.3-2.8-1.1 2.2-1.8 6.1.6 7.5 1.7-.1 2.2zM678 16.9l2.7 1.5-6.5 1.3-10.6 3.5-6.8.3-6.8-.6-1.6-1.9 2.1-1.6 4.3-1.2h-6.6l-2-1.5.4-1.9 4.9-1.9 4.1-1.3 4-.3-.3-1 8.3-.2 1.6 2.2 4.7.9 4.8.9-.7 2.8z"/>
    <path class="st0" d="m757.2 2.9 8.7.3 6.7.5 5.2 1-1.1 1-9.8 1.7-9 .8-4 .9h7.5l-10.5 2.5-6.8 1.2-9.3 3.5-8.1.7-3.1 1-11.3.4 4.4.6-3.3.8.7 2.3-5 1.6-6.9 1.3-3.5 1.8-6.6 1.5-.5 1.1 6.5-.2-1.1 1.2-12.7 2.9-8.5-1.4-11.7.8-5-.6-6.8-.3 2.1-2.3 8-1.1 2-3.4 2.6-.3 7.5 2-1.7-3-4.9-.9 5-1.8 7.6-1.1 2.8-1.6-3-1.7 1.1-2.2 9.4.1 2.2.5 7.3-1.6-7.3-.5-12.6.3-4.4-1.4-.8-1.7-2.5-1.2 1.1-1.3 6-.8 4.2-.1 7.4-.6 6.8-1.5 3.9.2 2.4 1.1 5-2 5.2-.6 6.5-.4 10.4-.2 1.3.4 10.3-.6 7 .2 7 .2zM1602.2 381.9l-4.3 3.1-4.9-2-1-5.5 2.2-2.9 5.8-1.8 3.3.1 1.6 2.5-2 2.8-.7 3.7zM1625.6 185.5l9 4.5 6 5.8h7.6l2.6-2.4 6.9-1.9 1.3 5.7-.3 2.3 2.8 6.8.6 6.2-6.9-1.1-2.9 2.2 4.7 5.4 3.9 7.5-2.5.1 1.9 3.3-5.5-3.8v3.6l-6.4 2.7 2.8 3.4-4.6-.3-3.6-2-1.1 4.6-3.9 3.4-2.1 4.1-6.3 1.8-2.4 3-4.8 1.8 1.3-3-2.3-2.5 2-4.3-4.5-3.3-3.4 2.2-3.6 4.5-1.3 4.1-5 .3-1.3 3 4.8 4.3 4.8 1.1 1.4 2.8 5.1 1.9 3.8-4.6 5.9 2.5 3.5.2 2.3 3.3-6.7 1.8-1 3.5-3.8 3.2-.9 4.5 7.1 3.5 4.6 6.3 5.5 5.9 5.5 4.9 1.6 4.8-2.8 1.8 2.4 3.4 3.9 2 .8 5.2.1 5.1-2.8.6-2.1 6.9-2.3 8.5-3.4 7.6-6.4 5.9-6.6 5.5-6.1.7-2.9 2.8-2.3-2-2.5 3.1-7.2 3.3-5.8.9-.7 6.8-3.1.4-2.2-4.7.9-2.4-7.8-2.1-2.4 1.1-5.9-1.7-3.1-2.6.3-3.7-5.3-1.2-3.1-2.4-4.1 3.4-5.3.8-4.4-.1-2.7 1.6-2.7.9 2 7.4-3-.2-.8-1.5-.5-2.7-3.8 1.9-2.6-1.2-4.5-2.4.8-5.3-3.7-1.3-2.4-5.9-5.6 1.1-.7-7.6 4.2-5.4-.9-5.3-1.3-4.9-2.7-1.5-2.7-3.8-3.1.5-6.1-1 1.2-2.7-3.6-4-3.2 2.7-4.9-1.5-5.4 4-3.9 4.8-4.2.8-2.8-1.7-2.9-.2-4.3-1.4-2.6 1.6-2.6 4.8-1.5-5.1-3.1 1.4-6.5-.7-6.5-1.4-5-2.9-4.5-1.2-2.5-3.1-3.3-.9-6.4-4.2-4.8-2-1.9 1.5-8.6-4.5-6.2-4-3.2-7.1 4.1.9-.6-3.3-3-3.3-.8-5.2-7.7-7.6-9.5-2.5-2.9-5-4.7-3-1.5-1.8-1.8-3.6-.5-2.5-3.7-1.5-1.5.7-3.1-6 1.1-1.4-1.2-1.5 4.1-3 3.2-1.3 5.8.9.6-4.1 6.4-.7 1-2.6 6.9-3.4.2-1.4-1.7-3.7 2.9-1.6-8.8-11 9.1-2.5 2-1.4-1-11.3 10.8 2.1 1.6-2.9-2.5-6.2 3.8-.6 1.9-4.2 1.7-.5 3.3 4.4 5.7 3.3 8.2 2.3 5.8 5.1 1.4 7.3 3 2.8 6.5 1.1 7.2.8 8 4 3.4.7 5 5.8 4.7 3.8 5.6-.2 11.3 1.5 6.4-.9 5.6.9 9.4 3.9h6.2l3.3 1.9 4.4-3.4 7.2-2.2 7.6-.2 4.9-2.2 2-3.4 2.4-2.2-1.9-2.1-2.9-2.4.5-4.1 3.2.6 5.9 1.3 3.2-3.4 6.4-2.4 1.3-4.2 2.5-1.8 6.8-.8 4.4.7-.8-2.2-7.2-4.4-5.2-2-2.5 2.3-5.5-1-2.3.8-2.8-2.5-.3-6.3-.6-4.7 7.4 2.4 4.4-3.9-1.9-2.8-.2-6.5 1.3-2-2.5-3.4-3.7-1.4 1.7-3.1 5.1-1.1 6.2-.2 8.6 1.9 6 2.2 7.7 6.2 3.8 2.7 4.5 3.8 6.2 6 10 2zM1046.1 147.7l-2.4 4.9-5.2-3.5-.9-2.5 6.8-2 1.7 3.1zM1026.7 151.6l.39 3.4c.44.76.87 1.53 1.31 2.3-1.04 1-2.07 2-3.1 3-.34-.44-.67-.87-1-1.3l-4 .3c-.27.43-.54.86-.8 1.3.3.69.6 1.4.9 2.09l-.9 5.61c-.4.76-.8 1.53-1.2 2.3h-2.9c.36 2.16.73 4.33 1.1 6.5-.14 1.4-.27 2.8-.4 4.2.33.46.66.93 1 1.4-.07.9-.14 1.8-.2 2.7.8.53 1.6 1.06 2.4 1.6 2.4.4 4.79.8 7.2 1.2-.8 1.4-1.61 2.8-2.41 4.2l-.39 4.5h4.2c.33-.44.66-.87 1-1.3 1.83.63 3.66 1.26 5.5 1.9.46-.1.93-.2 1.4-.3.9.56 1.79 1.13 2.7 1.7.2-.57.39-1.14.59-1.7 0 0 0 0 0 0s0 0 0 0l10.31-.6c.56.43 1.13.86 1.69 1.3.14-.37.27-.74.41-1.1-.34-1.37-.67-2.74-1-4.1.56-.27 1.13-.54 1.7-.8.53-.97 1.06-1.94 1.6-2.9-1-.87-2-1.74-3-2.6-.87-.5-1.74-1-2.6-1.5-.24-.9-.47-1.8-.7-2.7-.34-.6-.67-1.2-1-1.8 1.13-.44 2.26-.87 3.4-1.3.56-.54 1.13-1.07 1.69-1.6 1.17-.4 2.34-.8 3.5-1.2l1.11-1.2c.43.23.86.46 1.3.7.73-.2 1.46-.4 2.2-.6-.8-1.3-1.61-2.6-2.4-3.9.06-.74.13-1.47.2-2.2l-1.5-3.3c-.64-.7-1.27-1.4-1.91-2.11.41-.56.8-1.13 1.21-1.69-.47-1.04-.94-2.07-1.4-3.1-.8-.64-1.6-1.27-2.4-1.9-1.87-.81-3.74-1.6-5.6-2.4-.87.53-1.74 1.06-2.6 1.59-1.57.41-3.14.81-4.71 1.21l-.09-2.21c-1.64-.46-3.27-.93-4.91-1.39-.09-.77-.2-1.54-.29-2.3"/>
    <path class="st0" d="M1033.3 151.5c-.47-1-.94-2-1.4-3 1.03-1.44 2.06-2.87 3.1-4.31.46.21.93.41 1.4.61.33-.77.66-1.54 1-2.3-.87-.31-1.74-.6-2.6-.9-.24-.54-.47-1.07-.71-1.6.41-.67.8-1.34 1.21-2v-3.1c-1.21.56-2.4 1.13-3.6 1.7-.54.56-1.07 1.13-1.61 1.7l-4 .3c-.43.59-.86 1.2-1.29 1.8-.21.56-.4 1.13-.6 1.7l.39 6.09c.71 1.14 1.41 2.27 2.11 3.41"/>
    <path id="EG" class="st0" d="m1172.1 301.4 3.9 9.4.7 1.6-1.3 2.6-.7 4.8-1.2 3.4-1.2 1.1-2-2.1-2.7-2.8-4.7-9.2-.5.6 2.8 6.7 3.9 6.5 4.9 10 2.3 3.5 2 3.6 5.4 7.1-1 1.1.4 4.2 6.8 5.8 1.1 1.3h-65.9l-1-23.7-1.3-22.8-2-5.2 1.1-3.9-1-2.8 1.7-3.1 7.2-.1 5.4 1.7 5.5 1.9 2.6 1 4-2 2.1-1.8 4.7-.6 3.9.8 1.8 3.2 1.1-2.1 4.4 1.5 4.3.4 2.5-1.6h0z"/>
    <path class="st0" d="m972.6 129.5-5.1 6.5 4.7-.8h5.1l-1.3 4.9-4.3 5.4 4.9.3.3.7 4.2 7.1 3.2 1 2.9 7 1.4 2.4 5.9 1.1-.6 4-2.4 1.8 1.9 3.2-4.4 3.2-6.5-.1-8.4 1.8-2.2-1.3-3.3 2.9-4.5-.7-3.6 2.4-2.5-1.2 7.3-6.5 4.4-1.4-7.6-1-1.3-2.5 5.1-1.9-2.5-3.3 1-4 7.1.6.8-3.6-3.1-3.7-.1-.1-5.7-1.1-1.1-1.6 1.8-2.7-1.5-1.7-2.6 2.9-.1-5.9-2.2-3 1.9-6.2 3.8-4.8 3.6.4 5.6-.5zM1112.7 272.6l3.1 2.2 4.1-.4 4 .4v1.2l2.8-.8-.5 1.9-7.6.5-.1-1-6.6-1.3.8-2.7z"/>
    <path id="GL" class="st0" d="m896.3 1.4 19.9 3-6.7 1.4-13 .2-18.5.4 1.4.7 12.3-.5 9.7 1.4 7-1.2 2.4 1.4-4.5 2.4 9.2-1.6 17.1-1.5 10 .8 1.7 1.7-14.8 2.9-2.2 1-11.4.8 8.1.2-4.9 3.2-3.6 2.9-1.2 5.2 3.7 3.2-5.9.1-6.5 1.6 6.3 2.6-.1 4.2-4.2.5 4.1 4.3-8.7.4 4 2-1.6 1.8-5.7.8-5.5.1 4.2 3.4-.5 2.4-7.3-2.2-2.4 1.4 5 1.3 4.6 3.2.6 4.3-7.4 1-2.7-2.1-4.2-3 .5 3.6-5.4 2.8 10.7.2 5.5.3-11.9 4.7-12.2 4.3-12.7 1.8-4.6.1-4.9 2.1-7.5 5.8-10.2 3.9-3 .3-6.1 1.3-6.6 1.4-4.8 3.4-1.4 4-3.4 3.8-8.6 4.6.3 4.5-3.6 4.8-4.1 5.7-6.5.4-5-4.8-9-.1-3.2-3.2-.8-5.6-4.8-7.2-.7-3.7 1.5-5.1-3.7-5.1 3.3-4.1-1.9-2 7-6.4 7.2-2.1 2.6-2.2 2.8-4.2-5.5 1.9-2.6.8-4.1.7-4.2-1.7 1.5-3.7 3-2.8 3.8-.1 7.6 1.5-5.3-3.4-2.7-1.8-4.4.7-2.6-1.3 7-4.8-1.3-2L768 46l-1.4-5.4-3.6-1.9 1.4-2.1-8.1-2.9-7.7-.4-10.1.2-9.5.4-3.1-1.6-3.8-3.1 11-1.5 7.6-.2-14.6-1.3-6.5-1.9 2.2-1.8 15.7-2.2 15-2.2 2.8-1.6-8.1-1.6 4.6-1.7 14.7-2.9 5.4-.4.2-1.8 9-1.1 11-.6h10.4l2.8 1.2 10.6-2.2 7.1 1.5 4.6.3 6.2 1.3-6.7-2.1 1.6-1.7 12.7-2.2 11.6.2 5.1-1.4L870 1l26.3.4h0z"/>
    <path class="st0" d="m1667.5 567.6-2.4.1-7.1-4.5 5.4-1.3 2.8 2 1.8 1.9-.5 1.8zM1692.3 558.9l.5 1.3-.1 1.9-4.1 4.8-5 1.4-.6-.7.7-2.2 2.8-3.9 5.8-2.6zM1652.7 553.8l1.9 1.7 3.6-.5 1.2 2.7-6.7 1.3-3.9.9-3.1-.1 2.2-3.7h3.2l1.6-2.3zM1681 553.8l-1.1 3.6-8.6 1.8-7.5-.8.2-2.4 4.6-1.3 3.4 1.9 3.8-.5 5.2-2.3zM1600.8 545.3l10.8.7 1.4-2.7 10.3 3.1 1.8 4.2 8.4 1.2 6.7 3.8-6.6 2.4-6.1-2.6-5.1.2-5.8-.5-5.2-1.1-6.4-2.5-4.1-.6-2.4.8-10.2-2.7-.8-2.7-5.1-.5 4.2-6.1 6.8.4 4.4 2.5 2.4.5.6 2.2zM1748.7 541.7l-3.2 4.4-.2-4.8 1.1-2.3 1.3-2.2 1.2 1.9-.2 3zM1707.3 524l-2.2 2.2-3.8-1.2-1-2.8 5.7-.3 1.3 2.1zM1725.7 521.7l1.8 4.9-4.6-2.7-4.7-.5-3.3.4-3.9-.2 1.5-3.5 7-.3 6.2 1.9zM1696.4 492.7l-4.5 6.4-4.3 1.2-5.4-1.2-9.5.3-4.9.9-.8 4.9 5 5.7 3.1-2.9 10.6-2.2-.5 2.9-2.5-.9-2.5 3.8-5.1 2.5 5.1 8.2-1.1 2.2 4.8 7.4-.3 4.2-3.1 1.9-2.1-2.3 3-5.2-5.7 2.5-1.3-1.8.8-2.5-3.9-3.8.7-6.2-3.9 1.9.2 7.5-.2 9.2-3.7.9-2.3-1.8 1.9-5.9-.6-6.2-2.4-.1-1.6-4.4 2.5-4.2.9-5.1 3-9.7 1.1-2.6 4.8-4.8 4.5 1.9 7.1.9 6.5-.3 5.6-4.6 1 1.4zM1716 494.6l-.3 5.6-2.9-.7-.9 3.9 2.3 3.4-1.6.8-2.2-4.1-1.7-8.2 1-5.1 1.8-2.3.5 3.5 3.4.5.6 2.7zM1585.2 539.4l-6.2.1-4.5-5.3-7.1-5.3-2.3-3.9-4.1-5.2-2.7-4.8-4.2-9-4.9-5.4-1.7-5.5-2.2-5-5.2-4-3.1-5.5-4.4-3.6-6.2-7.1-.6-3.3 3.6.3 8.9 1.2 5.2 6.3 4.6 4.4 3.2 2.6 5.5 6.9 5.8.1 4.8 4.4 3.4 5.4 4.3 3-2.3 5.2 3.3 2.2 2 .2.9 4.5 1.9 3.5 4.1.6 2.6 4.1-1.7 8-.7 9.9zM959.4 154.1l-4.9-3.8-4 .3h0l-3.7 2.8-6.7 4.8 2.1 6.2-4.3 6.4 6.8.9 8.8-3.6 3.9-5.5-.7-4.4 2.7-4.1z"/>
    <path id="IS" class="st0" d="m924.8 84.5-1.4 3.6 4.4 3.8-6.1 4.3-13.1 3.9-3.9 1.1-5.6-.9-11.9-1.8L892 96l-9-2.7 7.9-1.1.1-1.7-8.8-1.3 3.6-3.7 6.6-.8 6 3.8 7-3 5.1 1.5 7.3-2.9 7 .4h0z"/>
    <path class="st0" d="m1068.2 256.4-1.7 5.1.9 1.9-.9 3.3-4.2-2.4-2.7-.7-7.5-3.2.5-3.3 6.2.6 5.4-.7 4-.6zM1034.2 237.4l3.3 4.5-.4 8.5-2.4-.4-2.1 2.1-2-1.7-.5-7.7-1.3-3.6 2.9.3 2.5-2z"/>
    <path class="st0" d="m1082.2 242.9-4.7-3.4-4-1.9-4.8-2.3 1.4-1.3-1.4-1.4-4 .1-6.1-5.1-2.9-5.3-5-3.2-1.9-3.2.5-1.8-.4-3.1 3.9-2.3 4.1 1-1.4-2.7.4-3.1-.2-1.7-1.5-1 .2-1.6-1.2-1.2-2-.5-1.7-1.3-10.3.6-.6 1.7-2.7-1.7-1.4.3-5.5-1.9-1 1.3h-4.2l-1.3 1.1-2.3-.6.2 1.6-3.6 3.5v2.9l2.4-1 1.8 2.7-.1 1.8h0l.1-1.8-.1 1.8 1.5 2.4-1.7 1.9 1.5 4.9 2.8.8-.5 2.7 2.1-.4 2.9-3 2.3-.8 4.2 2.1 2.6.7 1.9 6.3 3.7 3.6 4.9 4.2 4.3 2.8 3.8.4 2.4 2.6 3.4 1.2 1.8 2.7 2.2.8 1.8 3.2 2.3 3.7-1.1 1.4-.9 3.4.1 2 2.2-.5 2.5-5.5 2.1-.4.4-3.3-3.9-2.4 1.9-4.1 4.6 1 3.1 3 .8-2.3-.7-1.1zM1708.5 282.6l1.6 2.2-1.3 3.9-3.1-2.1-2.1 1.5.1 3.7-4.3-1.8-1.2-3 1.3-3.9 3.4.8 1-2.7 4.6 1.4z"/>
    <path class="st0" d="m1733.1 263.4.6 5.1 2.5 3.2-.6 4.5-5.4 3-9.2.4-4.4 7.4-4.7-2.5-2.4-4.8-8.6 1.4-5.1 3-6.2.2 7.4 4.7.8 10.9-2.5 2.7-3.6-2.5-.9-5.8-4.1-1.8-4-4.4 4.3-2 1.1-4.1 3.9-3.3 2-4.4 9.7-1.9 6.3 1.3v-11.4l5.1 3.1 4.5-6.4 1.7-2.5-1-7.8-5.1-7.2-.2-4 4.8-1.2 8.2 8.9 2.8 5.1-1.3 6.5 3.6 6.6zM1721.2 218.6l4.5 1.3 1.8-2.6 6 7.1-6.4 1.7-.4 6.3-10.9-4.3 1.6 6.9-5.7.1-4.7-6.3-.6-4.9 5.2-.3-4.4-8.8-1.8-4.9 10.5 6.6 5.3 2.1z"/>
    <path id="LY" class="st0" d="m1122.6 299.1-1.7 3.1 1 2.8-1.1 3.9 2 5.2 1.3 22.8 1 23.7.5 12.8h-6.4v2.7l-22.6-12.3-22.5-12.3-5.5 3.5-3.8 2.4-3.2-3.5-8.8-2.8-2.5-4-4.5-3-2.5 1.2-2.1-3.6-.2-2.7-3.4-4.7 2.2-2.7-.6-4 .6-3.5-.4-3 .8-5.2-.4-3-1.9-5.7 2.6-1.4.4-2.8-.6-2.6 3.6-2.5 1.6-2.1 2.6-1.8.1-4.9 6.4 2.2 2.3-.6 4.5 1.1 7.3 2.9 2.8 5.7 4.9 1.2 7.8 2.7 6 3.2 2.5-1.7 2.5-2.9-1.6-4.9 1.5-3.2 3.7-3 3.7-.8 7.4 1.3 2 2.8 2 .1 1.8 1.1 5.4.7 1.5 2.1h0z"/>
    <path id="MG" class="st0" d="m1267.9 588.9.4 7.7 1.3 3-.7 3.1-1.2 1.8-1.6-3.7-1.2 1.9.8 4.7-.7 2.8-1.7 1.4-.7 5.5-2.7 7.5-3.4 8.8-4.3 12.2-2.9 8.9-3.1 7.5-4.6 1.5-5.1 2.7-3-1.6-4.2-2.3-1.2-3.4v-5.7l-1.5-5.1-.2-4.7 1.3-4.6 2.6-1.1.2-2.1 2.9-4.9.8-4.1-1.1-3-.8-4.1-.1-5.9 2.2-3.6 1-4.1 2.8-.2 3.2-1.3 2.2-1.2 2.4-.1 3.4-3.6 4.9-4 1.8-3.2-.6-2.8 2.4.8 3.3-4.4.3-3.9 2-2.9 1.8 2.8 1.4 2.7 1.2 4.3h0z"/>
    <path id="MX" class="st0" d="m449.3 335.9 2.2-.2-3.2 5.7-1.8 4.6-1.8 8.6-1.1 3.1.4 3.5 1.3 3.2.4 4.9 3 4.8.8 3.7 1.7 3.1 5.7 1.7 1.9 2.7 5.2-1.8 4.3-.6 4.4-1.2 3.6-1.1 3.9-2.6 1.8-3.7 1.2-5.4 1.2-1.9 4-1.7 6.1-1.5 4.9.3 3.4-.6 1.2 1.4-.6 3.1-3.5 3.8-1.8 3.9.9 1.1-1.2 2.8-2.1 5-1.2-1.7-1.1.1-1.1.1-2.5 3.9-.9-.8-.7.3-.1 1-5.2-.1h-5.2l-.5 3.6-2.5.1 1.8 2.1 1.9 1.5.5 1.4.8.4-.4 2.2h-7.2l-3.3 5.2.7 1.2-.8 1.5-.4 1.9-5.6-6.9-2.6-2.1-4.4-1.7-3.2.5-4.8 2.4-2.9.6-3.7-1.7-4.1-1.2-4.8-2.9-4.1-.9-5.9-3-4.3-3.1-1.1-1.7-3.1-.4-5.4-2-1.9-2.9-5.4-3.7-2.2-4-.8-3.2 1.9-.6-.3-1.8 1.6-1.7.4-2.2-1.5-2.9v-2.5l-1.3-3.3-3.8-6.4-4.6-5-1.9-4-4.1-2.6-.7-1.6 1.7-3.9-2.4-1.5-2.5-3.2-.2-4.4-2.8-.6-2.3-3.3-1.7-3.2.3-2-1.5-4.8-.3-4.9.8-2.5-3.1-2.6-1.9.3-2.4-1.7-1.8 2.6-.1 3-1 4.9 1 2.6 2.8 4.4.4 1.6.7.4.1 2.2 1-.1v4.2l1.3 1.6.5 2.3 2.7 3.2.4 6 1 2.8.9 3-.3 3.4 2.6.2 1.6 2.9 1.5 2.9-.3 1.2-2.8 2.3h-1l-.7-3.9-2.9-3.7-3.4-3.1-2.5-1.6 1.2-4.7-.1-3.5-2.1-2-3.1-2.8-.9.8-1-1.7-3-1.5-2.2-3.8.5-.4 2.1.3 2.7-2.4 1-2.9-2.9-4.6-2.6-1.7-.8-4-.6-4.3-.8-5.1-.2-5.8 6.3-.5 7.1-.7-.9 1.3 7 3.1 10.9 4.5H399.8l.8-2.7h9.4l1.3 2.3 2.1 2.1 2.4 2.8.8 3.3.4 3.6 2.3 1.9 4 1.9 4.8-5 4.5-.2 3.2 2.6 1.6 4.4.9 3.8 2.4 3.6.2 4.5.9 3 3.9 2 3.6 1.4h0z"/>
    <path class="st0" d="M1095.7 239.7c.03.56.06 1.13.1 1.7l-1.71.9-.09 2.1c-.74 1.03-1.47 2.06-2.2 3.1.16.6.33 1.2.5 1.8 1 1.23 2 2.46 3 3.7.76.96 1.53 1.93 2.29 2.9.44 1.43.87 2.86 1.31 4.3.8 1.69 1.6 3.4 2.4 5.1 1.53.93 3.06 1.86 4.6 2.8 1.16-.04 2.33-.07 3.5-.1-.84-1.9-1.67-3.8-2.5-5.7 1.1-.2 2.2-.41 3.3-.6-.6-1.11-1.2-2.2-1.8-3.31 1.66.57 3.33 1.14 5 1.71-.14-1.2-.27-2.4-.4-3.6-.94-.64-1.87-1.27-2.8-1.9l-3.2-2.9c.63-.47 1.26-.94 1.9-1.4-.97-1-1.94-2-2.9-3-.54-1.27-1.07-2.54-1.6-3.8.3-.47.6-.94.9-1.4 1.03 1.1 2.06 2.2 3.1 3.3h2.9c.83-.37 1.66-.74 2.5-1.1-1.34-1.2-2.67-2.4-4-3.6 2.06-.54 4.13-1.07 6.2-1.6l2.7.6c1.06.06 2.13.13 3.2.2.4-.24.8-.47 1.19-.7.37-1.34.74-2.67 1.11-4-.9-.57-1.8-1.14-2.7-1.7.09 1.06.2 2.13.3 3.2l-4.6.6c-1.3-.77-2.61-1.54-3.9-2.3-1.34.6-2.67 1.2-4 1.8-1.27-.07-2.54-.14-3.8-.2"/>
    <path class="st0" d="M1105.5 236.6c-.27-1.4-.54-2.8-.8-4.2-.94-.7-1.87-1.4-2.8-2.1-.8.06-1.6.13-2.4.2-.57.1-1.14.2-1.7.3-.41.1-.8.2-1.21.3-.96.33-1.93.66-2.89 1-.04.43-.07.86-.11 1.3-.23-.04-.46-.07-.69-.1-.17.73-.34 1.46-.5 2.2.33.9.66 1.8 1 2.7.76.5 1.53 1 2.3 1.5"/>
    <path id="MN" class="st0" d="m1496.2 181.5 4-1.2 5.7-.8 5.4.9 6.6 2.9 4.9 3.2h4.6l6.8 1 3.6-1.6 5.9-1 4.4-4.4 3.4.7 3.9 2.1 5.6-.6.6 4.7.3 6.3 2.8 2.5 2.3-.8 5.5 1 2.5-2.3 5.2 2 7.2 4.4.8 2.2-4.4-.7-6.8.8-2.5 1.8-1.3 4.2-6.4 2.4-3.2 3.4-5.9-1.3-3.2-.6-.5 4.1 2.9 2.4 1.9 2.1-2.4 2.2-2 3.4-4.9 2.2-7.6.2-7.2 2.2-4.4 3.4-3.3-1.9h-6.2l-9.4-3.9-5.6-.9-6.4.9-11.3-1.5-5.6.2-4.7-3.8-5-5.8-3.4-.7-8-4-7.2-.8-6.5-1.1-3-2.8-1.4-7.3-5.8-5.1-8.2-2.3-5.7-3.3-3.3-4.4 4.7-1.1 6.7-5.3 5.9-2.9 5.3 1.9 5.2.1 4.8 2.9 5 .2 8 1.6 2.4-4.4-4-3.6 1.3-6.4 7 2.5 4.8.8 6.7 1.6 3.6 4.6 8.5 2.6h0z"/>
    <path class="st0" d="m1608 488.9-3.3 4.3-.6 6 .8 5.6 2.7 5.5 2.8 1.8.6 8.6 4.6.7 3.8-.4 1.9 3.2 6.8-2.4 2.8 2.1 4 .4 2.1 3.9 6.6-2.9.7 2.3 2.5-9.8.4-6.4 5.5-4.4-.2-5.8 1.8-4.4 6.7-.8-6.4-5.9.9-3-4.4-6 3-5.8m0 0 4-2.2-1.1-3.2 3.8-.3.2-2.5-4.8-1.9-3.8-1.8-.4-2.8-3.1-3.3-2.3.1-2.6 5-4.1 4.4h0l-4.6 3.6 4.6-3.6-4.6 3.6 4.6-3.6-4.6 3.6-2.2 2.4h0l-2.6 4-3.8 5.1-6.8 1.4-2.4 1.2-1 5.4-4.3 1.2-4.2-2.2M1076.6 25.2l-7.6 1.9-6.8-1.1 2.2-1.2-2.6-1.5 7.3-.9 1.9 1.7 5.6 1.1zM1051 16.7l12.6 3.4-8.6 1.8-1.2 3.4-3 .9-.9 4-4.4.2-8.5-2.9 3-1.7-5.7-1.4-7.7-3.9-3.2-3.5 9.3-1.6 2.3 1.5h5l1-1.5 5.2-.2 4.8 1.5zM1075.4 13.7l7.4 1.5-4.4 2.4-10.1.5-10.7-.8-1-1.2h-5.1l-4.3-2 10.5-1.2 5.4 1 3.1-1.3 9.2 1.1zM1401.6 273.9l-9.5-2.5-2.9-5-4.7-3-2.9.8-2.4 1.1-5.9.8-5.3 1.3-2.4 2.8 1.9 2.7 1.4 3.2-2 2.7.8 2.5-.9 2.3-5.2-.2 3.1 4.2-3.1 1.7-1.4 3.8 1.1 3.9-1.8 1.8-2.1-.6-4 .9-.2 1.7h-4.1l-2.3 3.7.8 5.4-6.6 2.7-3.9-.6-.9 1.4-3.4-.8-5.3 1-9.6-3.3 3.2 3.4 2.8 3.9 5.7 2.8 1 5.6 2.7 1.1.9 2.9-7.5 3.4-1.1 7.4 7.6-.9 9-.1 10-1.2 4.9 4.9 2.2 4.6 4.2 1.6m0 0 7.1 5.5 1.9 2.5-2.4 2.3 8.1 7.8 4 .8 7.7-3.9 1.7 6 .8 7.8 2.6 8.2 3.5 12.5 5.9 8.8 1.4 4 2 8 3.4 6.2 2.2 3 2.5 6.5 3.1 9 5.6 6 2.2-1.9 1.7-4.3 5.1-1.8-1.9-2.2 2.3-4.9 2.9-.3-.7-10.9 1.9-6.1-.7-5.3-1.9-8.4 1.2-4.9 2.6-.3 4.8-2.3 2.6-1.6-.3-2.9 5-4.2 3.8-4.1 5.3-7.5 7.5-4.4 2.4-3.8-.9-4.8 6.6-1.3 3.8.1.5-2.4 2.2.6 1.7.7.6-1.2 2.6 1.3 1.2-3.5-.9-2.7 5.2.3 2.8 3.7 1.5 3.1.8 3.3 2.1 3.3-1.1-5.2 2.1 1-.6-4.6.6 4.6-.6-4.6 2.5-1.5-1-2.7 1-2.2-.9-6.7 4.6 1.5 1.6-5.3-.3-3.1 2-5.4-.9-3.7 6.2-4.4 4.2 1.1-1.4-3.9 1.7-1.2-1-2.4-6.1-1 1.2-2.7-3.6-4-3.2 2.7-4.9-1.5-5.4 4-3.9 4.8-4.2.8-2.8-1.7-2.9-.2-4.3-1.4-2.6 1.6-2.6 4.8-1.5-5.1-3.1 1.4-6.5-.7-6.5-1.4-5-2.9-4.5-1.2 4.5 1.2 5 2.9 6.5 1.4 6.5.7-6.5-.7-6.5-1.4-5-2.9-4.5-1.2-2.5-3.1-3.3-.9-6.4-4.2-4.8-2-1.9 1.5-8.6-4.5-6.2-4-3.2-7.1 4.1.9-.6-3.3-3-3.3-.8-5.2-7.7-7.6M1442.9 442.3l-4.1-3.5c-.67 3.46-1.34 6.93-2 10.4.46 3.06.93 6.13 1.4 9.2.96 1.7 1.93 3.4 2.9 5.1l4.8-1.5c.76-.6 1.53-1.2 2.3-1.8l.6-6.7c-1.04-2.24-2.07-4.47-3.1-6.7-.94-1.5-1.87-3-2.8-4.5zM1700.5 447.8l.9 4.3.6 3.6-1.6 5.8-2.5-6.5-2.4 3.3 2.1 4.7-1.4 3-6.9-3.7-1.9-4.7 1.5-3-3.8-3.1-1.6 2.7-2.6-.3-4 3.6-1-1.9 1.8-5.4 3.4-1.8 2.9-2.4 2.2 2.9 4.2-1.7.7-2.9 4-.2-.8-4.9 4.9 3 .7 3.2.6 2.4zM1685.9 435.8l-1.8 2.1-1.4 4.1-1.6 1.9-3.9-4.4 1-1.8 1.3-1.8.2-3.9 3.1-.4-.5 4.3 3.6-6.2v6.1h0zM1655.6 442l-7.1 6.1 2.4-4.5 3.8-4 3-4.4 2.3-6.4 1.6 5.3-3.5 3.5-2.5 4.4zM1673.1 425.5l3.6 2h3.5l.2 2.6-2.3 2.8-3.4 1.9-.5-3 .1-3.3-1.2-3zM1693.2 423.7l2.4 7.2-4.5-1.7.3 2.2 1.8 3.9-2.6 1.5-.6-4.6-1.8-.3-1.2-3.9 3.3.5-.3-2.4-4-4.9 5.4.1 1.8 2.4zM1670.2 417.9l-.9 5.6-2.7-3.2-3.5-4.9 4.8.2 2.3 2.3zM1663.7 383l3.8 1.9 1.4-1.7.8 1.6-.4 2.7 2.6 4.6-.6 5.3-2.9 2.1-.1 5.2 2 5.1 3 .7 2.4-.7 7.5 3.5-.1 3.5 2.1 1.6-.3 2.9-4.7-3.1-2.5-3.4-1.2 2.4-4-3.9-5 1-3-1.4-.1-2.7 1.6-1.6-1.9-1.5-.4 2.3-3.3-3.7-1.3-2.8-1.1-6.1 2.6 2.1-1.1-10.1.8-5.8h3.4zM1868.1 545.6l-1.6.7-2.3-2.5-2.2-4.1-.8-4.9.8-.6.5 1.9 1.6 1.5 2.4 4 2.5 2.2-.9 1.8zM1846.7 537l-3 .5-1 1.8-3.2 1.6-3 1.5h-3.1l-4.5-1.9-3.1-1.8.6-2 5 1 3.2-.5 1-3.1.9-.2.3 3.4 3.2-.4 1.8-2.2 3.3-2.3-.4-3.8 3.4-.1 1.1 1-.4 3.6-2.1 3.9zM1831.6 565.2l1.8-1.2c-1.44-.37-2.87-.74-4.3-1.1.2-.94.4-1.87.6-2.8-1.1.06-2.2.13-3.3.19-1-2.26-2-4.53-3-6.79-1.57-1.4-3.14-2.81-4.7-4.21l-.9-4.29c1.73-.24 3.46-.47 5.2-.71-.37-1.13-.74-2.26-1.1-3.39-3.07-1.34-6.14-2.67-9.2-4-.2-1.27-.4-2.54-.6-3.8-1-1.07-2-2.14-3-3.2-1.24-1.11-2.47-2.2-3.7-3.3-3.44-1.24-6.87-2.47-10.3-3.7-3.2-1.47-6.4-2.94-9.6-4.4-2.04-.4-4.07-.81-6.1-1.21-1.37-.76-2.74-1.53-4.1-2.29-1.6-.74-3.2-1.47-4.8-2.21h-5l-6.6 3.81c-1.67 2.26-3.34 4.53-5 6.8-1.9-1.27-3.8-2.54-5.7-3.8-.44-3.47-.87-6.94-1.3-10.4l-.9-2.4c-3.04-.87-6.07-1.74-9.1-2.6-.97.7-1.94 1.4-2.9 2.1-2.54.5-5.07 1-7.6 1.5.76 1.06 1.53 2.13 2.3 3.2 1.66.4 3.33.8 5 1.2.73 1.26 1.46 2.53 2.2 3.8h8.3c.13.56.26 1.13.4 1.7-1.34-.04-2.67-.07-4-.1-2.07.76-4.14 1.53-6.2 2.3 1.4 1.06 2.8 2.13 4.2 3.2-.04.93-.07 1.86-.1 2.8.36.76.73 1.53 1.1 2.3.73-.17 1.46-.34 2.2-.5.6-1.07 1.2-2.14 1.8-3.2 2.76 2 5.53 4 8.3 6 1.53.16 3.06.33 4.6.5 3.56 1.83 7.13 3.66 10.7 5.5.76 1.76 1.53 3.53 2.3 5.29.33 2.34.66 4.67 1 7-1.24.61-2.47 1.21-3.7 1.81-.94 1.73-1.87 3.46-2.8 5.19 2.4-.06 4.8-.13 7.2-.19.5-.6 1-1.2 1.5-1.81 1.86.44 3.73.87 5.6 1.31 1.53 1.76 3.06 3.53 4.6 5.3 1.93.06 3.86.13 5.8.2 1.03.36 2.06.73 3.1 1.1 1.53-.74 3.06-1.47 4.6-2.2l-.3-4.71c1.23-.73 2.46-1.46 3.7-2.19 1.63-.6 3.26-1.2 4.9-1.81 2.36.94 4.73 1.87 7.1 2.81.83 1.86 1.66 3.73 2.5 5.6.93 1.2 1.86 2.4 2.8 3.59 1.33 1.37 2.66 2.74 4 4.11 1.86.29 3.73.6 5.6.89 1.56.27 3.13.54 4.7.81.4.53.8 1.06 1.2 1.6 1.26-.14 2.53-.27 3.8-.41l.9-1.89-5.7-2.7zM1853.6 530.7l-1.8 1.7-.9-3.8-1.1-2.4-2.5-2.1-3.1-2.8-4-1.9 1.6-1.5 3 1.8 1.9 1.4 2.3 1.5 2.1 2.7 2.1 2.1.4 3.3z"/>
    <path id="PL" class="st0" d="m1079.9 154.8 5.9.7 8.8-.1 2.5.7 1.4 1.9.6 2.7 1.7 2.3.4 2.4-2.8 1.3 1.9 2.8.5 2.8 3.2 5.4-.3 1.7-2.3.7-3.8 5.2 1.6 2.8-1.1-.4-5-2.4-3.5.9-2.4-.6-2.8 1.3-2.7-2.2-1.9.9-.3-.4-2.6-3.1-3.7-.3-.7-2-3.4-.7-.6 1.6-2.8-1.3.2-1.7-3.7-.5-2.5-2-2.4-3.9.2-2.2-1.5-3.3-1.9-2.1 1.2-1.7-1.4-3.1 3.1-1.8 7.1-2.8 5.8-2 4.8 1 .6 1.5h4.6z"/>
    <path class="st0" d="M1673.2 265.7c-1.1-1.4-2.2-2.81-3.3-4.2-2.77-2.5-5.54-5-8.3-7.5-1.47-.94-2.94-1.87-4.4-2.8-.87-.37-1.74-.74-2.6-1.1.1-.24.2-.47.3-.7-.44-.9-.87-1.8-1.3-2.7.46-.57.93-1.14 1.4-1.7.96-.37 1.93-.74 2.9-1.1.3-.64.6-1.27.9-1.9.1-.37.2-.74.3-1.1.63-.47 1.26-.94 1.9-1.4-.94-1.54-1.87-3.07-2.8-4.6l.3-2.1c.33-.74.66-1.47 1-2.2.73.13 1.46.26 2.2.4-.47-.37-.94-.74-1.4-1.1-1.84-1.27-3.67-2.54-5.5-3.8v3.6c-2.14.9-4.27 1.8-6.4 2.7l2.8 3.4-4.6-.3c-1.2-.67-2.4-1.34-3.6-2-.37 1.53-.74 3.06-1.1 4.6-1.3 1.13-2.6 2.26-3.9 3.4-.7 1.36-1.4 2.73-2.1 4.1 1.13.56 2.26 1.13 3.4 1.7 1.13.23 2.26.46 3.4.7.3.33.6.66.9 1 .13 1.16.26 2.33.4 3.5.33.36.66.73 1 1.1-.3.26-.6.53-.9.8-.04.93-.07 1.86-.1 2.8.63.33 1.26.66 1.9 1 .56.19 1.13.4 1.7.6.23.4.46.8.7 1.2.43-.17.86-.34 1.3-.5.03-.4.06-.8.1-1.2 1.06.4 2.13.8 3.2 1.2l6.1 5.5c-1.14.36-2.27.73-3.4 1.1 1.76 2.2 3.53 4.4 5.3 6.6.36 1.6.73 3.19 1.1 4.8.7 1.16 1.4 2.33 2.1 3.5 1.53-.17 3.06-.34 4.6-.5 1.03-.9 2.06-1.8 3.1-2.7 1.43-.4 2.86-.8 4.3-1.2.16-1.17.33-2.34.5-3.5-1.14-2.47-2.27-4.94-3.4-7.4zM978.9 290.8 977 284l-.3-3.9-1.9-4.1h-2.4l-5.5-1.4-5.1.4-3.1-2.7-3.9-.1-1.8 4-3.7 6.6-4.1 2.7-5.4 2.9-3.6 4.3-.9 3.4-2.2 5.6 1.2 7.9-4.7 5.4-2.8 1.7-4.4 4.4-5.1.7-2.9 2.5-.1.1-3.6 6.5-3.8 2.4-2.1 3.9-.2 3.5-1.6 3.7-1.9 1-3.2 4.1-2 4.5.3 2.2-1.9 3.4-2.2 1.7-.3 3h0l-.3 2.7 1.3-2.1h21.7l-.9-9.3 1.5-3.3 5.2-.5.2-16.5 18 .4.2-9.8.1-1.2.1-.4h0l.1-7.6 8.9-4.8 5.4-1 4.5-1.7 2.1-3.2 6.4-2.5.3-4.8 3.1-.6 2.5-2.3 7.1-1.1 1-2.5-1.4-1.4zM1067.8 201.7l.8.1 1.2 2.1 1.6.8 4 2.7 4.3 1.2 1.8-1 3.7-1.6 3.2.3 3.9-1.2 2.6-4.3 5.3-2.7-.5-2.8-.5-1.7-3-1.7h0l.7-2.5 1.2-1.7-5-2.4-3.5.9-2.4-.6-2.8 1.3-2.7-2.2-1.9.9-.3-.4h0l-2.6-3.1-3.7-.3-.7-2-3.4-.7-.6 1.6-2.8-1.3.2-1.7-3.7-.5-2.5-2-2.2.6-1.3-.7-1.1 1.2-3.5 1.2-1.7 1.6-3.4 1.3 1 1.8.7 2.7 2.6 1.5 3 2.6m0 0-1.6 2.9-1.7.8 1 4.1-.4 1.1 2 .5 1.2 1.2-.2 1.6 1.5 1 .2 1.7 4.2.5 2.4-1.5 4.4-.1.9-1.1"/>
    <path class="st0" d="M1136.5 211.5c-.8-.37-1.61-.74-2.41-1.1-.76.36-1.53.73-2.29 1.1l-2.4-1.2c-.44-.97-.87-1.94-1.31-2.9l.21-2.7c-.21-.9-.4-1.8-.6-2.7-1.14-1.27-2.27-2.54-3.4-3.8-.67-.87-1.34-1.74-2-2.6-.6-.6-1.21-1.2-1.8-1.8-.54-.24-1.07-.47-1.6-.7h-2.1c-.34.5-.67 1-1 1.5-1.21.2-2.4.4-3.6.6-.54.33-1.07.66-1.61 1a212.6 212.6 0 0 0-2.5-1.6h-3.19c-1.07-.24-2.14-.47-3.2-.7-.67.46-1.34.93-2 1.4.16.93.33 1.86.5 2.8-1.77.9-3.54 1.8-5.3 2.7-.87 1.43-1.74 2.86-2.6 4.3l-3.9 1.2 3 2.4c.26.7.53 1.4.8 2.1 1.06.46 2.13.93 3.2 1.4.23.86.46 1.73.69 2.6 1.04.63 2.07 1.26 3.11 1.9.5-.47 1-.94 1.5-1.4.43.23.86.46 1.3.7-.34.36-.67.73-1 1.1.33.36.66.73 1 1.1.59.86 1.2 1.73 1.8 2.6.63-.14 1.26-.27 1.9-.4 1.33.3 2.66.6 4 .9 2.53.13 5.06.26 7.6.4.76-.54 1.53-1.07 2.29-1.6l5.91-1.5c1.33.76 2.66 1.53 4 2.3 1.03.23 2.06.46 3.09.7.14-2.57.27-5.14.41-7.7l1.59.6c.77-.44 1.54-.87 2.31-1.3-.14-.57-.27-1.14-.4-1.7zM1088.2 87l6.5 2.6.9 2.4-2.6 1.2-8.8 6.2-3.3 3.5-1.6 3.4 3 5.2-.1 5.8 4.7 1.9 3.2 3.2 7.1-1.3 7.6-2.1 8-.5 8-7.4 3.4-3.4.9-2.9-7.4-3.9.9-3.8-4.9-4.2 1.7-4.8-6.5-6.3 2.9-4.2-7.3-3.7-.4-3.8 3.2-.5 6.4-2.1-5.4-3.4 4.9-1.4-13.7-3.9-7 1-7.4-.2-5.2 4.4-6.7-.3-8.5 2.4-10.3 6.8-6.4 4.1-8.9 10.7-7.2 7.8-8.1 5.9-11.3 4.9-4 3.7 2 13.5 1.8 6.3 6.5 3 6.1-1.4 8.6-6.8 3.3 3.6m0 0 4.2 8.4 4.5 6.9 1.9 5.7 5.5-.3 2.2-4.8 5.7.6 2.1-5.7.6-10 4.6-1.4 3.3-6.6-4.8-3.3-3.7-4.1 2.1-8.1 7.8-5 6.2-4.5-1.3-3.5 3.5-3.9 7-1.6M1115.3 430.3l.7 2.7 3.3 4v2.7l-.8 2.6.4 2 1.9 1.9.5.3 1.7-.7 2-1.2 1.3-5.8 1.5-2.9 4.1-.9 1 1.7 2.9 3.8 1.6.5 2-1.1 4.1.3.8 1.3h5.6l.2-1.3 2.9-1.3.5-1.8 2.1-1.3 4.8 3.7 2.9-.7 2.7-4.6 3-3.5-.5-3.9-1.5-1.8 3.4-.4.4-1.4 2.6.4-.6 4.8.9 4.6 2.9 2.5.8 2.2-.1 3.2.8.2v-.8l1.5-6.7 2.6-1.8.5-2.6 2.3-5 3.3-3.1 2-6.4.7-5.5-.7-2.5 2-9.5.3-4.2 1.7-2 4-1.1 2.7-3.6-3.2-2.4-2.2-1.6-2.5-7.6-1.2-6.7 1.2-1.1-2.1-6.3h-65.9l.5 12.8h-6.4v2.7m0 0-22.6-12.3-22.5-12.3-5.5 3.5 1.6 10 2.2 1.7.1 2 2.4 2.2-1.2 2.8-1.8 13-.2 8.4-7 6-2.3 8.5 2.4 2.4v4.1l3.7.1-.6 3.1 2.3 4.1.5 4.2-.2 4.3 3.2 5.8h-3.2l-1.6.4-2.6-.6-1.2 3 3.4 3.8 2.5 1.1.8 2.6 1.8 4.4-.8 1.8 4.6-.5 1-1.7 1 .2 1.4 1.4 7.1-2.4 2.4-2.5 2.9-2.3-.6-2.2 1.6-.6 5.5.4 5.2-3 4-7 2.8-2.6 3.6-1.1"/>
    <path class="st0" d="M1001.6 461.6h9.2l4 4.2 1.9 4.6 3.1 4.1 4.5.1 2.2-1.4 2.1.3 5.9-2.3-.1 1.8 1.5.9 1.1 2.9 2.6 1 2.3 4.3-.9 5.1 9.3.1 2.7-.4 3.4.8 3.4-.8.7.4 7.1.2 4.6 1.7 4.5 1.5.4-3.4-.6-1.9-.3-2.9-2.6-2.1-2.1-3.3-.5-2.3-2.7-3.4.5-1.9-.6-2.7.4-5 1.4-1.1 2.8-6.5.8-1.8-1.8-4.4-.8-2.6-2.5-1.1-3.4-3.8 1.2-3 2.6.6 1.6-.4h3.2l-3.2-5.8.2-4.3-.5-4.2-2.3-4.1h0l.6-3.1-3.7-.1V412l-2.4-2.4 2.3-8.5 7-6 .2-8.4 1.8-13 1.2-2.8-2.4-2.2-.1-2-2.2-1.7-1.6-10-3.8 2.4-3.2-3.5-8.8-2.8-18.8 12.3-16 12.6-7.8 2.8-6.2.7-.1-4.1-2.6-1.1-3.5-1.8-1.3-3-18.7-14-18.6-14h0l-20.5-15.6-.2 9.8-18-.4-.2 16.5-5.2.5-1.5 3.3.9 9.3h-21.7l-1.3 2.1 2.8 2.8 1.4 3-.6 3.2.6 3.2.4 6.4-.8 6-1.6 3.2.4 3.4-1.4 3.3-2.8 4.5-2.5 1.3 2.7 2.2 2.3 5h0l-.8 2.9m0 0 11.1 14.6.8 1.4.6 2.8 1.4 1.3 1.4.9 2.2 2.5 2.4 3.8h0l.7 4.7.9 2.4 3 3.4 4 2.6 1.5.5 3.8 4.1 4.8 4 5.2 4.4 5.8 3.1 1.5-.1 1.1.2 9.5-4.2-3.9 1.8-5.6 2.4-1.1-.2-1.5.1-6.2-3.4-9.6-8.1h0l9.6 8.1 6.2 3.4-6.2-3.4-9.6-8.1 10 8.4-10-8.4 10 8.4 5.8 3.1h0l1.5-.1 1.1.2 5.6-2.4 3.9-1.8 6.7-1.2h3.7l3.9 1.2h2.6v0l5 1.8 5.1-1.9 3.2-2.2 18.1-5.9"/>
    <path id="TL" class="st0" d="m1692.7 562.1.1-1.9-.5-1.3.8-1.5 4.9-1.4 4-.3 1.8-.8 2.1.8-2.2 1.8-6.1 2.8-4.9 1.8h0z"/>
    <path class="st0" d="m1050.3 347.1-4.5-3c-.84.4-1.67.8-2.5 1.2-.71-1.2-1.4-2.4-2.1-3.6-.07-.9-.14-1.8-.2-2.7-1.14-1.57-2.27-3.14-3.41-4.7.74-.9 1.47-1.8 2.21-2.7-.21-1.34-.4-2.67-.6-4 .2-1.17.39-2.34.6-3.5-.14-1-.27-2-.4-3 .26-1.74.53-3.47.8-5.21-.14-1-.27-2-.4-3-.64-1.89-1.27-3.8-1.9-5.69.86-.47 1.73-.94 2.6-1.4.13-.94.26-1.87.4-2.8l-.6-2.61c1.2-.83 2.4-1.66 3.6-2.5.53-.69 1.06-1.39 1.6-2.09.86-.6 1.73-1.2 2.59-1.8.04-1.64.07-3.27.11-4.9-.7-.34-1.4-.67-2.11-1-.46-1.04-.93-2.07-1.39-3.1-.94-.04-1.87-.07-2.8-.11-.4-1.16-.8-2.33-1.2-3.5 1.16-1.06 2.33-2.13 3.5-3.19.16-1.87.33-3.74.5-5.6l-1.9-1.6c-.04-.97-.07-1.94-.1-2.9.83-1.07 1.66-2.14 2.5-3.21-.14-.39-.27-.8-.4-1.19-1.47.8-2.94 1.6-4.4 2.4v-3.3c-1.24-.24-2.47-.47-3.7-.7-1.9.83-3.8 1.66-5.7 2.5-1.2.13-2.4.26-3.6.4-.74-.5-1.47-1-2.2-1.5-1.9.03-3.8.06-5.7.1-1.64.83-3.27 1.66-4.9 2.5l-2.7-.9c-2.94.16-5.87.33-8.8.5-3 .36-6 .73-9 1.1-1.7.66-3.4 1.33-5.1 2-1.1.86-2.2 1.73-3.3 2.59-1.94.37-3.87.74-5.8 1.11-1.7 1.16-3.4 2.33-5.1 3.5.63 1.36 1.26 2.73 1.9 4.1l.3 3.9c.63 2.26 1.26 4.53 1.9 6.8l1.4 1.4c-.34.83-.67 1.66-1 2.5-2.37.36-4.74.73-7.1 1.1-.84.76-1.67 1.53-2.5 2.3-1.04.2-2.07.4-3.1.6l-.3 4.8c-2.14.83-4.27 1.66-6.4 2.5-.7 1.06-1.4 2.13-2.1 3.2-1.5.56-3 1.13-4.5 1.69-1.8.34-3.6.67-5.4 1-2.97 1.61-5.94 3.2-8.9 4.81-.04 2.53-.07 5.06-.1 7.6-.04.13-.07.26-.1.4-.04.39-.07.8-.1 1.19 6.83 5.21 13.66 10.41 20.5 15.61 6.2 4.66 12.4 9.33 18.6 14 6.23 4.66 12.46 9.33 18.7 14 .43 1 .86 2 1.3 3 1.16.6 2.33 1.2 3.5 1.8a500 500 0 0 1 2.6 1.1c.03 1.36.06 2.73.1 4.1 2.06-.24 4.13-.47 6.2-.7 2.6-.94 5.2-1.87 7.8-2.8 5.33-4.2 10.66-8.4 16-12.6 6.26-4.1 12.53-8.2 18.8-12.3-.84-1.34-1.67-2.67-2.5-4zM1121.9 239.9l1.2-.7 1.1-4-2.7-1.7 5-2 4.6.8.9 2.5 4.8 2-.7 1.6-6.2.3-2 2-3.9 3.4-2-2.9-.1-1.3z"/>
    <path id="TW" class="st0" d="m1657.9 355.5-1.4 5.3-4-5.5-1.5-4.7 1.9-6.3 3.3-4.9 3 1.9-.1 3.9-1.2 10.3h0z"/>
    <path class="st0" d="m1049.2 527.4 4.6 6.8.4.9.1.4.2.7.5 2h0l.3.8h0l.8 2 2.3-.9 1.7.1 2-.7 16.7.1 1.3 4.7 1.6 3.9 1.3 2.1 2.1 3.3 3.8-.5 1.8-.9 3.1.9.9-1.6 1.5-3.7 3.5-.3.3-1.1h2.9l-.5 2.3 6.8-.1.1 4.1 1.1 2.4-.9 3.9.4 4 1.8 2.4-.4 7.6 1.4-.6 2.4.2 3.5-1 2.6.4 1.9.1.3 2 2.7-.1 3.5.6 1.9 2.9 4.4.9 3.5-2 1.2 3.3 4.3.9 2 2.8 2.2 3.5h4.3l-.2-6.9-1.6 1.2-3.9-2.5-1.5-1.2.9-6.4 1.1-7.6-1.2-2.8 1.7-4.1 1.5-.8 7.7-1.1.9.3.3-1.1-1.6-1.7-.7-3.5-3.4-3.5-1.8-4.6 1-2.7-1.5-3.6 1.2-10.3v.1l2 6.1v.3l-2-6.5 2 6.5-2-6.4 2 6.4-2-6.4 2 6.4-2-6.5 2 6.3-2-6.2h0l-1.2 10.2 1.2-10.2v-.1h0l-1.2 10.3 1.2-10.3 2 6.3-2-6.3 2 6.5-2-6.4 2 6.4-2-6.4 2 6.4-.3 2.8 1 .9-.2 2.7 1.1 2.6-1.4 2.4 4.5 4.4.4 3.9 2.7 6.6.3.2 2.2 1.1 3.6 1.1 3.2 1.9 5.5 1.2 1 1.7.4-1.2 2.9 3.4.3 6.8 1.8 2.4-.1.1 2.2-.2 6.7 1.8 1.5-.8 3.9-.2 2.1-1.9 3.4.1 6.2-2.5 4.6-3.7-2-1.4-2.2-6.4-1.8-4 .4-3.1-.3-1.9 1.7-3.9-.2-1.7-3.5-2.3-.3-3.6 2.8-8-8.1-6.4-.3-3.7-20.5-13.1-2.8 2.9-1.9 2.9 2.3 2.2-3.3 1.6-.7-.8-3.3.4-2.5 1.5-1.6-2.5 1.1-4.5.2-3.9v0l-.3-2.5 2.6-3.7 3.6-.9 2.4-1.6 3 1.3.2.4v-.3l1.6-2.6 2.8-4.2 2.1-4.7-2.6-7.4-.7-3.2-2.7-4.5-3.5 3h-4l-4.5 1.5h0l4.5-1.5h4l3.5-3 3.4-3.8 3.8-4.2-3.5-7-2.6-1.5-1-2.6-3-3.1-3.5-.5 1.9-3.6 3-.2.8-1.9-.2-5-.8-.2.1-3.2-.8-2.2-2.9-2.5-.9-4.6.6-4.8-2.6-.4-.4 1.4-3.4.4 1.5 1.8.5 3.9-3 3.5-2.7 4.6-2.9.7-4.8-3.7-2.1 1.3-.5 1.8-2.9 1.3-.2 1.3h-5.6l-.8-1.3-4.1-.3-2 1.1-1.6-.5-2.9-3.8-1-1.7-4.1.9-1.5 2.9-1.3 5.8-2 1.2-1.7.7-.5-.3-1.9-1.9-.4-2 .8-2.6V437l-3.3-4-.7-2.7-3.6 1.1-2.8 2.6-4 7-5.2 3-5.5-.4-1.6.6.6 2.2-2.9 2.3-2.4 2.5-7.1 2.4-1.4-1.4-1-.2-1 1.7-4.6.5-2.8 6.5-1.4 1.1-.4 5 .6 2.7-.5 1.9 2.7 3.4.5 2.3 2.1 3.3 2.6 2.1.3 2.9.6 1.9-.6-1.9h0l.6 1.9-.4 3.4.4-3.4-.4 3.4-4.5-1.5-4.6-1.7-7.1-.2m0 0-.7-.4-3.4.8-3.4-.8-2.7.4v0l-9.3-.1-1.9 7.2 1.1.9h0l-1.2 4.8-1.3 4.7-1.3 2-.2 2.2 3.5 6.6 3.7 5.3 5.8 6.5M1383 261.6l-1.8-3.6-.5-2.5-3.7-1.5-1.5.7-3.1-6h0l1.1-1.4-1.2-1.5 4.1-3 3.2-1.3 5.8.9.6-4.1 6.4-.7 1-2.6 6.9-3.4.2-1.4-1.7-3.7 2.9-1.6-8.8-11 9.1-2.5 2-1.4-1-11.3 10.8 2.1 1.6-2.9-2.5-6.2 3.8-.6 1.9-4.2-4.4-3.8-6 .9-3.3-2.7-4-1.2-4.1-3.6-3.3-1.1-6.2 1.6-8.4-3.5-1.1 3.2-18.3-15.6-8.4-4.7.8-2-9.2 5.8-4.4.3-1.1-3.3-7.1-2.1-4.3 1.5-4.4-6.3-9.1-1.3-3.1 2.5-10.9 2.3-1.7 1.5-17 2.1-1.4 2.1 5.1 4.2-4 1.6 1.5 1.6-3.5 3 9.4 4.3-.2 2.9-7-.3-.8 1.9-7.3-3.2-7.7.1-4.4 2.6-6.6-2.5-12-4.3-7.6.2-8.1 6.7.6 4.5-6-3.6-2.2 6.9 1.8 1.2-1.7 4.8 5.3 4.2 3.6-.2 4.3 4.2.2 3.2 2.8 1.1 4.4-1.4 5.1-2.7 4.7 1.5 5-.3 1.9 3.9.7 6.1-4.7-.9-4.1 1 1 4.6-5.1-.6.6 2.1 3.2 1.6 3.7 5.7 6.5 2.2 1.5 2.2-.6 2.6.6 1.6h0l2.6 4.1-.6-4.7 3.8-1.6 2.4 3.6 4.7 3.9-4.1 2-5.3-1.6.1 5.4 3.5.4-.4 4.3 4.6 2.2.6 6.7 1.9 4.5 4.4-1.2 3-3.7 3.6.2 2-1.2 3.9.6 6.6 3.3 4.3.7 7.3 5.6 4 .3 1.7 5.3-.6 8-.5 4.7 2.5 1-1.6 3.5 2.7 5.1 1.2 4.1 4.3 1.1 1.1 4.1-3.9 5.8 9.6 3.3 5.3-1 3.4.8.9-1.4 3.9.6 6.6-2.7-.8-5.4 2.3-3.7h4.1l.2-1.7 4-.9 2.1.6 1.8-1.8-1.1-3.9 1.4-3.8 3.1-1.7-3.1-4.2 5.2.2.9-2.3-.8-2.5 2-2.7-1.4-3.2-1.9-2.7 2.4-2.8 5.3-1.3 5.9-.8 2.4-1.1 2.9-.8-1.5-1.8M1564.1 423.6l3.5 6.6 2.6 3.4 4.8.9h0l4.4 3.6-1.2 4.4 2.3 4.1 6.6-6 4.2-5.3 6.1-4.2 4.3-4.2-.4-11.3-4-11.9-4.1-5.1-5.7-4-6.5-8.4-5.3-6.7.6-4.5 3.7-6.1 6.5-5.4-5.9-1.7-3.1-2.6.3-3.7-5.3-1.2-3.1-2.4-4.1 3.4-5.3.8-4.4-.1-2.7 1.6-2.7.9 2 7.4-3-.2-.8-1.5h0l-.5-2.7-3.8 1.9-2.6-1.2-4.5-2.4.8-5.3-3.7-1.3-2.4-5.9-5.6 1.1-.7-7.6 4.2-5.4-.9-5.3-1.3-4.9-2.7-1.5-2.7-3.8-3.1.5 1 2.4-1.7 1.2 1.4 3.9-4.2-1.1-6.2 4.4.9 3.7-2 5.4.3 3.1-1.6 5.3-4.6-1.5.9 6.7-1 2.2 1 2.7-2.5 1.5.6 4.6-2.1-1 1.1 5.2 4.6 5.2 3.4.9-.3 2.3 5.3 7.4 2 6-.9 8 3.6 1.5 3.3.5 5.8-4.5 3.2-3.3 3.1 5.4 2 8.1 2.7 7.6 2.6 3.4.2 7 2.2 3.8-1.3 4.9.9 4.8h0l-1.2 6.1-.4 4 1.3 3.6.7-3.8 2.9 3.1 3.2 3.6 1.2 3.2 2.3 2.4 1.4 2.7-1.4-2.7 1.4 2.7-.4 4.7 2.2 3.5 1 5.3 3.4 4.3.8 3.3 6.8 5.1 5.5 4.8 4-.5v-2.1l-2.3-5.7-2.1-1.8-.5-3.8-.6-2.2.5-2.9-.6-4.3-2.5-4.3-3.5-3.9-1.4-.6h0l-3.1-3.4-3.4-.7-3.4-3.7-1.3-5.5-2.7-5.9-3.7-.2-.7-4.6 1.4-5.7 2.2-9.4-.2-7.1h4.9l-.3 5.1 4.8-.2 5.3 3"/>
    <path class="st0" d="M1333.3 327.1c-.9-.37-1.8-.74-2.7-1.1-.34-1.87-.67-3.74-1-5.61l-5.7-2.79c-.94-1.3-1.87-2.6-2.8-3.9-1.07-1.14-2.14-2.27-3.2-3.4 1.3-1.94 2.6-3.87 3.9-5.8-.37-1.37-.74-2.74-1.1-4.11-1.44-.36-2.87-.73-4.3-1.09-.4-1.37-.8-2.74-1.2-4.1l-2.7-5.1c.53-1.17 1.06-2.34 1.6-3.5-.84-.34-1.67-.67-2.5-1 .16-1.57.33-3.14.5-4.71l.6-8c-.57-1.76-1.14-3.53-1.7-5.29l-4-.3c-2.44-1.87-4.87-3.74-7.3-5.6-1.44-.24-2.87-.47-4.3-.7-2.2-1.11-4.4-2.2-6.6-3.3l-3.9-.6c-.67.4-1.34.8-2 1.2-1.2-.07-2.4-.14-3.6-.2-1 1.23-2 2.46-3 3.7-1.47.4-2.94.8-4.4 1.2-.07.5-.14 1-.2 1.5-2.67.56-5.34 1.13-8 1.7-2.57-.37-5.14-.74-7.7-1.1-1.44-1.07-2.87-2.14-4.3-3.21-1.77-.43-3.54-.86-5.3-1.29-.84-1.6-1.67-3.2-2.5-4.8-.44.13-.87.26-1.31.4-1.29-1.14-2.59-2.27-3.89-3.4.4-1.04.8-2.07 1.2-3.1l-1.9-1.9c-.64.16-1.27.33-1.91.5-1.76 1.56-3.53 3.13-5.29 4.7-.6.06-1.21.13-1.8.2-1.27-.3-2.54-.6-3.8-.9l-3.2-2.9c-.41-.84-.8-1.67-1.2-2.5-1.1.63-2.21 1.26-3.3 1.9.96 2.43 1.93 4.86 2.9 7.3-.24.66-.47 1.33-.7 2 .36 1.96.73 3.93 1.1 5.9-.6-.44-1.21-.87-1.8-1.3-2.1-.31-4.2-.6-6.3-.9-.7.33-1.4.66-2.11 1-1.96.33-3.93.66-5.89 1-.97-.04-1.94-.07-2.9-.1-1.91.8-3.8 1.6-5.71 2.4h-4.39c-1-.4-2-.8-3-1.21-1.87.61-3.74 1.2-5.61 1.81-.63-.4-1.26-.81-1.89-1.2.06 1.16.13 2.33.2 3.5-.4.46-.8.93-1.2 1.39-.44.47-.87.94-1.3 1.41-.34.9-.67 1.8-1 2.7.36 1.63.73 3.26 1.1 4.89-.07.24-.14.47-.2.71-.67 1.33-1.34 2.66-2 4-.44 1.76-.87 3.53-1.3 5.29-.24.57-.47 1.14-.7 1.71-.21 1.6-.4 3.2-.6 4.79l-1.11 3 .41.41c-.47.7-.94 1.4-1.41 2.09 1.3 3.14 2.61 6.27 3.91 9.41.23.53.46 1.06.7 1.59.1.31.2.61.3.91 2.06.36 4.13.73 6.2 1.09.7-.66 1.39-1.33 2.1-2 .36-.76.73-1.53 1.1-2.29 1.36-.3 2.73-.6 4.1-.9.23-.74.46-1.47.7-2.2.53-.34 1.06-.67 1.6-1-2-2.17-4-4.34-6-6.5 3.46-1.07 6.93-2.14 10.4-3.2.3-.34.6-.67.89-1l6.81 1.8c2.86 1.5 5.73 3 8.6 4.5 5.59 4.3 11.2 8.6 16.8 12.9 3.4.16 6.79.33 10.2.5l5 .6c.56 1.03 1.13 2.06 1.7 3.1 1.3-.07 2.6-.14 3.89-.2-.79-1.61-1.59-3.2-2.39-4.8l.3-1.5c1.16-1.67 2.33-3.34 3.5-5 1.23.69 2.46 1.4 3.7 2.1.93-.34 1.86-.67 2.8-1 1.73 2.83 3.46 5.66 5.2 8.5 1.46 2.03 2.93 4.06 4.39 6.09 1.84.61 3.67 1.2 5.5 1.81 2.04 1.66 4.07 3.33 6.11 5 2.33.7 4.66 1.4 7 2.1 1.7-1.04 3.39-2.07 5.1-3.1 1.36-.37 2.73-.74 4.1-1.1.93.36 1.86.73 2.8 1.1 1.1 2.63 2.2 5.26 3.3 7.9 2.09.26 4.2.53 6.3.8 2.06.5 4.13 1 6.2 1.5 3.53.63 7.06 1.26 10.6 1.9.36-2.47.73-4.94 1.1-7.4 2.5-1.14 5-2.27 7.5-3.4-.3-.97-.6-1.94-.9-2.9z"/>
    <path class="st0" d="m1226 396.9.4 2.8-.6 1.2.7 2.9-1.1.4 1.8 2.6 1.3 4.7 1 1.9v3.5l1.6 3.8 4 .3 1.7-.9 2.8.2.8-1.6 1.5-.5 1.1-1.7 1.4-.4 4.7-.3 3.5-1.2 3.2-2.7 1.7.4 2.5-.4 4.7-4.5 8.8-3 5.4-2.7v-2.2l.9-2.9 4-1.7m0 0 2.5-.3 3.6-2.2 3.1.6 2.6-1.8-.2-2.6 2-1.6 3.5.1 1.2-1.4.3-3.1 3.3-2.4h2.5l.5-.8-1.1-4.3.7-3.2 1-1.6 2.5.4 1.7-4.4 2.2-2.1.7-1.8 1.7-3.8-.2-1.4-2-.9-1.7-2.1-2.9-3.7-3.4-1.1-4.1-.9-3.3-2.3-3-4.4-1.3-5.1h0l-1.3-2.2-3 4-3.7 4.1-3.3 4.4-3.4-.2-4.6-.2-4.2 1-.4-1.8-.9.4-1.3-2.5h0l.8-3.8-.5-3.7-1.8-2-1.5.7-1.1 3.3.8 4.7-1-1.6-.9-2.1-1.8-1.8-.9-2.1.4-2.2-.7-2.6-4-2.7-1.2-2.3-2.9-1.4-2.7-5.6-3.9.2-1.7-3.1-5-.6h0l-10.2-.5-16.8-12.9-8.6-4.5-6.8-1.8-.9 1-10.4 3.2 6 6.5-1.6 1-.7 2.2-4.1.9-1.1 2.3-2.1 2-6.2-1.1-.4 2.6-.1 2.3-.5 3.5h2.7l3.1 4.4 3.8 5.1 2.5 4.8 1.7 1.4 1.8 3.4-.2 1.4 2.1 3.7 3 1.3 2.8 2.5 3.6 7.2v3.8l.9 4.4 4.1 6.1 2.5 1.1 4.1 4.4 1.9 5.2 3.3 5.4 3.1 2.3.5 2.6 1.8 1.9.9 2.8M1283.8 394.9h0zM1173 576.29c.3 1.81.6 3.61.9 5.41l-1.81 2.2c-.66 2-1.33 4-2 6 .97.53 1.94 1.06 2.91 1.6 1.06 1.03 2.13 2.06 3.2 3.1l1.5-.6c.73.53 1.46 1.06 2.2 1.6.06.86.13 1.73.19 2.6l-1.29 3c.06 1.5.13 3 .2 4.5 1.16 1.33 2.33 2.66 3.5 4 0 0 0 0 0 0-1.17-1.34-2.34-2.67-3.5-4-.07-1.5-.14-3-.2-4.5l1.29-3c-.06-.87-.13-1.74-.19-2.6-.74-.54-1.47-1.07-2.2-1.6l-1.5.6c-1.07-1.04-2.14-2.07-3.2-3.1"/>
    <path class="st0" d="m1159.4 644.7 2.19 9c.37 1.53.74 3.06 1.11 4.6-.47 2.36-.94 4.73-1.4 7.1.13.76.26 1.53.4 2.3.2.96.39 1.93.6 2.9.09.96.2 1.93.29 2.9h4.11c.23-1.14.46-2.27.7-3.4-.44-.14-.87-.27-1.31-.4-.09-.9-.2-1.8-.29-2.7.83-.8 1.66-1.6 2.5-2.4 2.29-1.17 4.6-2.34 6.9-3.5 1.56-.7 3.13-1.4 4.7-2.1.8-.77 1.6-1.54 2.4-2.3.33-.9.66-1.8 1-2.7-.41-.37-.8-.74-1.21-1.1l1.11-3c.16-2.11.33-4.2.5-6.3-.34.13-.67.26-1 .4v-2c-.3-1.24-.61-2.47-.9-3.71l-2.4-4.89c.26-1.54.53-3.07.8-4.61.76-.46 1.53-.93 2.3-1.39 1.4-1.54 2.8-3.07 4.2-4.61.73-.39 1.46-.79 2.2-1.19l6.6-6.9c2.16-1.04 4.33-2.07 6.5-3.1 1.76-.8 3.53-1.6 5.3-2.4 1.23-1.34 2.46-2.67 3.7-4l2.4-4.5c.63-1.54 1.26-3.07 1.9-4.6-.27-1.04-.54-2.07-.8-3.1.06-3.34.13-6.67.2-10-.17-1.9-.34-3.81-.5-5.71.16-2.13.33-4.26.5-6.39-.3-.94-.61-1.87-.9-2.8-1.54 1.23-3.07 2.46-4.6 3.69-2.07.84-4.14 1.67-6.2 2.5l-3.41-.09c-.7.63-1.39 1.26-2.09 1.9-1.3.06-2.61.13-3.91.19l-1.5.81c-2.23-.6-4.46-1.2-6.69-1.81l-2.2.21c-.5 2.03-1 4.06-1.5 6.1.2 2.43.39 4.86.6 7.3 0 0 0 0 0 0 .03.29.06.6.1.89.36.11.73.21 1.1.31.33 1.13.66 2.26 1 3.4-.07.26-.14.53-.2.79-.64-.83-1.27-1.66-1.9-2.5-.34.54-.67 1.07-1 1.61-.3-.47-.6-.94-.9-1.4l.09-2.4c-.39-.64-.79-1.27-1.19-1.9.06-.94.13-1.87.19-2.8-.53-1.57-1.06-3.14-1.59-4.7.59-1.2 1.2-2.4 1.8-3.6l-.21-7.7c-.59-1.37-1.2-2.74-1.79-4.11.03-.26.06-.53.1-.79-.34-.57-.67-1.14-1-1.71-1.84-.39-3.67-.79-5.5-1.19"/>
    <path class="st0" d="M1171.4 561.1c-1.07-.64-2.14-1.27-3.2-1.9-1.2-.37-2.4-.74-3.61-1.1-.73-.37-1.46-.74-2.19-1.1-.1-.07-.2-.14-.31-.21.17.37.34.74.5 1.11-.33.1-.66.2-1 .3-.39-.44-.79-.87-1.19-1.3-.64-.17-1.27-.34-1.9-.5.09-.47.2-.94.3-1.4l-.9-.3c-2.57.36-5.14.73-7.7 1.09l-1.5.81c-.57 1.36-1.14 2.73-1.7 4.1.4.93.8 1.86 1.2 2.8l-1.11 7.6c-.29 2.13-.59 4.26-.89 6.4l1.5 1.2c1.3.83 2.6 1.66 3.89 2.5.54-.4 1.07-.8 1.61-1.2.06 2.29.13 4.6.2 6.9h-4.31c-.73-1.17-1.46-2.34-2.19-3.5-.67-.94-1.34-1.87-2-2.8l-4.31-.9c-.39-1.1-.79-2.2-1.19-3.3-1.17.66-2.34 1.33-3.5 2-1.47-.3-2.94-.61-4.4-.9-.64-.97-1.27-1.94-1.91-2.9-1.16-.2-2.33-.4-3.5-.6-.89.03-1.79.06-2.69.1-.1-.67-.2-1.34-.31-2-.63-.04-1.26-.07-1.89-.1-.87-.14-1.74-.27-2.61-.4-1.16.33-2.33.66-3.5 1-.79-.07-1.59-.14-2.39-.2-.47.2-.94.39-1.4.6.13-2.54.26-5.07.4-7.6-.6-.8-1.2-1.61-1.8-2.4-.14-1.34-.27-2.67-.4-4l.9-3.9c-.37-.8-.74-1.6-1.1-2.4-.04-1.37-.07-2.74-.1-4.1-2.27.03-4.54.06-6.8.1.16-.77.33-1.54.5-2.3h-2.9c-.1.36-.2.73-.3 1.1-1.17.1-2.34.19-3.5.29-.5 1.24-1 2.47-1.5 3.71-.3.53-.61 1.06-.9 1.6-1.04-.3-2.07-.6-3.1-.9l-1.8.9c-1.27.16-2.54.33-3.81.5-.7-1.1-1.39-2.2-2.09-3.31-.44-.69-.87-1.39-1.3-2.09-.54-1.3-1.07-2.6-1.61-3.91l-1.29-4.69c-5.57-.04-11.14-.07-16.71-.1-.66.23-1.33.46-2 .7-.56-.04-1.13-.07-1.69-.1l-2.31.9c-.2.4-.39.8-.59 1.2.93 1.36 1.86 2.73 2.8 4.09.4 1.44.79 2.87 1.2 4.31l1.59 6.19c-.56.84-1.13 1.67-1.69 2.5-.1.47-.2.94-.31 1.41.44 1.26.87 2.53 1.31 3.8.5 1.29 1 2.6 1.5 3.9.53.76 1.06 1.53 1.6 2.3.09 1.23.2 2.46.3 3.7-.21 1.56-.4 3.13-.6 4.7-.64.96-1.27 1.93-1.9 2.9-1.1 1.4-2.21 2.8-3.3 4.2-.47.86-.94 1.73-1.41 2.59-.63 1.94-1.26 3.87-1.89 5.81l-.3 2.69c-.67 1.97-1.34 3.94-2 5.91l-.9 5.7c.16 1.33.33 2.66.5 4 .09 1.63.2 3.26.3 4.89 1.46 2.11 2.93 4.21 4.4 6.31.36 1.33.73 2.66 1.1 4 .93 2.56 1.86 5.13 2.79 7.69.94 1.77 1.87 3.54 2.81 5.31.7.9 1.4 1.8 2.1 2.69.2 1.17.39 2.34.59 3.5L1066 655l1.59 9.9c.41 1.53.8 3.06 1.21 4.6.33 2.1.66 4.2 1 6.3.66 1.53 1.33 3.06 2 4.6 1.29 1.63 2.6 3.26 3.9 4.9.93-1.07 1.86-2.14 2.8-3.2.66.6 1.33 1.2 2 1.8.26.9.53 1.8.8 2.7.83.16 1.66.33 2.5.5 1.13.4 2.26.8 3.4 1.2.96-.17 1.93-.34 2.89-.5 1.67-1.1 3.34-2.2 5-3.3l1.11-23.7c.46.33.93.66 1.39 1 1 2.03 2 4.06 3 6.1-.2 1.3-.39 2.6-.59 3.9.36.76.73 1.53 1.09 2.3 1.34-.24 2.67-.47 4-.7.94-.97 1.87-1.94 2.81-2.9.9-.64 1.8-1.27 2.69-1.9.5-1.04 1-2.07 1.5-3.1.94-.47 1.87-.94 2.81-1.4-.94.46-1.87.93-2.81 1.4-.5 1.03-1 2.06-1.5 3.1-.89.63-1.79 1.26-2.69 1.9-.94.96-1.87 1.93-2.81 2.9-1.33.23-2.66.46-4 .7-.36-.77-.73-1.54-1.09-2.3.2-1.37.39-2.74.59-4.1-1-1.97-2-3.94-3-5.9 0 0 0 0 0 0 1 2.03 2 4.06 3 6.1-1-2.04-2-4.07-3-6.1-.46-.34-.93-.67-1.39-1 .46.33.93.66 1.39 1 1 2.03 2 4.06 3 6.1-.2 1.3-.39 2.6-.59 3.9.36.76.73 1.53 1.09 2.3 1.34-.24 2.67-.47 4-.7.94-.97 1.87-1.94 2.81-2.9.9-.64 1.8-1.27 2.69-1.9.5-1.04 1-2.07 1.5-3.1.94-.47 1.87-.94 2.81-1.4.76.23 1.53.46 2.3.7.83.6 1.66 1.2 2.5 1.8l4.5.3c1.2-.47 2.39-.94 3.6-1.4.2-.67.4-1.34.6-2 .4-1.04.8-2.07 1.19-3.1 1-.17 2-.34 3-.5.61-.8 1.21-1.6 1.81-2.4.66-1.44 1.33-2.87 2-4.3l5.19-4.8c2.71-1.57 5.41-3.14 8.11-4.7h2.2c.9.36 1.8.73 2.69 1.09.64-.26 1.27-.53 1.91-.79.96.23 1.93.46 2.9.7M1191 409.2l-.7 5.5-2 6.4-3.3 3.1-2.3 5-.5 2.6-2.6 1.8-1.5 6.7v.8l.2 5-.8 1.9-3 .2-1.9 3.6 3.5.5 3 3.1 1 2.6 2.6 1.5 3.5 7h0l-3.8 4.2-3.4 3.8 2.7 4.5.7 3.2 2.6 7.4-2.1 4.7-2.8 4.2-1.6 2.6v.3l1.4 2.5-.4 4.7 20.5 13.1.3 3.7 8.1 6.4 2.3-2.1 1.1-4.2 1.9-2.6.8-4.6 2.2-.4 1.4-2.7 4-2.6v0l1.4-1.9-1.4 1.9 1.3-1.5-1.3 1.5 1.3-1.5 1.3-3.4 6.2-7.8 5.3-4.8 8.4-6.4 5.6-5.2 6.6-8.8 4.7-7.2 4.6-9.4 3.3-8.2 2.4-7.1 1.4-7 1.1-2.3-.2-3.4.4-3.7-.2-1.8h-2.2l-2.5 2.2-3 .7-2.5.9-1.8.2-3.2.2-2 1.2-2.8.4-4.9 2-6.1.7-5.2 1.7h-2.8l-2.7-2.7-1.2-2.7-1.9-1.2h0l-2.4-1.7 3.1-1.6.1-2.6-1.4-2-2.9-1.9-1.8-2.2-3.2-3.8-3.3-3.6-8-6.1-3.2-3.1-1.9-5.9-3.6-7.4-2.7 3.6-4 1.1-1.7 2-.3 4.2-2 9.5.7 2.5M1092.9 233.3l.7.1.1-1.3 2.9-1 1.2-.3 1.7-.3 2.4-.2 2.8 2.1.8 4.2 3.8.2 4-1.8 3.9 2.3 4.6-.6-.3-3.2 5-2 4.6.8-2.1-3.6 1.3-4.5 2.3-2.6-3.1-.7-4-2.3-5.9 1.5-2.3 1.6-7.6-.4-4-.9-1.9.4-1.8-2.6h0l-1-1.1 1-1.1-1.3-.7-1.5 1.4-3.1-1.9-.7-2.6-3.2-1.4-.8-2.1-3-2.4-3.2-.3-3.7 1.6-1.8 1-4.3-1.2-4-2.7-1.6-.8h0l-1.2-2.1-.8-.1-.9 1.1-4.4.1-2.4 1.5-4.2-.5-.4 3.1 1.4 2.7-1.1.5 1.1-.5h0l-1.1.5-.1.1v2.2l1.6 2.1 1.4-2.7 3.3 1 .3 2.1 2.5 2.7-1 .5 4.7 4.6 4.8 1.9 3.2 2.3 5 2.3 2.3 1.3 1.7 2.1 1.1.5m0 0 .9 1-.5 1.9-.1 4.4.7 3 3.1 2.2.2 1.4.9.4 2.2-3.1.1-2.1 1.7-.9-.1-1.7-2.3-1.5-1-2.7.5-2.2"/>
    <path class="st0" d="m1161.7 667.7-.4-2.3 1.4-7.1-1.1-4.6-2.2-9-2.9-.7-1.9.8-2.7-1.1h-2.2l-8.1 4.7-5.2 4.8-2 4.3-1.8 2.4-3 .5-1.2 3.1-.6 2-3.6 1.4-4.5-.3-2.5-1.8-2.3-.7-2.8 1.4-1.5 3.1-2.7 1.9-2.8 2.9-4 .7-1.1-2.3.6-3.9-3-6.1-1.4-1-1.1 23.7-5 3.3-2.9.5-3.4-1.2-2.5-.5-.8-2.7-2-1.8-2.8 3.2 3.6 8.3v.1l2.4 5.4 3.3 6-.1 4.9-1.8 1.2 1.5 4.3-.3 3.8.6 1.7.3-.9 2.2 2.9 1.8.1 2.1 2.3 2.4-.2 3.5-2.4 4.6-1 5.8-2.6 2.2.4 3.3-.8 5.7 1.2 2.7-1.2 3.2 1 .9-1.8 2.7-.4 5.9-2.4 4.3-3 4.1-3.8 6.7-6.6 3.5-4.6 1.8-3.3 2.6-3.3 1.1-.9 4-3.3 1.7-2.9 1-5.3 1.7-4.7h-4.1m0 0-.3-2.9-.6-2.9M1886.2 764.4l-.8 2.6 5.6-2.6-.5 2.7-2.1 2.7-4.2 2.9-7.1 4.7-4.7 2.6-.6 3-4 .1-6.3 2.4-4.7 4.1-8.2 6.4-6.3 2.8-4 1.8-4.6-.1-1.5-2.1-5.1-.4 1-2.4 6.5-4.6 11.4-6.3 4.3-1.2 5.6-2.4 7-3.3 5.7-3.3 6-4.7 3.1-1.6 3.5-3.6 5.8-2.9-.8 2.7zM1915.2 733.9l-.4 6.8 2.9-4.4 1.3 1.8-2.4 4.8 2.9 2.1 3.2.5 4.7-2.4 2.2.7-5.2 5.7-4.2 3.7-3.9-.1-2.8 1.9-1.5 2.8-1.6 1.1-4.6 3.5-5.9 4.3-6 2.6.5-1.7-1.5-.9 6.9-5.2.9-3.6-3.8-2.5 1.8-2.3 5.3-2.2 4.2-5 2.5-4.1.6-4.3.8-1.1-.9-2.7-.7-5.6.4-4.6 2.2-.5.9 3.6 3.2 1.6-2 5.7zM1689.5 177.4l13.7 11-8.9-2 3.7 9 9.6 6.4 3 4.4-6.5-3.8.1 4.9-4.7-5.3-3.8-6.1-5.6-6.7-2.4-4.8-6.4-8.2-8-6.1-6.8-8.4 1.9-2.8-4.4-2.8 1.3-.9 4.9 4 6.9 5.9 5.2 6.1 7.2 6.2zM1118.9 193.1l1.6.7 1.8 1.8 2 2.6 3.4 3.8.6 2.7-.2 2.7 1.3 2.9h0l2.4 1.2 2.3-1.1 2.4 1.1 3.3-4.6 1.3-3.5 4.5-.8.8 2.4 8.1 1.6 1.7 1.4-4.6 2.1-.7 1.2 5.9 1.9-.7 2.9 3.1 1.3 6.3-3.6 5.4-1.1.6-2.3-5.1.4-2.8-1.5-1-3.9 4-2.4 4.6-.3 3-2.1 3.9-.5-.4-2.7 2.2-1.8 4.8-.4.3-2.1-1.8-3.5 1.3-3.2-.4-1.9-7.7-2-2.9.1-3.6-2.9-3.6 1-6.7-2.2-.1-1.2-2.3-2.7-3.9-.3-.8-1.9.9-1.3-3.8-3.5-4.9.6-1.5-.3-1 1.4-1.8-.2-2-4-1.5-2 .8-.6 3.9.2 1.6-1.3-1.7-1.6-3.4-1.1v-1.1l-2.1-1.1-3.8-4 .7-1.6-1.1-2.9-4.8-1.4-2.4.7-.9-1.5-5.3-1.5h0l-2.1-3.6-1-2.9-2.5-1.3m0 0 1.6-1.9-2.4-5.6 2.6-3.4-.9-1-4.7.1-5.1-.9-5.6.8-5.5 1.7 1 3.4 3.3 2.1 1.5-.8.1 3.5-.1 4.6-3.7.2-4.4-4.5-4.1 2-1.7 3.8.5 4.5h0l1.7 5.1-1.8-5.6-.4-4 1.7-3.8 4.1-2-4.1 2-1.7 3.8.4 4 1.8 5.6-6.3 2-.7 2.6 5.9.7 8.8-.1h0l2.5.7 1.4 1.9h0l.6 2.7 1.7 2.3.4 2.4-2.8 1.3 1.9 2.8.5 2.8 3.2 5.4-.3 1.7-2.3.7-3.8 5.2 1.6 2.8-1.1-.4-1.2 1.7-.7 2.5 3 1.7.5 1.7 2-1.4 3.2.7h3.2l2.5 1.6 1.6-1 3.6-.6 1-1.5h2.1M1548.4 48.2l-5.9.1-8.9-.6-1-.3.7-2 4.2-.5 8.4 2 2.5 1.3zM1561 38.7l-1.1 2-6.9-.4-10.3-2-1.8-1.6 8.3.7 11.8 1.3zM1535.5 36.3l3.1 3.8-14.3-.2-4.6 1.2-12.5-3.3-3.4-3.4 3.5-.9 10.2.2 18 2.6zM1218.8 61.3l-2.2.4-13.5-.7-2.3-2.3-7.9-1.4-2-2.9 3.5-1.1-1.6-2.8 5.4-4.4-4-.6 6.7-4.5-2.5-2.3 6.8-2.6 10.3-3.2 11.7-.9 5-1.8 6.7-.6 4.2 1.9-1.3 1.5-11.4 2.5-9.9 2.3-8.7 4.8-2.8 5-3.3 5 3.1 4.3 10 4.4z"/>
    <path class="st0" d="m1661.7 231-1.4-1.1-1.9-3.3 2.5-.1-3.9-7.5-4.7-5.4 2.9-2.2 6.9 1.1-.6-6.2-2.8-6.8.3-2.3-1.3-5.7-6.9 1.9-2.6 2.4h-7.6l-6-5.8-9-4.5-10-2-6.2-6-4.5-3.8-3.8-2.7-7.7-6.2-6-2.2-8.6-1.9-6.2.2-5.1 1.1-1.7 3.1 3.7 1.4 2.5 3.4-1.3 2 .2 6.5 1.9 2.8-4.4 3.9-7.4-2.4-5.6.6-3.9-2.1-3.4-.7-4.4 4.4-5.9 1-3.6 1.6-6.8-1h-4.6l-4.9-3.2-6.6-2.9-5.4-.9-5.7.8-4 1.2-8.5-2.6-3.6-4.6-6.7-1.6-4.8-.8-7-2.5-1.3 6.4 4 3.6-2.4 4.4-8-1.6-5-.2-4.8-2.9-5.2-.1-5.3-1.9-5.9 2.9-6.7 5.3-4.7 1.1-1.7.5-4.4-3.8-6 .9-3.3-2.7-4-1.2-4.1-3.6-3.3-1.1-6.2 1.6-8.4-3.5-1.1 3.2-18.3-15.6-8.4-4.7.8-2-9.2 5.8-4.4.3-1.1-3.3-7.1-2.1-4.3 1.5-4.4-6.3-9.1-1.3-3.1 2.5-10.9 2.3-1.7 1.5-17 2.1-1.4 2.1 5.1 4.2-4 1.6 1.5 1.6-3.5 3 9.4 4.3-.2 2.9-7-.3-.8 1.9-7.3-3.2-7.7.1-4.4 2.6-6.6-2.5-12-4.3-7.6.2-8.1 6.7.6 4.5-6-3.6-2.2 6.9 1.8 1.2-1.7 4.8 5.3 4.2 3.6-.2 4.3 4.2.2 3.2 2.8 1.1-1.4 3.7-4.6 1-3.6 6.5 6 6.1.4 4.2 7.3 7.5-2.5 2.6-.6 1.6-2.4-.5-4.3-3.8-1.5-.2-3.6-1.5-2.1-2.6-5.1-1.3-2.9 1-1.2-1.2-7.6-3.1-7.7-1-4.6-1.1-.4.8-7.6-5.4-6.2-2.4-5.1-3.7 3.6-1 3.2-5.2-3.3-2.5 6.9-2.6-.4-1.4-4.3 1-.4-2.7 2.2-1.8 4.8-.4.3-2.1-1.8-3.5 1.3-3.2-.4-1.9-7.7-2-2.9.1-3.6-2.9-3.6 1-6.7-2.2-.1-1.2-2.3-2.7-3.9-.3-.8-1.9.9-1.3-3.8-3.5-4.9.6-1.5-.3-1 1.4-1.8-.2-2-4-1.5-2 .8-.6 3.9.2 1.6-1.3-1.7-1.6-3.4-1.1v-1.1l-2.1-1.1-3.8-4 .7-1.6-1.1-2.9-4.8-1.4-2.4.7-.9-1.5-5.3-1.5-2.1-3.6-1-2.9-2.5-1.3 1.6-1.9-2.4-5.6 2.6-3.4-.9-1 4.5-3.3-5.4-2.8 8-7.4 3.4-3.4.9-2.9-7.4-3.9.9-3.8-4.9-4.2 1.7-4.8-6.5-6.3 2.9-4.2-7.3-3.7-.4-3.8 3.2-.5 6.4-2.1 3.7-1.9 7.7 3.2 11.7 1.3 17.7 6.2 4.1 2.6 1.5 3.7-3.7 2.9-6.5 1.5-20.2-4.2-2.9.7 8.1 4.1 1 2.6 1.9 5.8 6.1 1.7 3.8 1.5-.2-2.8-3.4-2.4 2.1-2.2 11.6 3.6 3.2-1.4-4.3-4.2 8.1-5.4 4.1.3 4.6 1.9 1.1-3.8-4.7-3.3.8-3.3-4.3-3.4 12.3 1.8 3.6 3-5.1.7 1.2 3.1 4.1 1.9 6-1.2-.4-3.5 7.7-2.7 12.4-4.6 3.2.2-2.5 3.3 5.4.6 2.1-1.9 7.7-.1 5-2.3 6.4 3.3 2.8-3.6-6-3.1 1.2-1.8 13 1.6 6.6 1.7 18.6 6.2 1.1-2.8-5.9-2.9-.8-1.1-5.3-.6-.2-2.5-4.7-4.2-1.1-1.7 4.3-4.7-.6-4.8 2.2-1 11.4 1.4 2.9 2.9-.9 4.2 3.7 1.7 3.8 3.7 3.8 7.4 6.7 3.3.5 3.7-3.5 7.8 5.3.8.5-2 3.8-1.4-.5-2.7 1.9-2.7-4.4-3.1-.4-3.6-4.8-.4-2.9-3-.4-5.4-8.2-4.3 4.7-3.5-3.7-3.7 1.9-.1 4.2 2.8 2.1 5.1 5 1-4.6-3.8 5.1-2.1 8.1-.3 9.6 3-6.9-4.3-4.9-5.5 5.9-1 9.5.2 7.8-.7-5.6-2.6 1.3-3.3 4.2-.2 4.9-2.4 9.3-.7-.2-1.4 9.3-.4 4.3 1.1 5.4-2.6 7 .1-1.5-2.2.9-2 6.2-2 8.3 1.6-3.5 1.2 9.4.7 4.1 2.4 1.9-1.2 10.9.1 11.6 2.4 5.5 1.8 2.5 2.6-2.4 1.5-6.6 2.8-1.1 1.5 5.6.7 7.2 1.3 2.4-1 5.8 3.3.2-1.3 5.2-.8 13.6.8 3.8 2.4 17.4.8-4.8-3.9 9.5.9 6.1-.1 9.9 2.7 6 3.3.4 2.2 10.1 4.2 9 2.1-3-5.5 9.4 2.3 5-1.4 9.8 1.6 1-1.4 7.6.7-9.4-4.9 2.1-2.2 40.4 3.4 7.9 3.1 16.3 4 14.8-1 9.3.9 6.6 2.2 5.1 3.9 7.3 1.5 3.9-1.1 7-.1 9.3 1 6.9-.6 14.3 4.8 2.5-1.7-8.5-3.4-1.8-2.4 15.3 1.5 8-.3 15.8 2.5 9.5 2.4 33.2 22.1-2 2.5-6.2-.4 8.2 3 9.1 4.7 4.2 1.5 3.8 2.4 1 1.5-10-1.2-6.6 4.3-3 .7-1.6 4.1-2 3.6 1.7 2.7-11.5-4.1-6.1 4.6-4.7-2.2-1.4 2.6-7-.9 3.1 3.9 1.1 5.8 2.9 2.4 6.8 1.3 9.1 8.7-4.1.3 3.4 5 4.7 2.6-5 3.1 5.4 7-5.7 1.5 4.5 6.2-1.7 5.8-5.7-4.3-10.5-8.9-16.2-13.6-6.5-8.3.1-3.6-2.8-2.8 5.7-1.3-.2-7.5.7-6 2.5-4.7-6.6-8.2-4.7.5 3.2 4.8-3.6 6.4-12.3-7.2-9.1 2v9.8l7.7 3.6-8.5 1.6-6.4.6-4.3-4.3-8-.9-2.5 2.9-15.1-1-13.2 1.7-3.5 11.7-5 14.2 8.2.8 5.7 3.8 5.8 1.3.4-3 5.6.4 12.8 6.7 4.7 5.2 1.4 6.2 5.5 7.4 5.3 9.9-1 9.1 1.3 4.3-2 7.4-2.1 7.3-.9 3.7-4.6 3.7-3.1.1-5.2-3.1-4.1 4.7.5 2.1zM1367.1 23.1l-18.1 1.8-1.3-6.1 2.2-.5 3.1.3 12.6 2.6 1.5 1.9zM1164.8 13.1l-4.3.5-2.9.4v.7l-3.6.7-4.5-1 1.1-1.4-7.8-.1 6.3-.8h5.2l1.5 1.1 1.3-1 2.8-.7 5.8.9-.9.7zM1345.1 20.4l-7.1.6-11.7-1.3-8.1-1.7-6.6-3.2-5.9-.8 5.4-2.9 6.2-.9 9.6 2 13.7 4.2 4.5 4zM939.6 233.1l.2 2.2.9 2.3v2.7l-1.2 3.8-.5 2.6-2.2 2.3-.5 4.2 1.1 2.4 2.4.6.3 3.9-.9 5 2.7-.7 2.8.9 2.2-1.6h0l4.9 1 1.4 3.6 1.9 2.2 2.6.5 2.1-2.4 3.4-2.2 5 .1 6.8-.1 3.7-4.9 4-1.3 1.2-4.2 3-2.8-2-3.7 2-5.2 3.2-3.5.5-2.1 6.6-1.4 4.9-4.2-.4-3.7-5.9.8-5.8-2.9-1.9 1.4-9.5-2.9-2-2.4-8.3-.3-4.3.4-5.4-1.1h-6.9l-6.2-1.1-7.4 4.6 2 2.7-.5 4.5M1035.7 231.4l-1.5 4.9-2.4-1.3-1.3-4.2.9-2.4 3.2-2.4 1.1 5.4z"/>
    <path class="st0" d="m1016.1 181.3.4-4.2m0 0-1.1-6.5h2.9l1.2-2.3.9-5.6-.9-2.1-4-.2-6.5 2.6-4 9-2.5 1.7 2.5-1.7h0l-2.5 1.7-3.9 1.2h0l-4.2 1.3-1.5 5.1-11.4 4.8-4.7-2.7 1.5 7.1-8.3-1.6-6.5 1.3.4 4.6 7.6 2.4 3.7 3.2 5.1 6.6-1 12.6-2.7 3.8 2 2.4 9.5 2.9 1.9-1.4 5.8 2.9 5.9-.8.6-3.8 7.4-2.1 10.2 1.7 4.5-3.6.5-2.7-2.8-.8-1.5-4.9 1.7-1.9-1.5-2.4.1-1.8-1.8-2.7-2.4 1v-2.9l3.6-3.5-.2-1.6 2.3.6 1.3-1.1.4-4.5 2.4-4.2-7.2-1.2-2.4-1.6.2-2.7-1-1.4M118.8 379.3l-1.1 1.1-1.2-.9.6-1.8-.4-2.4.5-.7 1.2-1-.1-1.3.4-.6.4.1 1.9 1.1.9.6.7.8.9 2.3-.2.3-2.5 1.4-2 1zM118.1 369.3l-2 .4-.6-1.3-.5-.5v-.4l.7-.6 1.8.6 1.2 1-.6.8zM115.1 365.9l-.3.7-3-.2.6-.8 2.7.3zM110.4 364.9l-.4.4-.4-.1-1.9-.2-.3-1.5-.2-.2 1.7-.9.4.4 1.1 2.1zM102 360.7l-.8.6-1.6-1.1.4-.5 1-.6 1.3.1-.3 1.5zM539.5 194.5l-6.1 2-4.7 2.5-4.6 2.7-.5.9 5.7-1.3 2.1 2.1 4.6-1.5 4.9-2.1 5.4-2.1-3.1 3.3 2.5.8 2.5 2.4 5.1-1.4 5.1-.5.3 1.8 1.5.2 1.2.2 1.5 2.5-4.7.6h-.1l-3.7-.7-4.5 1.2-3.7.6-4.7 4.1-3 2.3.4.7 5.5-4.1h.7l-4.7 4.9-2.9 4.4-2.5 3.6-.6 3.1-.8 1.5-.6 1.7.1 3.3.3.5 1.8-.1 1.6-.7 1.4-.8 3.3-3.1 1.8-4.2-.1-3.9 1.4-2.7 2.6-3.1 2.1-2.2 2.7-1.5-.4 2.1 2.2-3.1 1.3-.6 1.7-2.4 3.8 1.3 2.8 2.4-.8 2.9-1.6 2.9-3.8 2.5-.4 1.6h1l4.3-2.7 1.6.6-.5 3.7-.7 2.6-3.7 3.5-2 2.2-2.7 2.4 2.7 1.3 2.5.4 4-.9 3.7-1.7 3-.9 4.6-1.8 5.8-3.8.1-.6.3-1.9 2.7-.8 3.9.3 4 .5 4.6-2.1.6-2.5-.2-.9 6.8-4.4 2.7-1.1 7.8-.1h9.3l1.1-1.5 1.7-.3 2.5-1 2.8-2.9 3.2-4.9 5.5-4.7 1.1 1.6 3.7-1 1.6 1.8-2.9 8.5 2.2 3.6.2 2.1-6.4 3-6 2.2-6 1.9-4 3.8-1.3 1.4-1.2 3.4.7 3.3 2.1.2.2-2.3 1.1 1.4-1 1.8-3.8 1-2.5-.1-4.2 1.1-2.3.3-3.1.3-5 1.9 8.1-1.2 1.1 1.2-7.9 1.9H601l.4-.8-2.1 1.8 1.4.3-2.5 4.6-5.3 4.9.1-1.7-1.1-.3-1.2-1.6v3.5l1 1.1-.6 2.4-2.4 2.5-4.5 5.1-.4-.2 2.9-4.4-2-2.4 1-5.4-1.9 2.8v4.1l-3.2-1 3 2-1.5 6.1 1.4.5v2.2l-1 6.4-4.6 4.7-6.1 1.9-4.4 3.8-2.8.4-3.4 2.4-1.3 2.1-6.9 4.2-3.8 3.1-3.5 3.8-1.9 4.5v4.5l.6 5.5 1.5 4.5-.5 2.8 1.3 7.4-1 4.4-.6 2.5-2 3.9-1.8.8-2.6-.8-.4-2.8-1.8-1.5-2-5.5-1.6-4.9-.4-2.5 2-4.3-.8-3.5-3.1-5.4-1.9-1-6.1 3-.9-.4-2-3-3-1.6-6.4.9-4.6-.8-4.3.5-2.5 1 .6 1.7-.7 2.6.8 1.3-1.2.8-1.8-.9-2.3 1.2-3.9-.2-3.3-3.4-4.9.8-3.6-1.5-3.5.5-5 1.5-6.1 4.7-6.1 2.8-3.7 3-1.9 2.9-1 4.5-.4 3 .6 2.2-2.2.2-3.6-1.4-3.9-2-.9-3-.2-4.5-2.4-3.6-.9-3.8-1.6-4.4-3.2-2.6-4.5.2-4.8 5-4-1.9-2.3-1.9-.4-3.6-.8-3.3-2.4-2.8-2.1-2.1-1.3-2.3h-9.4l-.8 2.7H384.7l-10.9-4.5-7-3.1.9-1.3-7.1.7-6.3.5.3-3.2-2.1-3.7-2.2-.8.1-1.8-2.9-.4-1.2-1.7-4.8-.6-.9-1.1.8-3.5-2.5-6.4-.5-8.9.9-1.5-1.3-2.1-1.5-5.4 1.8-5.2-.9-3.5 3.9-5.3 2.8-5.4 1.1-4.9 5.5-6 4-5.7 4-5.7 4.3-8.5 1.8-5.3.4-2.9 1.4-1.3 5.8 2.2-1 5.9 2.2-1.7 2.5-5.1 1.6-5.1h137.1l1.3-2.4h1.7l-.9 3.4 1 1 3.3.4 4.6 1 3.9 1.9 4.4-.8 5.4 1.7zM275 138.6l-7 2.3-.8-1.6 2.3-2.8 6.4-2.1 3.5-.9 2.6.4v1.9l-7 2.8zM236 122l-3.9.9-1.7-1.1-.8-1.6 5.7-1 3 .6-2.3 2.2zM237.2 99.6l1.2 1 3.5-.5 1.6 1.5 3.3.7-1.2.7-4.9 1.2-1.7-1.3-.3-1-4.3.3-.3-.5 3.1-2.1z"/>
    <path class="st0" d="M410 66.6 385.4 87l-35.6 32.7 4.2.2 2.8 1.6.5 2.6.3 3.8 7.6-3.3 6.5-1.9-.6 3.1.8 2.4 1.6 2.7-1.1 4.2-1.4 6.9 4.6 3.8-3.2 3.8-5.1 2.9-.6-2.2-2.5-2 3.3-5.2-1.6-4.9 2.7-5.6-4.1-.4-7.1-.1-3.8-1.8-3.3-6.1-3.3-1.1-5.7-2.1-6.8.5-6-2.7-2.7-2.5-6.3 1.2-3.5 4.1-2.9.4-6.6 1.2-6.2 2-6.4 1.3 3.2-3.5 8.4-5.8 6.8-1.8.4-1.4-9.4 3.2-7.4 3.9-11.2 4.2.2 2.9-9 4.2-7.7 2.5-6.6 1.9-4 2.6-10.6 3.1-4.5 2.8-8.2 2.6-2.7-.4-6.2 1.6-7 2.1-6.1 2-10 1.8.4-1.1 8.2-2.8 6.6-1.9 8.6-3.3 6.5-.6 5-2.5 10.4-3.6 2.3-1.2 5.7-2.1 5.8-4.5 6.2-3.5-7.3 1.8-.3-1.1-4.9 2.2.4-3-3.6 2.1 1.6-2.9-7.3 2.3h-2.8l3.7-3.5 3.3-2.2-.4-2.1-7.2 1.2-.6-2.8-1.3-1.4 4-3.3-.4-2.5 5.9-3.3 7.7-3.3 5.3-2.9 4.1-.4 1.8.9 7.1-2.8 2.5.5 5.6-1.8 2.5-2.6-1.1-1 6-2.2-2.8.1-6.2 1.2-2.9 1.3-1.8-1.3-6.9.7-4.6-1.4 1.2-2.3-1-3.2 9.2-2.4 13.2-2.7h3.5l-4.3 2.8 9.2-.2 1.2-3.5-2.3-2.1.8-2.8-.7-2.3-3.3-1.7 6.5-2.9 7.5-.2 8.8-2.4 4.8-2.6 7.9-2.6 4.8-.6 11.2-2.4 3.1.4 10.4-2.8 4.4 1.1-.5 2.4 3.3-1 6.3.3-1.9 1.2 4.9.9 4.9-.5 6.2 1.6 7.2.6 2.2.6 6.6-.8 4.1 1.6 3.5.7zM559 502.8l-2.4-1.5c-.94-.7-1.87-1.4-2.81-2.1-.53.33-1.06.66-1.59 1l-4.8-.9c-.47-.94-.94-1.87-1.4-2.8-.37.03-.74.06-1.1.1l-5.61-3.6c-1.29.83-2.6 1.66-3.89 2.5-1.04.46-2.07.93-3.11 1.4.11.86.21 1.73.31 2.6-.7 1.36-1.4 2.73-2.1 4.1-.34 1.33-.67 2.66-1 4-.67.33-1.34.66-2 1 .33 1.93.66 3.86 1 5.8-.37.6-.74 1.2-1.1 1.8l3.5 2.9c.7-1 1.39-2 2.1-3 .43.93.86 1.86 1.29 2.8-.96 1.6-1.93 3.2-2.89 4.8a834.39 834.39 0 0 0-4.4 4l-1.71 4.5c1 2.06 2 4.13 3 6.2-.56.93-1.13 1.86-1.69 2.8 1.36.86 2.73 1.73 4.1 2.59 1.53 1.4 3.06 2.81 4.59 4.21.67 1.56 1.34 3.13 2 4.7.81 1 1.61 2 2.41 3 2 4.26 4 8.53 6 12.8 2.13 3.93 4.26 7.86 6.4 11.79 1.8 2.81 3.6 5.61 5.4 8.41-.27.63-.54 1.26-.8 1.9.93 1.76 1.86 3.53 2.8 5.3 1.56 1.29 3.13 2.6 4.7 3.89 3.56 2.37 7.13 4.74 10.7 7.11 3.89 2.13 7.8 4.26 11.7 6.39.26.87.53 1.74.8 2.61 1.96 1.23 3.93 2.46 5.89 3.7.94-.54 1.87-1.07 2.81-1.6.36-1.1.73-2.2 1.1-3.3 1.06 1.46 2.13 2.93 3.2 4.4.39 1.53.8 3.06 1.2 4.6 1.06.9 2.13 1.8 3.19 2.7-.36 2.06-.73 4.13-1.09 6.2 1.23 2.4 2.46 4.8 3.7 7.19 1.03 2.97 2.06 5.94 3.1 8.91 1.29-.3 2.6-.6 3.9-.91 1.33-1.93 2.66-3.86 4-5.79 2.5.53 5 1.06 7.5 1.6 1.23 1.53 2.46 3.06 3.7 4.6.53-1.74 1.06-3.47 1.6-5.2 2.13.1 4.26.19 6.4.29.33.47.66.94 1 1.41.5-2.57 1-5.14 1.5-7.7-.07-1.17-.14-2.34-.2-3.5.7-1.87 1.39-3.74 2.1-5.6 3.2-.64 6.4-1.27 9.6-1.9 1.73.03 3.46.06 5.2.1 1.8 1.1 3.6 2.19 5.4 3.3l.3 2c.53-.47 1.06-.94 1.6-1.4-.27-1.21-.54-2.4-.8-3.6.43-.94.86-1.87 1.3-2.8l.6-5.1c-.57-1.34-1.14-2.67-1.7-4-1.07-.6-2.14-1.2-3.2-1.8-.27-.84-.54-1.67-.8-2.5.16-1.24.33-2.47.5-3.7l-10.71-.3-2.79-7.5c.56-.04 1.13-.07 1.7-.1-.1-.9-.2-1.81-.3-2.7-.4-.64-.8-1.27-1.2-1.9-.17-1.24-.34-2.47-.5-3.71-1.14-.63-2.27-1.26-3.41-1.89h-3.5c-.83-.61-1.66-1.2-2.5-1.8-1.29-.44-2.6-.87-3.89-1.31-.77-.79-1.54-1.6-2.3-2.39-2.14-.37-4.27-.74-6.4-1.11-2.17-1.89-4.34-3.79-6.5-5.69l.3-4.31c-.3-.83-.6-1.66-.9-2.5.13-1.6.26-3.19.4-4.79-2.44.36-4.87.73-7.3 1.1l-2.91 2.4c-1.6.86-3.19 1.73-4.79 2.6-.37.63-.74 1.26-1.1 1.9-.97.06-1.94.13-2.9.2l-4.21-.6s0 0 0 0c-1.06.36-2.13.73-3.19 1.1-.87-.24-1.74-.47-2.6-.7-.04-3.24-.07-6.47-.1-9.71-1.47 1.24-2.94 2.47-4.4 3.71-1.67-.04-3.34-.07-5-.1-.77-1.17-1.54-2.34-2.3-3.5-1.27-.11-2.54-.2-3.8-.3.33-.94.66-1.87 1-2.81-1.11-1.29-2.2-2.6-3.3-3.89-.87-1.94-1.74-3.87-2.6-5.8.5-.37 1-.74 1.5-1.1l-.21-2.8c1.14-.6 2.27-1.2 3.41-1.8-.24-1.17-.47-2.34-.7-3.5.46-.74.93-1.47 1.4-2.2l.3-3 6.3-4.41c1.53-.39 3.06-.79 4.6-1.19.26-.34.53-.67.8-1 1.7.1 3.39.19 5.1.3-.97-1.14-1.94-2.27-2.9-3.4-.57-.04-1.14-.07-1.7-.1 1.16-2.21 2.33-4.4 3.5-6.61-1.47-1-2.94-2-4.4-3-1.14.21-2.27.4-3.4.61l-2.1-1.11c-1.04.57-2.07 1.14-3.1 1.71l-4.2-.9c-1.17-2.24-2.34-4.47-3.5-6.7-.87-.54-1.74-1.07-2.6-1.6-.6-1.04-1.2-2.07-1.81-3.1-1.26-1-2.53-2-3.79-3l-1.5.6z"/>
    <path class="st0" d="m584.4 426.2 1.2-2.1-1.3-1.7-2-.4-2.9 3.1-2.3 1.4-4.6 3.2-4.4-.5-.6 1.3-3.5.2-3.4 2.9-1.4 5.5-.1 2.1-2.4.7-4.5 4.5-2.9-.2-.7.9 1.1 3.8-1.1 1.9-1.8-.5-.9 3.1 2.2 3.5.7 5.4-1.3 1.7 1.1 5.9-1.2 3.7 2 1.5-2.2 3.4-2.5 4-2.8.4-1.4 2.4.2 3.2-2.1.5.7 2 5.6 3.6 1.1-.1 1.4 2.8 4.8.9 1.6-1 2.8 2.1 2.4 1.5 1.5-.6 3.8 3 1.8 3.1 2.6 1.6 3.5 6.7 4.2.9 3.1-1.7 2.1 1.1 3.4-.6 4.4 3-3.5 6.6 1.7.1 2.9 3.4 2.2-17.6.1-2.8-.9-3.6-2.6-2.4.1-4.7 3.2-1 1.1.7.2-2.5-3.3-.7v-4l11 .2 1.9-2.3 1.6 2.1 1 3.8 1.1-.8m0 0 3.1 3.4 4.4-.4 1.1-2 4.2-1.5 2.4-1.1.7-2.7 4.1-1.8-.3-1.4-4.8-.5-.7-4.1.3-4.3-2.5-1.6 1.1-.6 4.1.8 4.5 1.6 1.7-1.5 4.1-1 8.3-3.1.2-1.8-.7-1.8.7 1.8h0l-.7-1.8h0l.7 1.8h0l-.2 1.8.2-1.8-.7-1.8 3-.2 1.2 1.4-.8 2.9 2 .9 1.2 3-1.6 2.3-1 5.4 1.4 3.3.3 3 3.5 3 2.8.3.6-1.3 1.8-.3 2.6-1.1 1.8-1.7 3.2.6 1.3-.3-1.3.3 1.3-.3-1.3.3 1.3-.3h0l3.1.6.6-1.4-1-1.2.6-1.9 2.3.6 2.7-.7 3.2 1.4 2.5 1.3 1.7-1.7 1.3.2.8 1.8 2.7-.4 2.2-2.5 1.8-4.7 3.4-5.9-.8-2.6-5.9-5.4-4.1-1.5-1.9-.7-6.1-1.8 6.1 1.8h0l-6.1-1.8-4.6.5-.6 1.2-6.8-1.3-2.1-2.3-3-3.1-2.1-.1-.1-3.4-3.3-4.1-3.6-2.4-2.2-1.5-2.9.1h0l2.9-.1 2.2 1.5-2.2-1.5-2.9.1-.7-5.1-4.2-3.2-4.5-.4-1.8-3.1 4.9-1.9-6.7.1-7.1.4-.1 1.6-3.3 2-4.2-.8-3.1-2.8-6.1.6h-5l-.2-2.2-3.4-3.5-4-.1-1.7-4.6-2.1 2.1.6 3-7.2 2.6v4.9l1.7 2.2-1.5 4.7-2.5.4-1.9-5.1 2.7-3.7.3-3.4-1.7-2.9 3.4-.8.2-1.5"/>
    <path id="AW" class="st0" d="m592.9 422-.5-.2-.5-.5.1-.6.2.3.4.4.3.5v.1h0z"/>
    <path class="st0" d="m27.7 593.3-.3.4-.2.3-.2.1-.4-.3.2-.2h.3l.1-.2.5-.1zM34.3 593.3l-.5.1-.1-.2.4-.1.2.2z"/>
    <path id="BM" class="st0" d="M637.3 294h-.3l-.1.1.1.2-.4.2-.1-.1.2-.1h.1l.1-.3.3-.1.1.1h0z"/>
    <path class="st0" d="m1233.2 581.3-.9-.1-.2-.4v-.3l.5.1.7.5-.1.2zM1236.9 579.4l.2 1v.7l-.1.2-.2-.3-.4-.3-.1-.2-.3-.1-.6-.4.1-.1.5.2.3-.1.2-.4v-.2h.4zM1231.2 578.4l-.5-.4-.3-.1-.3-.2-.2-.6.1-.3v-.2l.2-1.2-.1-.1.2-.4.5-.1.2.3-.2 1.2.1.3.2.4.1.5.2.6-.2.3zM847.8 406.5l-.2.3-.2-.2v-.3l.3-.1.1.3zM849.7 406.6l-.2.1-.4-.1-.3-.3-.1-.3.2-.4.5-.3h.4l.2.7-.1.4-.2.2zM853.2 403.5l.2.1v.2l.2.2.4.5h.2l.2.3.2.5.2.2-.3.5-.3.1-.5-.1-.3-.1-.3-.3v-.2l-.2-.1-.1-.4.1-.2v-.3l.2-.4-.2-.5h.3zM856.3 403.5l.3.1.1.6-.1.4-.4.2-.4-.4.2-.4-.1-.2.4-.3zM858.3 397.8l.3-.2.5.2.1.2v.7l-.4.3-.3.2h-.3l-.5-.2v-.5l.2-.2v-.6l.1-.1.3.2zM850.3 395l.4-.1.3.2h.4l.3.2.1.2h-.5l-.7-.3-.2.1-.3.6-.3-.6-.1-.1-.1-.4.3-.1.4.3zM858.1 394.5l.1.1-.1.6-.2.1v-.5l-.2-.3v-.3l-.1-.3.4-.3.2.2-.1.7h0zM846.8 393.2l.2.3.1.3-.7.3-.3-.2-.2-.2.4-.4.5-.1zM846 391.4l.3.1v.2l.3.3-.2.4-.6.3-.4.4-.7.1v-.6l-.2-.2v-.2l.2-.2h.2l.2-.2.7-.4h.2z"/>
    <path id="CW" class="st0" d="M599 424.5h-.3l-.4-.3-.3-.1-.3-.3-.1-.2-.3-.1-.2-.4-.3-.3.1-.5.5.3.1.5.4.4.7.2.2.3.3.4-.1.1h0z"/>
    <path class="st0" d="m540.8 375.3-.7.3.2-.3h.5zM1168.2 276.7l.1.2.3.4-.4-.1h-.3l-.4.2-.3-.3v-.3l.3-.1.2.1.5-.1zM1249.3 243.5c-.64-.57-1.27-1.14-1.9-1.7l-2.5-.3c-1.2-1.54-2.4-3.07-3.6-4.6-1.17-1.1-2.34-2.2-3.5-3.3-.84.86-1.67 1.73-2.5 2.6-.21.53-.4 1.06-.6 1.6-.8-.17-1.61-.34-2.4-.5-1.44-1.27-2.87-2.54-4.3-3.8-.5-.07-1-.14-1.5-.2l-3.6-1.5c-.7-.87-1.4-1.74-2.1-2.6-1.71-.44-3.4-.87-5.1-1.3-.97.33-1.94.66-2.9 1-.41-.4-.8-.8-1.21-1.2-2.53-1.04-5.06-2.07-7.59-3.1-2.57-.34-5.14-.67-7.7-1-1.54-.37-3.07-.74-4.6-1.1-.14.26-.27.53-.4.8l2.2 1.9c1 .23 2 .46 3 .7 1.13.8 2.26 1.6 3.4 2.4.7 1.43 1.4 2.86 2.1 4.3l-.3 2.7s0 0 0 0c-1.84 1.13-3.67 2.26-5.5 3.4l-4.61-.6c-1.93.33-3.86.66-5.79 1-2.64-.84-5.27-1.67-7.9-2.5l-9.81-4.5c-2.83.06-5.66.13-8.5.2l-5.79 1.8c-1.87 1.36-3.74 2.73-5.6 4.1l-10-.9c-.54 1.63-1.07 3.26-1.61 4.9-2.66.06-5.33.13-8 .2-1.7 2.03-3.39 4.06-5.09 6.1 1.2 1.03 2.39 2.06 3.59 3.1-.66 1.66-1.33 3.33-2 5 1.41 1.16 2.8 2.33 4.21 3.5 1.26 2.13 2.53 4.26 3.79 6.4 1.94-.04 3.87-.07 5.81-.11 1.8 1.14 3.6 2.27 5.4 3.41 1.2-.27 2.4-.54 3.6-.8.33-.87.66-1.74 1-2.61l5.69.21c1.57 1.13 3.14 2.26 4.71 3.4 2.66-.24 5.33-.47 8-.7 1.06-1.24 2.13-2.47 3.2-3.7l4.59 1.5 3.21-.6c-.57.8-1.14 1.59-1.71 2.39l2.31 2.91c.43-.47.86-.94 1.3-1.41.4-.46.8-.93 1.2-1.39-.07-1.17-.14-2.34-.2-3.5.63.39 1.26.8 1.89 1.2 1.87-.61 3.74-1.2 5.61-1.81 1 .41 2 .81 3 1.21h4.39c1.91-.8 3.8-1.6 5.71-2.4.96.03 1.93.06 2.9.1 1.96-.34 3.93-.67 5.89-1 .71-.34 1.41-.67 2.11-1 2.1.3 4.2.59 6.3.9.7.53 1.39 1.06 2.09 1.6 0 0 0 0 0 0-.46-2.07-.93-4.14-1.39-6.2.23-.67.46-1.34.7-2-.97-2.44-1.94-4.87-2.9-7.3 1.09-.64 2.2-1.27 3.3-1.9 0 0 0 0 0 0 .4.83.79 1.66 1.2 2.5l3.2 2.9c1.26.3 2.53.6 3.8.9.59-.07 1.2-.14 1.8-.2 0 0 0 0 0 0 1.76-1.57 3.53-3.14 5.29-4.7.64-.17 1.27-.34 1.91-.5l1.9 1.9c-.4 1.03-.8 2.06-1.2 3.1 1.3 1.13 2.6 2.26 3.89 3.4.44-.14.87-.27 1.31-.4-.27-1.04-.54-2.07-.81-3.1l1.71-1.5c.13-.74.26-1.47.4-2.2-.04-1.67-.07-3.34-.11-5 1.41-.17 2.8-.34 4.21-.5zM1165.7 277.1l-.3-.21c-.1.07-.2.14-.31.21v-.6c-.09-.14-.2-.27-.29-.4h-.3c-.07.1-.14.2-.2.29-.14-.06-.27-.13-.4-.19-.1-.04-.2-.07-.31-.1-.09.06-.2.13-.29.2-.14-.04-.27-.07-.4-.1-.2.16-.4.33-.6.5h-.6c-.04-.07-.07-.14-.11-.2-.16-.07-.33-.14-.5-.2l-.09-.41h-.2l-.21.21c-.06-.04-.13-.07-.19-.1-.1.03-.2.06-.31.1-.03.1-.06.2-.09.29-.07.11-.14.2-.2.31-.14.03-.27.06-.4.1-.17-.1-.34-.2-.5-.3-.04.1-.07.2-.1.3.06.1.13.2.2.3.06.23.13.46.2.7l.3.3c.09.2.2.4.3.6.13.1.26.19.4.3.16.03.33.06.5.1.16.06.33.13.5.2h.5l.39-.3c.11.1.21.2.31.3h.19c.11-.04.21-.07.31-.1.06.1.13.19.19.3.11-.14.21-.27.31-.4.16-.04.33-.07.5-.1.13.03.26.06.4.1l.6-.3c.06-.04.13-.07.19-.1.17-.07.34-.14.5-.2.07-.07.14-.14.21-.2h.29c.04-.07.07-.14.11-.2.03-.2.06-.4.1-.6.06-.11.13-.2.2-.3-.24-.07-.47-.14-.7-.2-.04.03-.07.06-.1.1zM662.5 845.3l-4.3-4.6-3.1-2.8c-1.24-.27-2.47-.54-3.7-.8-1.14.86-2.27 1.73-3.4 2.6.1 1.4.19 2.8.29 4.2-.39.93-.79 1.86-1.19 2.8-2.44-.74-4.87-1.47-7.31-2.2-2.86-1.37-5.73-2.74-8.59-4.1-1.54-.44-3.07-.87-4.6-1.3 3.26 2.3 6.53 4.6 9.8 6.9 2.13 1.06 4.26 2.13 6.39 3.2 2.5 1.13 5 2.26 7.5 3.4 1.81.3 3.61.6 5.41.9l4.2 1.8c1.03.16 2.06.33 3.1.5.8.06 1.6.13 2.4.2 1.06-.64 2.13-1.27 3.2-1.9.16-.8.33-1.6.5-2.4l3.3 2.1 4.4-.3c.26-1 .53-2 .8-3-2.44-.5-4.87-1-7.3-1.5-2.6-1.24-5.2-2.47-7.8-3.7z"/>
    <path class="st0" d="M698.1 722.7c.53-1.37 1.06-2.74 1.6-4.1l-2.1-3.6c.6-1.04 1.2-2.07 1.8-3.1-1.27-1.44-2.54-2.87-3.8-4.3l-4.8-3.6c-2.1-1.37-4.2-2.74-6.3-4.1-.64.06-1.27.13-1.9.2-2.1-1.67-4.2-3.34-6.3-5-.67.13-1.34.26-2 .4-.47.1-.94.2-1.4.3l6-8.7c1.76-2.1 3.53-4.2 5.3-6.3a749 749 0 0 1 3.3-2.6c1.4-1.17 2.8-2.34 4.2-3.5-.14-1.7-.27-3.4-.4-5.1l-3.2-3.8c-.87.43-1.74.86-2.6 1.3.23-1.24.46-2.47.7-3.7l.3-3.8-.3-3.6c-.7-.37-1.4-.74-2.1-1.1-.67.33-1.34.66-2 1l-2.1-.3c-.27-.8-.54-1.6-.8-2.4-.37-1.97-.74-3.94-1.1-5.91l-1.2-1.89c-1.3-.61-2.6-1.2-3.9-1.8-.74.43-1.47.86-2.2 1.3-1.97-.44-3.94-.87-5.9-1.3-.14-2.9-.27-5.81-.4-8.7-.67-1.17-1.34-2.34-2-3.5l-.3-2c-1.8-1.11-3.6-2.2-5.4-3.3-1.74-.04-3.47-.07-5.2-.1-3.2.63-6.4 1.26-9.6 1.9-.71 1.86-1.4 3.73-2.1 5.6.06 1.16.13 2.33.2 3.5-.5 2.56-1 5.13-1.5 7.7-.34-.47-.67-.94-1-1.41-2.14-.1-4.27-.19-6.4-.29-.54 1.73-1.07 3.46-1.6 5.2-1.24-1.54-2.47-3.07-3.7-4.6-2.5-.54-5-1.07-7.5-1.6-1.34 1.93-2.67 3.86-4 5.79-1.3.31-2.61.61-3.9.91-1.04-2.97-2.07-5.94-3.1-8.91-1.24-2.39-2.47-4.79-3.7-7.19.36-2.07.73-4.14 1.09-6.2-1.06-.9-2.13-1.8-3.19-2.7-.4-1.54-.81-3.07-1.2-4.6-1.07-1.47-2.14-2.94-3.2-4.4-.37 1.1-.74 2.2-1.1 3.3-.94.53-1.87 1.06-2.81 1.6.71 3.03 1.4 6.06 2.11 9.1l1.5 10.5c-.04 4.76-.07 9.53-.11 14.3v13.4c.31 4.13.61 8.26.91 12.4l-1.8 7.8c.7 2.63 1.39 5.26 2.1 7.9-.21 1.76-.4 3.53-.6 5.3 1.1 3.23 2.2 6.46 3.3 9.7-.04 3.16-.07 6.33-.1 9.5-.4 3.43-.81 6.86-1.2 10.3-.21 3.43-.4 6.86-.61 10.3l-2.19.3 2.4 7.2c1.1 2.06 2.19 4.13 3.29 6.2-.36 1.46-.73 2.93-1.09 4.4.66 3.93 1.33 7.86 2 11.8l1.5 9c1.16.3 2.33.6 3.5.9-.34-2.64-.67-5.27-1-7.9 1.33.56 2.66 1.13 4 1.7l1.8 13.1c-2.17-.74-4.34-1.47-6.5-2.2.66 3.5 1.33 7 2 10.5-.9 1.83-1.81 3.66-2.71 5.5 2.77.63 5.54 1.26 8.31 1.9-1.14 1.6-2.27 3.2-3.4 4.8.06 2 .13 4 .2 6 1.66 3.53 3.33 7.06 5 10.6 1.39 1.4 2.8 2.8 4.2 4.2.1 1.2.19 2.4.3 3.6 1.06 1.3 2.13 2.6 3.2 3.9 2.53 1.16 5.06 2.33 7.6 3.5 2.5 1.43 5 2.86 7.5 4.3 2.1.63 4.2 1.26 6.3 1.9.63-.04 1.26-.07 1.9-.1-.57-1.9-1.14-3.8-1.7-5.7 1.13-.74 2.26-1.47 3.4-2.2.56-.5 1.13-1 1.69-1.5h4.31s0 0 0 0l2.1.3c-1.54-1.17-3.07-2.34-4.6-3.5-1.4-2.17-2.81-4.34-4.2-6.5.29-.97.6-1.94.89-2.9 1.17-.8 2.34-1.6 3.5-2.4.21-2.44.4-4.87.61-7.3 1.53-1.17 3.06-2.34 4.6-3.5-.07-1.9-.14-3.8-.2-5.7-1.74-.4-3.47-.8-5.2-1.2-2.17-1.54-4.34-3.07-6.5-4.6-.04-1.6-.07-3.2-.1-4.8 1-1.07 2-2.14 3-3.2h4.79c.04-1.14.07-2.27.11-3.4l-1.2-6.3c.96-1.34 1.93-2.67 2.9-4 1.4-.67 2.8-1.34 4.2-2-.84-1.1-1.67-2.2-2.5-3.3-.77.66-1.54 1.33-2.3 2-1.34-.64-2.67-1.27-4-1.9-.84-2.1-1.67-4.2-2.5-6.3.5-.57 1-1.14 1.5-1.7 1.86.8 3.73 1.6 5.6 2.4l5.1-.9c.83-.77 1.66-1.54 2.5-2.3-.6-1.07-1.2-2.14-1.8-3.2-.04-1.57-.07-3.14-.1-4.7l-2.1-3.9c2 .23 4 .46 6 .7 3.4-.44 6.8-.87 10.2-1.3 2.33-1.17 4.66-2.34 7-3.5 1.1-2.74 2.2-5.47 3.3-8.2l-.3-3.1c-1.3-.94-2.6-1.87-3.9-2.8-.07-1.47-.14-2.94-.2-4.4-2.6-1.84-5.2-3.67-7.8-5.5l-.3-3.4s0 0 0 0 0 0 0 0l3.9 3.6c1.2-.07 2.4-.14 3.6-.2 1.83.9 3.66 1.8 5.5 2.7.93-.24 1.86-.47 2.8-.7 1.4.43 2.8.86 4.2 1.3 1.8-1.17 3.6-2.34 5.4-3.5zM697.5 835.8c-.07.03-.14.06-.2.1l-.3.3c.26.1.53.2.8.3v-.4c-.14.03-.27.06-.4.1.03-.14.06-.27.1-.4zM697.1 835.6c.1-.04.2-.07.3-.1-.04-.14-.07-.27-.1-.4-.14-.04-.27-.07-.4-.1l-.2-.2c.03.06.06.13.1.2l.2.2c.03.13.06.26.1.4zM702.8 833.9c-.1.06-.2.13-.3.2.06.1.13.2.2.3.1.03.2.06.3.1.03-.14.06-.27.1-.4-.07-.04-.14-.07-.2-.1l-.1-.1zM690.9 833.6c-.04-.1-.07-.2-.1-.3v-.2c-.04-.1-.07-.2-.1-.3l-.3.3c-.1-.04-.2-.07-.3-.1l.3-.3c-.07-.04-.14-.07-.2-.1-.1.03-.2.06-.3.1-.04.06-.07.13-.1.2h-.2c.03.13.06.26.1.4.1.03.2.06.3.1l.2.2c.1.03.2.06.3.1.13-.04.26-.07.4-.1z"/>
    <path class="st0" d="M697.3 831.6c.06-.07.13-.14.2-.2-.04-.1-.07-.2-.1-.3.13-.17.26-.34.4-.5-.04-.14-.07-.27-.1-.4-.2-.07-.4-.14-.6-.2h-.4c.03.1.06.2.1.3.1.06.2.13.3.2-.14.03-.27.06-.4.1h-.3c-.04-.07-.07-.14-.1-.2-.3.06-.6.13-.9.2h-.3v-.3h-.5c-.04-.07-.07-.14-.1-.2-.14.06-.27.13-.4.2-.07-.04-.14-.07-.2-.1-.04.1-.07.2-.1.3l-.3.3c-.14-.04-.27-.07-.4-.1-.17-.04-.34-.07-.5-.1-.27-.14-.54-.27-.8-.4-.27-.1-.54-.2-.8-.3-.07.03-.14.06-.2.1.1.13.2.26.3.4.1.03.2.06.3.1.23.03.46.06.7.1-.04.13-.07.26-.1.4.26.1.53.2.8.3.16.1.33.2.5.3.13.06.26.13.4.2.13.03.26.06.4.1v.1c-.14-.07-.27-.14-.4-.2-.17.03-.34.06-.5.1h-.3c-.2.06-.4.13-.6.2-.24-.07-.47-.14-.7-.2v.3c.16.1.33.2.5.3h.6c.13-.07.26-.14.4-.2v-.1h.8c.03.1.06.2.1.3-.14.03-.27.06-.4.1-.07-.04-.14-.07-.2-.1h-.6c-.04.06-.07.13-.1.2.06.16.13.33.2.5.13.06.26.13.4.2-.04.1-.07.2-.1.3-.14.03-.27.06-.4.1v.2c-.1-.07-.2-.14-.3-.2-.14-.04-.27-.07-.4-.1h-.9l.1.1c.16.06.33.13.5.2-.2.06-.4.13-.6.2-.24-.07-.47-.14-.7-.2v.2c.1.06.2.13.3.2.13.06.26.13.4.2.06.03.13.06.2.1.16.1.33.2.5.3h.4c-.2-.14-.4-.27-.6-.4h.5v.2c.13.1.26.2.4.3.06.1.13.2.2.3h.2c.1-.04.2-.07.3-.1.1-.14.2-.27.3-.4h.4c.06-.14.13-.27.2-.4.03-.04.06-.07.1-.1-.1-.14-.2-.27-.3-.4.03-.04.06-.07.1-.1.26.03.53.06.8.1v-.3h.4c.03.06.06.13.1.2.16-.1.33-.2.5-.3.03-.1.06-.2.1-.3l.3-.6.3-.3c.1-.27.2-.54.3-.8h.4z"/>
    <path class="st0" d="M695.3 829.9v.4h.3c.1-.04.2-.07.3-.1l-.3-.3h-.3zM694.3 829.9s0 0 0 0v-.2c-.14-.04-.27-.07-.4-.1.03.1.06.2.1.3h.3zM692.9 829.9c-.1.06-.2.13-.3.2.1.06.2.13.3.2.1-.04.2-.07.3-.1.06.03.13.06.2.1.1-.14.2-.27.3-.4-.07-.1-.14-.2-.2-.3-.2.03-.4.06-.6.1-.04.03-.07.06-.1.1.16.03.33.06.5.1-.04.06-.07.13-.1.2-.1-.07-.2-.14-.3-.2zM705.3 831.6c-.1-.04-.2-.07-.3-.1-.3-.04-.6-.07-.9-.1-.14-.04-.27-.07-.4-.1-.1-.07-.2-.14-.3-.2.2-.07.4-.14.6-.2.16.06.33.13.5.2.2.03.4.06.6.1v-.4c-.07-.04-.14-.07-.2-.1-.24-.2-.47-.4-.7-.6-.5.03-1 .06-1.5.1-.1.06-.2.13-.3.2-.04.16-.07.33-.1.5.26.06.53.13.8.2-.04.13-.07.26-.1.4-.17-.1-.34-.2-.5-.3-.04.03-.07.06-.1.1-.1-.04-.2-.07-.3-.1-.04-.14-.07-.27-.1-.4-.07-.04-.14-.07-.2-.1-.1.06-.2.13-.3.2-.04-.1-.07-.2-.1-.3-.07-.04-.14-.07-.2-.1.03-.1.06-.2.1-.3.06.03.13.06.2.1.06.1.13.2.2.3.16-.04.33-.07.5-.1v-.1c-.04-.1-.07-.2-.1-.3-.14-.1-.27-.2-.4-.3-.14-.07-.27-.14-.4-.2-.17.03-.34.06-.5.1-.04.03-.07.06-.1.1h-.6c-.17-.07-.34-.14-.5-.2h-.4l.3.3c-.07.1-.14.2-.2.3h-.3c-.1.06-.2.13-.3.2-.07-.04-.14-.07-.2-.1-.04.1-.07.2-.1.3.23.06.46.13.7.2-.04.16-.07.33-.1.5-.14-.07-.27-.14-.4-.2-.04.06-.07.13-.1.2.13.1.26.2.4.3.2.06.4.13.6.2-.04.1-.07.2-.1.3.16.2.33.4.5.6-.1.03-.2.06-.3.1v-.4l-.4-.4c-.2.06-.4.13-.6.2-.2.13-.4.26-.6.4.03.1.06.2.1.3-.17.03-.34.06-.5.1.03.06.06.13.1.2-.17.06-.34.13-.5.2v.2c.13.16.26.33.4.5v.2c-.1.13-.2.26-.3.4.13.16.26.33.4.5h.2c.03.06.06.13.1.2.16.06.33.13.5.2.03.06.06.13.1.2.13.03.26.06.4.1.03-.07.06-.14.1-.2v-.3c-.17-.04-.34-.07-.5-.1.03-.2.06-.4.1-.6.1.03.2.06.3.1.1.03.2.06.3.1l.3.3h.3c.13.06.26.13.4.2.06-.04.13-.07.2-.1-.24-.2-.47-.4-.7-.6.06-.04.13-.07.2-.1l-.2-.2h-.3c-.07-.14-.14-.27-.2-.4.06-.04.13-.07.2-.1.16.06.33.13.5.2h.3c.1.06.2.13.3.2.06.1.13.2.2.3.16-.14.33-.27.5-.4.13.03.26.06.4.1l.3.3h.2c-.07-.17-.14-.34-.2-.5.06-.04.13-.07.2-.1-.14-.1-.27-.2-.4-.3-.14-.04-.27-.07-.4-.1-.07.03-.14.06-.2.1l-.3-.3c-.2-.07-.4-.14-.6-.2-.1-.07-.2-.14-.3-.2v-.3c.2.13.4.26.6.4.2.06.4.13.6.2h.7c.16-.04.33-.07.5-.1.13.03.26.06.4.1.3-.14.6-.27.9-.4-.1-.07-.2-.14-.3-.2.16-.07.33-.14.5-.2.23-.04.46-.07.7-.1.03-.04.06-.07.1-.1h.5c.06-.17.13-.34.2-.5-.04-.07-.07-.14-.1-.2zM696.4 829.9c.06-.04.13-.07.2-.1-.07-.1-.14-.2-.2-.3-.07-.04-.14-.07-.2-.1-.07.06-.14.13-.2.2l-.2-.2h-.7c-.07-.04-.14-.07-.2-.1-.04.06-.07.13-.1.2.26.03.53.06.8.1.13.06.26.13.4.2.13.03.26.06.4.1zM687.8 828.2c.16.03.33.06.5.1-.14-.1-.27-.2-.4-.3-.04.06-.07.13-.1.2zM955.6 112l.4.2h.3l.1.2v.4l.2.3-.1.2-.6-.4-.2-.4-.2-.2-.2-.3h.3zM955.9 110.4l.8.2.2.2-.1.4-.1.1-.4-.5-.5-.1-.2-.4.3.1zM954.6 109l.1.2h.3v.3h-.4l-.2.2-.6-.2-.2-.1-.2-.3.5-.1.1-.1.6.1-.3-.2.2-.8.5.1.3.5v.1l.6.2.3.5.3.2-.1.6-.5-.4-.2-.2-.2-.1-.1-.2-.2-.2-.6-.1h0zM958.3 108.4l-.2-.2.3-.2-.1.4z"/>
    <path class="st0" d="m955.9 108.9-.4-.2-.3-.3-.1-.3.1-.1.4-.1h.3l.6.4-.1.2.1.2.6.2v.2l-.4.3-.8-.5zM958.1 108.3l-.3.4-.3-.2h-.3l.2-.3-.1-.4.1-.1.2.4.5.2zM957.2 108.3h-.2l-.2-.4.1-.3.2.4.1.3zM1909.4 467.7l-.2.3-.5-.1v-.2l.5-.4.2.4zM1881.2 457.1h.4l.3.2.1.4-.2.1.1.2-.1.2h-.6l-.2-.2v-.2l-.2-.3v-.3l.4-.1zM1766.5 440.5l.1.3h-.3l-.3.5-.1-.1.3-.8.4-.1-.1.2z"/>
    <path id="GU" class="st0" d="m1800.8 415.5-.1.4v.6l-.1.3h-.3l-.2-.3-.1-.5v-.5l.6-.5.1-.2.1-.5.2-.1.1.2.4.1-.2.5-.5.5z"/>
    <path id="MV" class="st0" d="M1402.9 474.8v.2l-.2-.1.2-.2v.1z"/>
    <path id="MH" class="st0" d="m1953.8 456 1 .4h-.2l-.8-.4z"/>
    <path class="st0" d="m1063.9 271.7-.2.3-.5-.2-.5-.3v-.5l-.1-.1h.6l.4.3.2.2.1.3zM1062.3 270.6l-.5-.1v-.2l.4-.1.4.3-.3.1zM1802.5 411.1l-.1.1-.2-.1-.1-.2.5-.2.2.2-.3.2zM1804 406h-.2l-.3-.6.1-.3h.3v.3l.2.2-.1.4zM1804.5 404.4l-.2.2.1.3h-.4v-.7l.1-.2.4-.2-.1.5.1.1zM1802.6 396.9h-.3l-.1-.2h.4v.2zM1800.7 385.9l-.1-.2v-.5l.3-.1.2.3-.4.5zM1799.5 381.6l-.4-.1v-.3l.2-.1.2.2v.3h0zM1307.7 630.8l.4.9-.2.6-.4.4.1.3-.3.3-.5.2h-.5l-.6-.1-.1.1-.3-.3.2-.2.1-.4.1-.7.2-.4.5-.4.1-.2.2-.5.4-.3.4.1.2.6zM1339.5 628.7l-.3-.3.4-.2.3-.1.2.1-.1.2-.5.3zM1915.2 646.9l-.2.1-.2.4-.4-.2.2-.5.1-.2.3.1.2.3zM1919.6 639.1h0l.1.5h.3l.4-.2-.1.6-.2.2-.1.4-.5.3-.4-.2v-.1l-.3-.3.1-.2-.2-.2.1-.4-.1-.4h.1l.4.1.4-.1zM1916.9 634.8l-.2.5v.4l-.2.3.3.2.2.1.1.2-.1.2.3.4h-.2l-.2.5-.2.2-.3-.1-.2-.3-.1-.2-.6-.1-.3-.5v-.2l-.1-.3h.3l.3-.2.4-.3.1-.3-.4-.2-.4.1.2-.4.3-.1.2.1.4-.3.4.3zM1913.5 633.2l-.3.6-.1.3h.3l-.5.5-.2.2-.1-.2.3-.4.2-.5.4-.5zM1913.5 633.2l-.2-.4h.4l.1.4h-.3zM1899.6 630.8l.2.1.5.9.3.3.3-.1.2-.3.9.5.3.5.7.6.3.4.1.3.4.4.1.2h.2l.3.3.9.2.1.3v.4l.3.4.4.1-.3.5.1.2.4.5h.1l.4.5-.1.4.7.2.4.5h.3l.3.2.5.4-.1.3h.3l.4.5.6.4v.2l.3.1.3.3v.2l.3.6.4.4.1-.1.4.6.5.1.3.3v.4l.1.4.1.1-.2.6-.7.4-.1-.3-.3.1-.3.3-.6-.8h-.4l-.1-.2h-.2l-.2.3-.9-.9h-.2l-.4-.5.1-.8h-.7l-.3-.2-.1-.2-.2-.1h-.3v-.3l-.2-.5-.4.1-.8-.5-.1-.2v-.3l-.3.2-.6-.3-.1-.4-.4-.3-.2-.5-.5-.1.2-.2-.3-.3-.3-.1-.3-.7v-.4l-.2-.3h-.3l-.2-.6.1-.2-.7-.4-.3-.2-.4-.6.3-.2-.2-.2-.2-.3v-.5l-.5-.3v-.6l-.2-.3h.3l.1-.3-.1-.2h-.6l-.2-.3.5-.7-.3-.3.2-.1zM1900.7 631.1l-.3-.1.1-.4.2.5zM1898.4 628.7l-.2.2-.1-.4.2-.2.1.4z"/>
    <path id="NR" class="st0" d="M1933 505.3h-.2l-.1-.3h.3v.3h0z"/>
    <path id="PW" class="st0" d="m1747.7 453.1-.2.4.1.1-.2.6.1.2-.5.2-.2-.7.3-.2-.2-.2.3-.6.3-.1.2.3h0z"/>
    <path class="st0" d="m195.3 679.3-.1-.1-.2-.3.1-.2.3.2-.1.4zM205.6 641.2l-.1.1-.3-.2.2-.2.2.3zM199.4 616.5l-.2-.1.2-.6.5-.4h.3v.2l-.2.4-.6.5zM151.7 615.5l.7.2.3.4v.3l-.2.1-.5-.1-.4-.6-.1-.2-.6.2h-.2l-.6-.1-.2-.4-.3-.5v-.3l.1-.2.5-.1h.5l.5.2.2.4.1.6.2.1zM148.7 614l-.2.6-.5-.2.1-.3.6-.1h0zM141.1 609.7l-.2.1-.2-.3.3-.1.1.3zM139 610.1l-.3.2h-.3l-.2-.8.2-.2.6.8h0zM138 608.3l.2.1v.5l-.4-.2-.1-.3.3-.1zM166.3 605.4l-.3.1.1-.3.2.2zM204.3 569.5h-.3v-.4l-.2-.3.4.1.1.4v.2zM201.2 566h-.2v-.4l.2-.3.3.2-.2.2-.1.3zM202.4 564.4v.3l-.4.1h-.6v.3l-.4-.1-.2-.2-.1-.3.7-.4h.3l.2.2.5.1zM195.5 561.8V562.4h-.3l-.3-.4.3-.3.3.1zM197.9 558.8l.3.1.1.1-.6.2-.1-.3.3-.1zM194.2 558.2l.9.1.3.3v.2l-.4.3h-.8l-.1-.5-.1-.4h.2zM1926.8 576.2l.3.2-.1.4h.3v.2h-.8l-.3-.5.2-.3h.4zM1888.5 575.6h.2l1 .8.5.3.9.7-.1.3h-.2l-.2.2-.2-.3h-.1l-.2-.2-.1-.4-.4-.1v-.3l-.3-.1-.1.1h-.2l-.9-.4-.2-.4.3-.4.3.2zM1925.4 574.1l-.2.3-.3-.2v-.2l.3-.2.2.3zM1923.1 570.2h0l.4.1-.1.4-.5.2h-.3l-.4.1-.4.6-.1-.3-.3.1-.2-.2v-.3l.5-.1v-.2l.3-.4.7.1.4-.1zM1896.8 567.4l.3-.1.6.3.5.5.3.3h.2l.2.2h.2l.3.3.3-.1.4.1.2.2h.4l.3-.1.2.3.2.8.3.3v.5l-.2.2.1.3-.4-.2-.3.2-.3-.1-.5-.3h-.2l-.6-.2-.4-.1-.2-.3-.3-.2-.3-.1-.2-.3-.4-.2.2-.4-.1-.4v-.4l-.2-.1-.6-.2-.3.1-.1-.2.1-.3.1-.3h.2zM1900.8 564l-.1.2v.7l-.2-.2v-.5l.3-.2zM1897.9 562.2l.3.9.2.4v.4l.1.5-.2.3-.4-.7-.1.3-.3-.5.1-1 .1-.2v-.3l.2-.1zM1889.5 562.4h.3l.3-.1.4.1.1-.1h1.3l.2.3.3.1.2.3h.2l.2.1.4.4v.6h.2l.4.2.1.3v.6l-.1.1-.7.2-.2.1-.4-.1-.4-.2h-.4l-.1-.2-.5-.3h-.6l-.5.1h-.5l-.5-.1-.3-.2-.3.1-.3-.4-.3-.2-.3-.8-.2-.4.2-.2-.1-.2v-.7l.1-.3.6-.3.4.2.4.5.1.3.3.2zM1891.8 560l.5.5-.3.3-.3-.2v-.1l.1-.5z"/>
    <path class="st0" d="m1891.8 560-.2.4h-.1l-.4-.3-.3.1-.2-.1-.1-.2.3-.1.2-.2.5.1.3.3zM1885.2 559.5l.1.2.2.1-.2.4-.4.2-.3-.4.6-.5zM1876.7 557.7l.2.3-.1.3-.8-.4.5-.3.2.1zM1880.1 558.5l-.3-.2.1-.3.3-.3v.5l.1.2-.2.1zM1879.2 556.7l.2-.1h.4v.2l-.4.3.2.2v.3l-.4.4-.2.1-.3-.1-.4-.4.1-.6.3-.1.2-.4.3-.1v.3h0zM1875.6 556.8l-.2.1-.2.5.4.5-.5-.2v-.2l-.1-.3-.4-.4v-.2l.4-.2.1-.3.4-.3.3.2v.4l-.2.4zM1888.5 556.3l.2.2-.1.2-.2-.1-.6-.5.2-.4.3-.1.2.2-.1.3.1.2zM1895 555.5l.4.8.6.8v.3l-.4.2v.8l.1.2h.2l.2.3.5.4.1.5.1.3.2.2-.2.2.3.3-.1.1.1.5-.2.2.3.3.1.5.2.5v.6l-.1.1-.3-.3-.3-.5v-.3l-.3-.4-.4-.3-.3-.3-.5-.6-.4-.3-.3-.9-.2-1-.2-.7v-.5l-.1-.4.4-.4-.1-.3-.5-.7-.1-.3.1-.1.4.1.2.1.3-.3.2.3zM1874.3 555.2l-.2-.4-.3-.3h.4l.1.7zM1874.2 554.2l.4.1.1.1.1.5h-.2l-.2-.4-.2-.3zM1877.3 554.4l-.1.3h.7l.4.7v.2l.2.3.1.5-.2.2v.3l-.6-.2-.2-.2h-.3l-.4-.3-.1-.2-.1-.3.4.1-.3-.8-.1-.2-.5.1-.2.1h-.4l-.3.4-.4-.2v-.6l.2-.2h.4v-.4l.4-.6.4-.3.3-.2.4.3.2.4-.1.7.2.1zM1871.4 554.4h0l-.3-.8.1-.3v-.4l.2.1.1.4v.7l-.1.3zM1874.8 553.9l-.3.2-.1-.1h-.4l-.3-.3-.1-.3-.1-.3.1-.3.3-.4.5-.2.2.2.3.5v.6l-.1.4zM1871.8 550.4l.4.5v.1l.7.4-.1.3-.6.7v.3l-.3.1v-.4h-.2v-.4l-.2-.4-.3-.2-.1-.3.1-.3.2-.2.2-.2h.2zM1882.1 550.5l.3.2-.2.1-.5.1-.1-.3.2-.2.3.1z"/>
    <path class="st0" d="m1883 550.5.2-.1.5.3.3.1.2.2.3.5.3.1.3.3v.3l.5.1v.3l.3.1.3-.1.1.1.4.2.1.2.3-.1.3.1.1.3.4.3.3.3.4.3 1 1-.3.4.3.5.1.6-.3-.1-.3-.4-.7-.8-.4-.1-.5-.4-.6-.1-.1-.3-.6-.2-.5-.5h-.2l-.8-.6-.5-.3v-.2l-.4-.2-.2-.2-.2-.4-.4-.3-.1-.2v-.4l-.4-.5-.2-.1v-.3l.7.3zM1881.5 549.9l.2.2.2-.1.3.2-.1.2-.3-.1-.3-.4zM1877 549.3h.5l-.2.2-.3-.1v-.1zM1881.3 549.3l-.2.5-.1-.2.3-.3zM1878.6 549.7l-.5.1-.2-.2.3-.4.3.1.1.4zM1866.1 548.8l.2.3-.2.2-.3-.1-.1-.1.4-.3zM1867.6 546.9l.3.2-.1.3-.7.2-.3-.3.3-.6.2-.1.3.3zM1869.3 546v.5l-.2-.2v-.2l.2-.1zM1872.2 544.5l.3.1.4.5.3.2.3.1.3.3.8.4.4.5v.4l.1.6.2.2.3.3h.2l.1.4.7.3.4-.1.1.1v.3l-.3.1-.2.3-.5-.2-.8-.4h-.5l-.3-.4-.7-.4-.6-1-.6-1-.5-.3-.7-.7v-.7l.3-.2.3.1.2.2zM1023.9 501.3h-.2l-.2.3h-.2l-.1-.4-.2-.8v-.3l.4-.5.3-.1.3-.3.4.1.2.4.1.3-.1.4-.2.3-.3.4-.2.2zM1028.5 491.5l-.1.3-.2.1-.3-.1v-.3l.2-.1v-.3l.2-.2.3.1-.1.5zM1249 562.1l-.3.2h-.5l-.4.2h-.4v-.2h.5l.4-.1.4-.3h.2l.1.2zM1248.5 561.8l-.2.1h-.4v-.2l.6.1zM1300.4 531.5l.4.4-.2.3-.2-.3-.3-.2.2-.5.1.3zM14.7 639.5l-.5-.3v-.2l.3-.2.2.7zM11.9 637.4h.3l.4.3.3.1.2-.4.3.3-.3.3.1.2-.1.2-.2-.1-.3-.3-.7-.2v-.4zM11.1 628.8l-.2.1-.1-.5.2.1.1.3zM15.5 621.3l-.5.3h-.2l-.1-.1.3-.5.3.1.2.2zM1.4 602l-.1.1-.3-.1.1-.2h.3v.2zM642.8 432.2l-.2.5-.3.4-.2.1-.1.4.2.6-.2.1v.7l.2.3.2.2-.2.2-.1.3v.7l-.2.1-.4.2-.5.1h-.3l-.5.1-.5-.1-.4.1-.3-.1-.5.2-.4-.2h-.6l-.3.2-.3-.1.5-.2.3-.3.4-.1.4-.3.2-.3.6.1.3-.4-.2-.8.2-.4v-.7l-.3-.4-.3-.1-.4-.1-.1-.1.4-.3 1.1-.1.2-.2h1.1l.1-.1 1.2-.2h.2zM645.2 429l-.1.5-.3.1-.4.3h-.2l-.7.4-.2-.2.3-.3.7-.5.9-.3z"/>
    <path id="TV" class="st0" d="M1998.9 556.6v-.2h.1v.1l-.1.1h0z"/>
    <path class="st0" d="m1931.8 631.8-.5-.2.2-.4.5-.1.2.4-.1.2-.3.1zM1930.6 628h-.2l-.3-.1-.4-.5-.1-.4v-.4l.2-.2.1-.4.3-.1h.4l-.2.3v.5l.7.5-.3.3-.2.5zM1930.6 622.1h.3l.1.2-.5.1.1.3.4.2.1.3-.1.4-.4.1-.4-.3h-.4l-.2-.2-.3-.2.1-.4v-.3l.2-.5.3-.4h.5l.2.1-.1.4.1.2zM1927.6 614.5l.6-.1.1.1.2.6.2.3.1.1-.4.6-.8.2-.3-.3-.1-.5-.3-.1-.4.3-.1-.1.2-.4.4-.3.4-.5.2.1zM1929.9 610.6l-.1-.3h.3l-.2.3zM1928.3 608.2l.1.5v.2l.4.1.2.5h.5v.4l-.1.1-.3-.3-.3-.1-.6.2-.3-.1-.1-.2-.1-.4.2-.5.2-.3.2-.1zM1929.2 608h0l-.2-.3h.2v.3zM1929.4 606.6l-.2.2h-.6l-.3.1-.2-.2-.4-.1-.5-.4.1-.2.5-.2.4-.1.4-.3.1-.3h.2l.1.3v.6l.5.4-.1.2zM1924.7 605.3l.2.3.6.4.7.7.1.1v.4l.2.3-.3.2-.4.4v-.2l-.3-.1h-.4l-.2.1v.2l-.4.2-.3-.1v-.7l-.1-.6.1-.6.1-.5-.2-.5-.6.3-.2-.2-.1-.3v-.3l.3-.3v-.4l.1-.3.3-.1.6.3-.1.2.2.5-.1.2.2.4zM1924.1 602.9h-.3l-.5-.3v-.1l.2-.3.2-.1.5.1-.1.4v.3h0zM1923.6 601.9l.4-.3.1.1.1.3-.6-.1h0zM1929.3 604.5l-.2-.1.1-1.2-.1-.3.1-.5.3-.8.1-.5.2.6-.1.3v1.6l-.1.6-.3.3zM1928 601.2h-.7l-.3-.1v-.2l.9-.7.5-.2.5-.1v.2l-.3.4-.2.3-.4.4zM1929.9 600.5v.2h-.3l.1-.3.2-1.3v-.1l.1-1.2.2.1-.1 1.3.1.3-.1.5-.2.5z"/>
    <path class="st0" d="m1923.6 601.9-.9-.1-.6.3-.1.2h-.2l-.1-.6-.2-.1-.4-1 .4-.8v-.4l-.1-.2v-1.4l-.1-.3v-.5l.2-.3v-.3l.2-.3v-.2l.3-.1.1.5.2.4.2.3.1 1.3-.1.8v.1l.6-.1.3-.3.2-.8v-.2l.3-.2.3.1-.1.4v.9l.3.1v.5l-.2.1.3.4-.2.2v.5l.2.5-.1.2h-.3l-.5.4zM1927.8 592.6l.4.3-.1.4-.3.3-.2.2h-.6v-.4l.1-.4.2-.3.5-.1zM1928.4 590.7l-.3.2-.2.1v.2l-.2.1v-.3l-.2-.2-.1-.3.1-.4.2-.1.4-.2.1.2.1.4v.1l.1.2zM1923.4 586.5h0v-.6l.2.2-.2.4zM21.9 591.3l.3.1.3.1.3.2-.1.3h-1l-.3-.1-.3.1-.2-.1-.4-.2-.3.1-.3-.2-.2-.2-.6-.3.1-.4.4-.2h.9l.9.4.5.1v.3zM17.4 588.5l.6.6.2.7-.1.3.1.3h-.3l-.3-.2-.3.2-.9.1-.3-.3-.2-.4-.2-.1-.3-.3-.5-.4-.2-.2v-.2l.4.1.3-.1.6-.2h.4l.5-.1h.3l.2.2z"/>
    <path id="BQBO" class="st0" d="M602 424.6h-.2l-.1-.5.1-.3-.1-.3-.4-.1-.3-.3.1-.3 1.2.6-.1.2v.4l-.2.2v.4h0z"/>
    <path class="st0" d="m888.4 323.4-.3.5-.4.5-.3-.4h-.4l-.2-.2.2-.3.4.1.4-.4.3-.2.2.1.1.3zM902 321.1v.5l.2.4-.2.7.1.3-.4.4-.5.2-.2.2-.6-.2-.5-.5-.2-.4v-.6l.6-.4.1-.5v-.2l.6.1h.4l.3.1.3-.1zM892.1 321.9h-.2l-.3-.2-.2-.3.1-.4.1-.3h.6l.5.4.1.3-.5.5h-.2zM898.2 318.4v.2l-.6.3-.4.5-.3.2v.4l-.4.7-.1.4-.5.6-.1.2h-.2l-.6.2-.1-.1-.1-.4-.3-.4-.1-.2-.2-.3v-.3l-.4-.6.5-.3.3.2.6-.2h.4l.5-.2.5-.4v-.2l.6-.3h1zM908.4 321.2l-.3.4-.4.1-.3-.1h-.4v-.2h.3l.6-.2.4-.3.3-.3.1-.5.1-.3.2-.5.3-.4.3-.6.2-.8.2-.2.4-.1.3.3.1.5-.1.5-.1.5v.5l-.1.1-.3.7-.3.3-.6.1-.7.3-.2.2zM888.8 316.7l.3-.1.2.3.2.5-.2.3.1.4-.6 1-.1-.1-.1-.4-.4-.9-.1-.3-.1-.2.2-.4.3-.2.3.1zM912.9 314.7v.4l-.2.5-.7.5-.5.1-.4.5-.5-.2v-.1l.2-.4v-.4l.2-.3.3-.2h.3l.3-.3h.5l.1-.1.2-.5.2-.1.2.2-.2.4z"/>
    <path id="YT" class="st0" d="m1240.2 583.1.2.3.5.2v.3l-.2.2.1.2-.3.6.1.2-.3.1-.2-.3v-.3l.2-.2-.2-.7-.1-.1-.1-.2.3-.3z"/>
    <path id="RE" class="st0" d="M1295 635.8h.4l.4.2.3.3v.3l.1.5.3.2.2.2.1.2-.2.6-.1.4-.2.2-.4.1h-.9l-.2-.2-.8-.4-.3-.5v-.3l-.3-.6.1-.4.2-.2.2-.4h.1l.5-.2h.5z"/>
    <path class="st0" d="M573.4 371.6c-1.3-.87-2.61-1.74-3.9-2.6l-4-.3.6-1.8c-1.07-.44-2.14-.87-3.2-1.3-.61.03-1.2.06-1.8.1l-3.2-2.9c-1.4-1.34-2.8-2.67-4.2-4l-1.8-1.5c-1.74.23-3.47.46-5.2.7-.64-.77-1.27-1.54-1.91-2.3-1.63-.74-3.26-1.47-4.89-2.2-1.47-.04-2.94-.07-4.4-.1-1.57-.17-3.14-.34-4.71-.5-.46.26-.93.53-1.39.8l-4.3.6-3 1.2c-.9.46-1.81.93-2.7 1.4l-1.5 2.4c-1.07.63-2.14 1.26-3.2 1.9.76.23 1.53.46 2.3.7.93-.24 1.86-.47 2.79-.7.34-.54.67-1.07 1-1.6.77-.04 1.54-.07 2.31-.1 1.46-1.1 2.93-2.2 4.4-3.3l5.4.3c-.77.53-1.54 1.06-2.3 1.6.6.4 1.19.8 1.8 1.2 2.36.33 4.73.66 7.1 1 .5.46 1 .93 1.5 1.4 1.66.56 3.33 1.13 5 1.7 1.06-.07 2.13-.14 3.2-.2.26 1.2.53 2.4.8 3.6.56.63 1.13 1.26 1.7 1.9 1.2.13 2.4.26 3.59.4.71.56 1.4 1.13 2.11 1.7-1.4 1.16-2.8 2.33-4.2 3.5l8.09-.6c1.24.16 2.47.33 3.71.5l3.79-.3c1.27-.27 2.54-.54 3.81-.8.26-.5.53-1 .8-1.5zM600 379.7c.13-.64.26-1.27.4-1.9-1.04.06-2.07.13-3.11.2-.23-.77-.46-1.54-.69-2.3-.5.03-1 .06-1.5.1-1.07-.54-2.14-1.07-3.2-1.6h-4.3c-.27.36-.54.73-.81 1.1-1.56-.37-3.13-.74-4.69-1.1-1.14-.07-2.27-.14-3.4-.2-.5.56-1 1.13-1.5 1.7 1.16.33 2.33.66 3.5 1-.14.83-.27 1.66-.41 2.5.77.93 1.54 1.86 2.31 2.8-.74.46-1.47.93-2.2 1.4-1.37-.17-2.74-.34-4.11-.5-1.69-.3-3.39-.6-5.09-.9-.24.7-.47 1.4-.7 2.1.93.66 1.86 1.33 2.79 2 .9-.4 1.81-.8 2.71-1.2 1.13.13 2.26.26 3.4.4.89-.14 1.8-.27 2.7-.4 1.2.36 2.4.73 3.6 1.1l.09 1.8c.44.33.87.66 1.31 1 .9-1.47 1.8-2.94 2.69-4.4.64-.3 1.27-.6 1.91-.9.23.53.46 1.06.7 1.6.73-.14 1.46-.27 2.2-.4.36-.4.73-.8 1.1-1.2l1.8.3 2.6-.3c.86.46 1.73.93 2.6 1.4.76-.87 1.53-1.74 2.3-2.6-.84-.77-1.67-1.54-2.5-2.3l-2.5-.3zM557 383.7l-3.71-.6c-.43-.07-.86-.14-1.29-.2-.8.13-1.6.26-2.4.4l-.81 1.5c.97.76 1.94 1.53 2.91 2.3 1 .36 2 .73 3 1.1.6-.37 1.2-.74 1.8-1.1 1.33-.04 2.66-.07 4-.1-.27-.6-.54-1.2-.8-1.8l-2.7-1.5zM549.29 446.2c-.66-.6-1.33-1.2-2-1.8-.6-.64-1.19-1.27-1.79-1.9l-2.4-1.2c-1.04-.07-2.07-.14-3.1-.2.06-.2.13-.4.2-.6-1.04-.14-2.07-.27-3.1-.4-.67.63-1.34 1.26-2 1.9-1.17.43-2.34.86-3.5 1.3-.84.53-1.67 1.06-2.5 1.6-.94.16-1.87.33-2.81.5-.5-.54-1-1.07-1.5-1.6-.19.2-.39.4-.59.6l-2.2-.3c.06-.47.13-.94.2-1.4-.64-.77-1.27-1.54-1.91-2.3-.83-.9-1.66-1.8-2.5-2.7-.66-.87-1.33-1.74-2-2.6-.39-1.17-.79-2.34-1.19-3.5-.1-.14-.2-.27-.31-.4-.19-.64-.39-1.27-.59-1.9.23-.87.46-1.74.7-2.6v-.1c.1-.37.2-.74.3-1.1.23-.94.46-1.87.7-2.8.29-.2.6-.4.89-.6.04-.97.07-1.94.11-2.9-.07-.57-.14-1.14-.2-1.7.16-.94.33-1.87.5-2.8.26-.87.53-1.74.8-2.6.5-.74 1-1.47 1.5-2.2-.14-.77-.27-1.54-.4-2.3.16-.47.33-.94.5-1.4.16-.24.33-.47.5-.7-.44-.57-.87-1.14-1.31-1.7-.63-.34-1.26-.67-1.89-1-.5-.47-1-.94-1.5-1.4-.54-.4-1.07-.8-1.61-1.2-.26-.07-.53-.14-.79-.2-.84-.3-1.67-.6-2.5-.9l-1.2.6c-.5.03-1 .06-1.5.1-.44-.14-.87-.27-1.3-.4-.57-.1-1.14-.2-1.7-.3-.27.23-.54.46-.8.7-.6.23-1.2.46-1.8.7-.87.06-1.74.13-2.6.2-.87-.2-1.74-.4-2.6-.6l-.9.3-.5-.5c-.54.03-1.07.06-1.6.1-.44.36-.87.73-1.3 1.1l-.6-.3c-.5-.27-1-.54-1.5-.8-.2.33-.4.66-.6 1-.57-.4-1.14-.8-1.7-1.2.43-.74.86-1.47 1.3-2.2.36-.07.73-.14 1.1-.2.43-.57.86-1.14 1.3-1.7.33-1.1.66-2.2 1-3.3l-.3-.6c.3-.77.6-1.54.9-2.3-.14-.34-.27-.67-.4-1 .43-.9.86-1.8 1.3-2.7l.3-1.8h-1c.03-.34.06-.67.1-1-.37.03-.74.06-1.1.1-.84 1.3-1.67 2.6-2.5 3.9-.3-.27-.6-.54-.9-.8-.24.1-.47.2-.7.3-.04.33-.07.66-.1 1-1.74-.04-3.47-.07-5.2-.1h-5.2c-.17 1.2-.34 2.4-.5 3.6-.84.03-1.67.06-2.5.1l1.8 2.1c.63.5 1.26 1 1.9 1.5.16.46.33.93.5 1.4.26.13.53.26.8.4-.14.73-.27 1.46-.4 2.2h-7.2c-1.1 1.73-2.2 3.46-3.3 5.2.23.4.46.8.7 1.2-.27.5-.54 1-.8 1.5-.14.63-.27 1.26-.4 1.9.93.86 1.86 1.73 2.8 2.6.8.43 1.6.86 2.4 1.3 1.16.03 2.33.06 3.5.1.93.36 1.86.73 2.8 1.1.5.46 1 .93 1.5 1.4 1 .13 2 .26 3 .4.73.43 1.46.86 2.2 1.3.66.2 1.33.4 2 .6 1.1.03 2.2.06 3.3.1.23-.5.46-1 .7-1.5.56.2 1.13.4 1.7.6.26.66.53 1.33.8 2 2.7 4.03 5.4 8.06 8.1 12.1-.47.43-.94.86-1.4 1.3l1.5.9c-.3.66-.6 1.33-.9 2-.04.66-.07 1.33-.1 2 .23.4.46.8.7 1.2.56.23 1.13.46 1.7.7l1.2 1.8c.4-.54.8-1.07 1.2-1.6-.07-.6-.14-1.2-.2-1.8.46.36.93.73 1.4 1.1.1.63.2 1.26.3 1.9.6.26 1.2.53 1.8.8.73.43 1.46.86 2.2 1.3l1.5 1.5c.03.46.06.93.1 1.4-.24.36-.47.73-.7 1.1.36.46.73.93 1.1 1.4 1 .46 2 .93 3 1.4.2.33.4.66.6 1 .06-.47.13-.94.19-1.4h2.41c.5.23 1 .46 1.5.7.76.16 1.53.33 2.3.5.33.83.66 1.66 1 2.5.6.13 1.19.26 1.79.4.27-.37.54-.74.81-1.1.26 1.3.53 2.6.8 3.9.89-.14 1.8-.27 2.7-.4.26-.3.53-.6.8-.9.53-.27 1.06-.54 1.6-.8-.84-1.17-1.67-2.34-2.5-3.5.2-.47.4-.94.6-1.4.4-.07.8-.14 1.19-.2.81-.54 1.61-1.07 2.41-1.6.43-.74.86-1.47 1.3-2.2.79-.14 1.6-.27 2.4-.4.93.6 1.86 1.2 2.8 1.8l.9 2.1c.46.13.93.26 1.4.4-.47.56-.94 1.13-1.4 1.7.33 1.16.66 2.33 1 3.5.6.6 1.19 1.2 1.8 1.8.29-1.04.6-2.07.89-3.1.61.16 1.21.33 1.81.5.36-.64.73-1.27 1.1-1.9-.37-1.27-.74-2.54-1.1-3.8l.69-.9z"/>
    <path class="st0" d="M514.1 428.5c-.07.4-.14.8-.2 1.2.26-1.4.53-2.8.8-4.2l-.3 1.2c-.11.6-.2 1.2-.3 1.8zM634 384.9h.2c.06-.04.13-.07.2-.1.06-.1.13-.2.2-.3h-.31c-.1.13-.19.26-.29.4zM640.9 392.5h.2c.06-.1.13-.2.19-.3-.19-.1-.39-.2-.59-.3-.04-.1-.07-.2-.1-.3h-.2c-.04.1-.07.2-.11.3-.1.03-.19.06-.29.1v.5c.06.03.13.06.2.1.23-.04.46-.07.7-.1zM640.9 389.2c.06-.04.13-.07.2-.1.03-.1.06-.2.1-.3-.04-.14-.07-.27-.1-.4l-.2-.2h-.2c-.07.03-.14.06-.2.1v.5c.1.06.19.13.29.2.04.06.07.13.11.2zM576.6 366.9c.03.16.06.33.1.5.13-.04.26-.07.4-.1.2.06.4.13.6.2.16-.04.33-.07.5-.1.13-.07.26-.14.4-.2l.1.1h.5c.2-.1.4-.2.59-.3.07-.17.14-.34.21-.5.13-.17.26-.34.4-.5l.3-.9v-.2h-.3c-.24.33-.47.66-.7 1-.17.06-.34.13-.5.2-.17-.07-.34-.14-.5-.2-.07-.1-.14-.2-.2-.3-.1.06-.2.13-.3.2h-.41c-.1.13-.19.26-.29.4-.14.06-.27.13-.4.2-.07.1-.14.2-.2.3-.11.06-.2.13-.3.2zM581 364c.1-.04.19-.07.29-.1v-.2c-.1-.1-.19-.2-.29-.3-.21.1-.4.2-.6.3.06.2.13.4.2.6.13-.1.26-.2.4-.3zM581.6 358.2l.1.1h.4c.16.13.33.26.5.4.06-.04.13-.07.19-.1v-.3c-.1-.07-.19-.14-.29-.2-.14-.04-.27-.07-.4-.1h-.4c-.17-.1-.34-.2-.5-.3-.07.03-.14.06-.2.1-.07-.07-.14-.14-.21-.2-.06.16-.13.33-.19.5v.1c.16.06.33.13.5.2.16-.07.33-.14.5-.2zM576.2 356.8h.4c.06.1.13.2.19.3-.1.13-.19.26-.29.4-.14.03-.27.06-.4.1-.07.13-.14.26-.2.4-.14.03-.27.06-.4.1v.2c-.07.06-.14.13-.21.2-.13.03-.26.06-.39.1-.04.06-.07.13-.11.2.07.06.14.13.21.2.03-.07.06-.14.1-.2l.69-.3c.14-.1.27-.2.41-.3.06-.14.13-.27.2-.4l.39-.3c.04-.14.07-.27.11-.4v-.7c.06-.14.13-.27.2-.4 0 0 0 0 0 0h-.6c-.04.03-.07.06-.1.1-.14.16-.27.33-.4.5l.2.2zM574.29 355.3c.11.2.21.4.31.6.13.06.26.13.4.2.13.03.26.06.4.1h.2c.03.06.06.13.1.2.13-.14.26-.27.4-.4-.14-.07-.27-.14-.4-.2-.17-.04-.34-.07-.5-.1-.07-.14-.14-.27-.2-.4-.14-.04-.27-.07-.4-.1-.1.03-.2.06-.31.1zM565.7 349.9c.06.13.13.26.2.4.06.03.13.06.2.1l.4.4c.1.03.19.06.29.1.04.06.07.13.11.2.1.03.2.06.3.1-.1-.17-.2-.34-.3-.5-.11-.07-.2-.14-.3-.2-.2-.24-.4-.47-.6-.7-.1.03-.2.06-.3.1zM570 350.4l-.3-.6c-.04.23-.07.46-.1.7.06-.04.13-.07.19-.1.04.2.07.4.11.6.1.13.2.26.3.4-.04.03-.07.06-.1.1.1.13.19.26.3.4.03.16.06.33.1.5l-.21.3v.3c.11.1.21.2.31.3-.07.06-.14.13-.2.2.2.06.39.13.6.2.1.13.19.26.29.4v.2c.14.23.27.46.41.7v-.8c-.14-.2-.27-.4-.41-.6-.16-.07-.33-.14-.5-.2-.06-.1-.13-.2-.19-.3v-.9c-.07-.24-.14-.47-.2-.7l-.2-.2v-.4c-.07-.17-.14-.34-.2-.5zM572.29 350c.11-.07.21-.14.31-.2-.04-.1-.07-.2-.1-.3-.21.06-.4.13-.6.2.03.06.06.13.1.2.1.03.19.06.29.1zM564.29 347.8c.04.03.07.06.11.1-.07-.27-.14-.54-.2-.8h-.2c.1.23.19.46.29.7zM574.9 347.4s0 0 0 0v-.2c-.04-.14-.07-.27-.11-.4l-.39.3c-.04.2-.07.4-.11.6-.06.1-.13.2-.19.3h.4c.13-.2.26-.4.4-.6zM556.1 346.3c.1-.04.19-.07.3-.1-.07-.04-.14-.07-.2-.1-.2.13-.4.26-.6.4.1.03.19.06.3.1.06-.1.13-.2.2-.3zM557.7 346.9c-.07-.2-.14-.4-.2-.6-.07.03-.14.06-.21.1-.03.16-.06.33-.09.5-.07.06-.14.13-.2.2-.14-.07-.27-.14-.4-.2.06-.1.13-.2.19-.3.17-.14.34-.27.5-.4-.03-.14-.06-.27-.09-.4l-.6.3c-.04.06-.07.13-.1.2-.1.03-.2.06-.3.1-.04.1-.07.2-.1.3-.14.06-.27.13-.4.2v.2c.13.16.26.33.4.5-.04.06-.07.13-.1.2v.7l.2.2c.06-.04.13-.07.2-.1h.39l-.39.3.2.2c.2-.14.4-.27.6-.4.03.03.06.06.09.1-.13.06-.26.13-.39.2-.07.1-.14.2-.2.3.13.06.26.13.4.2.06-.04.13-.07.19-.1.14-.27.27-.54.41-.8v-.3c-.04-.2-.07-.4-.1-.6.03-.1.06-.2.1-.3v-.5zM568.6 344.2l.4.4c.03.2.06.4.1.6.06.2.13.4.19.6.14.06.27.13.41.2v.2c-.14.1-.27.2-.41.3-.1.06-.19.13-.29.2.03.06.06.13.1.2.13-.04.26-.07.4-.1.16-.04.33-.07.5-.1.06.03.13.06.2.1-.04-.17-.07-.34-.1-.5-.07-.1-.14-.2-.2-.3-.04-.1-.07-.2-.11-.3l-.39-.3c-.11-.17-.2-.34-.3-.5-.04-.17-.07-.34-.1-.5l-.21-.3v-.5c-.13-.14-.26-.27-.39-.4-.11.1-.2.2-.3.3l.5.5v.2zM559.2 341.2c.1.03.2.06.3.1l.6-.3c-.1-.07-.2-.14-.31-.2h-.69c-.14.06-.27.13-.4.2-.07.1-.14.2-.2.3.16.03.33.06.5.1.06-.07.13-.14.2-.2zM555.29 345.7c.11-.07.21-.14.31-.2h.3c.1-.07.2-.14.3-.2.13-.14.26-.27.4-.4.1-.04.19-.07.3-.1.06-.1.13-.2.2-.3-.04-.2-.07-.4-.1-.6.06-.24.13-.47.2-.7-.14-.17-.27-.34-.41-.5-.06-.1-.13-.2-.19-.3-.07-.3-.14-.6-.2-.9-.11-.1-.2-.2-.3-.3.06-.14.13-.27.19-.4-.03-.07-.06-.14-.09-.2.03-.07.06-.14.09-.2-.1-.1-.19-.2-.29-.3-.14.06-.27.13-.4.2-.07-.1-.14-.2-.2-.3h-.3c-.04.03-.07.06-.1.1.06.23.13.46.2.7v.5c-.1.13-.2.26-.3.4l.1.1c-.07.13-.14.26-.21.4-.19.2-.39.4-.59.6-.04.1-.07.2-.1.3.03.1.06.2.1.3.1.03.2.06.3.1-.04.2-.07.4-.1.6-.17-.24-.34-.47-.5-.7-.24.1-.47.2-.7.3.06.1.13.2.2.3l.3.3c.2.13.4.26.59.4.07.03.14.06.21.1.1-.1.19-.2.29-.3l-.09.6c.1.06.2.13.3.2v.4h.29zM564.2 338.6l.3.3.6.3c.1.06.19.13.3.2.13.23.26.46.39.7.17.13.34.26.5.4v.3c-.03.16-.06.33-.09.5-.1.13-.2.26-.3.4-.04.13-.07.26-.11.4.04.06.07.13.11.2-.07.06-.14.13-.2.2-.17-.04-.34-.07-.5-.1-.04.06-.07.13-.1.2.13.1.26.2.4.3.06.2.13.4.2.6.03-.04.06-.07.09-.1.04-.24.07-.47.11-.7.06-.1.13-.2.2-.3.03-.17.06-.34.1-.5v-.3c.03-.07.06-.14.09-.2.07-.27.14-.54.21-.8v-.2c-.17-.14-.34-.27-.5-.4-.1-.14-.2-.27-.3-.4-.07-.14-.14-.27-.2-.4l-.1-.1c-.17-.04-.34-.07-.5-.1-.27-.24-.54-.47-.8-.7-.1-.14-.2-.27-.31-.4-.03-.07-.06-.14-.09-.2h-.1c-.14.3-.27.6-.4.9.13-.07.26-.14.4-.2.2.06.4.13.6.2zM553.29 331.6c.07.03.14.06.21.1h.4c.23-.14.46-.27.7-.4.5-.14 1-.27 1.5-.4h.3c.36-.07.73-.14 1.1-.2h.7c.03-.07.06-.14.09-.2-.03-.17-.06-.34-.09-.5-.1.06-.2.13-.3.2h-.4c-.14.06-.27.13-.4.2h-.5c-.07-.04-.14-.07-.2-.1-.07.06-.14.13-.2.2-.24-.04-.47-.07-.7-.1h-.1c-.17-.07-.34-.14-.5-.2-.11-.17-.2-.34-.3-.5-.04.1-.07.2-.1.3l-.21.3c.11.03.21.06.31.1-.14.2-.27.4-.4.6-.17.06-.34.13-.5.2h-.5c-.04-.07-.07-.14-.1-.2l-.6-.3c.16.2.33.4.5.6.1.1.19.2.29.3zM559.6 329.3c.16.03.33.06.5.1.1-.04.19-.07.3-.1.06.03.13.06.2.1.1.23.19.46.3.7v.3c.13.06.26.13.39.2v.2c.04.1.07.2.11.3.16.03.33.06.5.1.1.03.2.06.3.1-.04.1-.07.2-.1.3-.07.1-.14.2-.2.3-.07.03-.14.06-.2.1v.6c-.07.1-.14.2-.2.3v.3c-.07.13-.14.26-.21.4.04.13.07.26.11.4-.17.13-.34.26-.5.4h-.2c-.1.16-.2.33-.3.5.13.03.26.06.39.1.04.13.07.26.11.4.1.06.2.13.3.2.06-.07.13-.14.2-.2.03-.3.06-.6.1-.9.1-.34.19-.67.29-1 .04-.07.07-.14.11-.2.16-.14.33-.27.5-.4h.39c-.06-.24-.13-.47-.19-.7.06-.17.13-.34.19-.5v-.2c-.23-.17-.46-.34-.69-.5-.14-.04-.27-.07-.4-.1-.07-.2-.14-.4-.2-.6-.3-.34-.6-.67-.9-1-.14-.1-.27-.2-.4-.3-.07.03-.14.06-.2.1-.27-.07-.54-.14-.8-.2h-.5c.2.13.4.26.59.4h.31zM635.4 386.8c-.11-.04-.2-.07-.3-.1.03.1.06.2.1.3.06-.07.13-.14.2-.2zM651.9 417.2c-.17-.1-.34-.2-.5-.3-.07-.2-.14-.4-.2-.6l-.2-.2c-.07.13-.14.26-.21.4v.8c.04.16.07.33.11.5.2.06.39.13.6.2.16-.14.33-.27.5-.4-.04-.14-.07-.27-.1-.4zM533.79 377.9c.07.03.14.06.21.1.06-.07.13-.14.2-.2-.04-.07-.07-.14-.1-.2h-.5c-.14-.04-.27-.07-.4-.1-.07.13-.14.26-.2.4-.1-.04-.2-.07-.3-.1-.07.1-.14.2-.2.3h.7c.06-.04.13-.07.2-.1.13-.04.26-.07.39-.1zM542.1 375l-.81.3c.04.03.07.06.11.1.16-.04.33-.07.5-.1.06-.1.13-.2.2-.3zM642.7 402.9v-.6c-.07-.17-.14-.34-.2-.5-.17-.04-.34-.07-.5-.1-.07-.07-.14-.14-.21-.2h-.19v.3c-.04.1-.07.2-.1.3v.3c.1.16.19.33.29.5.04.23.07.46.11.7.03.06.06.13.1.2-.04.13-.07.26-.1.4.13-.07.26-.14.39-.2.07-.04.14-.07.21-.1.03-.07.06-.14.1-.2.03-.27.06-.54.1-.8zM639 423.3c-.1.13-.2.26-.3.4-.07.16-.14.33-.2.5.03.16.06.33.1.5.06.03.13.06.19.1.14-.1.27-.2.41-.3.03-.07.06-.14.09-.2.04-.24.07-.47.11-.7-.04-.1-.07-.2-.11-.3H639zM636.1 391.4c-.07.13-.14.26-.2.4.03.06.06.13.1.2h.29c.04-.14.07-.27.11-.4-.04-.07-.07-.14-.11-.2h-.19zM635 390c-.1.13-.2.26-.3.4l.2.2c.13.06.26.13.39.2h.21c.03-.1.06-.2.1-.3l-.1-.1c-.17-.14-.34-.27-.5-.4zM643.1 412.4c-.04.06-.07.13-.1.2v.6c.03.06.06.13.1.2.13.06.26.13.4.2l.2.2c.06-.14.13-.27.2-.4.03-.14.06-.27.1-.4.03-.27.06-.54.1-.8v-.7c-.1-.07-.2-.14-.31-.2-.23.36-.46.73-.69 1.1zM633.79 385.9v.1c.14.03.27.06.41.1v-.1c.03-.17.06-.34.09-.5-.1.03-.19.06-.29.1l-.21.3zM637.9 394.4c.03.1.06.2.1.3.06.03.13.06.2.1.06-.07.13-.14.2-.2v-.3c-.07-.14-.14-.27-.2-.4-.1.16-.2.33-.3.5zM606.9 385.5c-.04.06-.07.13-.11.2.11.06.21.13.31.2.06-.1.13-.2.19-.3a.902.902 0 0 0-.09-.1h-.3zM621 385.2c-.14.03-.27.06-.4.1-.14.06-.27.13-.4.2-.07.06-.14.13-.2.2h.6l.9-.3h.2l-.1-.1c-.2-.04-.4-.07-.6-.1zM619.9 383.8c-.07.03-.14.06-.2.1l-.6-.3h-.2l-.2-.2c-.27-.04-.54-.07-.8-.1-.04.03-.07.06-.11.1-.19-.07-.39-.14-.59-.2v.2c-.27-.07-.54-.14-.8-.2h-.3c-.14-.04-.27-.07-.4-.1-.17.03-.34.06-.5.1-.07-.04-.14-.07-.2-.1-.14.03-.27.06-.4.1-.1-.04-.2-.07-.31-.1-.19.03-.39.06-.59.1-.1-.04-.2-.07-.3-.1h-.61c-.19-.04-.39-.07-.59-.1-.17-.04-.34-.07-.5-.1-.14.06-.27.13-.41.2v.5c-.06.03-.13.06-.19.1-.14.06-.27.13-.4.2.03.13.06.26.09.4.07.03.14.06.21.1.06.2.13.4.2.6-.07.13-.14.26-.2.4v.4c-.1.23-.2.46-.3.7.2.03.4.06.59.1.11-.07.21-.14.31-.2.13.03.26.06.4.1l.2.2c.06-.04.13-.07.2-.1.2-.04.39-.07.6-.1.1-.04.19-.07.29-.1.31.03.61.06.91.1.23-.07.46-.14.7-.2l.3.3c.16-.07.33-.14.5-.2l.2.2c.23.03.46.06.7.1.1-.07.19-.14.3-.2.2-.04.39-.07.6-.1h.4c.1-.04.2-.07.3-.1.1-.07.2-.14.3-.2.1-.2.19-.4.29-.6.11-.14.21-.27.31-.4l.9-.3-.21-.3c.04-.24.07-.47.11-.7zM588.1 361.9c.1.03.19.06.3.1h.3c-.1-.14-.2-.27-.3-.4h-.7c-.07.03-.14.06-.2.1.03.1.06.2.1.3.16-.04.33-.07.5-.1zM585.7 362c.06-.07.13-.14.2-.2-.21.03-.4.06-.61.1-.1-.14-.19-.27-.29-.4l-.3.3c.13.06.26.13.4.2h.6zM587.2 361.4v-.5c-.17-.04-.34-.07-.5-.1-.04.03-.07.06-.1.1.03.1.06.2.1.3.16.06.33.13.5.2zM642 416c-.07.16-.14.33-.21.5-.06.1-.13.2-.19.3v.4c.16.1.33.2.5.3.03-.04.06-.07.1-.1.06-.07.13-.14.2-.2.03-.27.06-.54.1-.8-.04-.14-.07-.27-.1-.4h-.4zM625.29 383.4l-.09.3c.03.03.06.06.09.1.11-.07.21-.14.31-.2h.1c.13-.07.26-.14.4-.2-.07-.04-.14-.07-.2-.1-.21.03-.4.06-.61.1zM624.29 387.6c-.23.06-.46.13-.69.2.03.16.06.33.1.5.36-.07.73-.14 1.09-.2-.1-.1-.19-.2-.29-.3-.07-.07-.14-.14-.21-.2zM624.5 384v.2h.5c.06-.07.13-.14.2-.2-.14-.04-.27-.07-.41-.1-.1.03-.19.06-.29.1zM624 384.3c.06-.07.13-.14.2-.2-.14-.1-.27-.2-.41-.3-.13.03-.26.06-.39.1-.07.06-.14.13-.2.2h.5c.1.06.2.13.3.2zM634.1 389.5v.2c.06-.04.13-.07.19-.1-.03-.07-.06-.14-.09-.2-.04.03-.07.06-.1.1zM632.79 388.7c.04-.04.07-.07.11-.1-.04-.04-.07-.07-.11-.1v.2zM644.4 407.9v-.2l-.2-.2c.06-.17.13-.34.2-.5-.14.03-.27.06-.4.1v-.2c-.07-.07-.14-.14-.21-.2-.16-.1-.33-.2-.5-.3a5.58 5.58 0 0 0-.39-.1c-.11.13-.2.26-.3.4.06.16.13.33.19.5.04.16.07.33.11.5.13.13.26.26.39.4h.41c-.2.16-.4.33-.6.5.06.1.13.2.19.3h.41c.2.03.4.06.59.1.04-.04.07-.07.11-.1.03.13.06.26.1.4.1-.1.19-.2.29-.3-.06-.3-.13-.6-.19-.9l-.2-.2zM642.6 399.3c-.04.06-.07.13-.1.2.06.13.13.26.2.4h.3c.1-.07.19-.14.29-.2v-.2l-.09-.3c-.1-.07-.2-.14-.3-.2-.11.1-.2.2-.3.3zM641.2 397.3c-.04-.07-.07-.14-.1-.2-.17-.1-.34-.2-.5-.3-.1.03-.2.06-.31.1-.06.1-.13.2-.19.3v.3c.03.16.06.33.1.5v.5c.03.16.06.33.09.5.07.06.14.13.21.2v.2l.6-.3c.06-.07.13-.14.19-.2V397.7c.07-.04.14-.07.21-.1V397.3h-.3z"/>
    <path class="st0" d="M642.2 397.7c.43-.1.86-.2 1.3-.3-.17-.14-.34-.27-.5-.4-.14-.04-.27-.07-.4-.1-.07-.1-.14-.2-.2-.3v-.4c-.11-.14-.2-.27-.3-.4-.1.06-.2.13-.31.2-.03.06-.06.13-.09.2l.09.6c-.06.03-.13.06-.19.1-.04.2-.07.4-.1.6.13.1.26.2.4.3.1-.04.2-.07.3-.1zM1989.1 624.9l-.3.1.1-.4.2.3zM1981.6 623.3l.2.2.3.1v.3l-.5.2-.5-.3-.5.3h-.3l-.2.3.1.3-.4-.1-.1.2-.4-.1-.1.1-.4-.2.3-.1.2-.1.2-.2.4.1.3-.3.2-.3.5-.1.5-.3h.2zM1982.5 623.2l-.2.1-.2-.1.2-.2.2.2zM1988.4 617.1l.1.5-.2.6-.1-.2-.1-.4h-.2l.1-.5.2-.1.2.1zM1985.8 615.7h0l-.2-.4.2-.2.4-.1v.4l-.2.2-.2.1zM1983.6 613.2l-.1.4.3.2.1.3.3.4.3.1.1.3h.2l.1.4-.3.5.1.2.1.5-.3.2v.5h.2l.1.5-.3.3-.6.2-.1-.2-.3.1-.1.2-.3-.3-.8.3-.8.7-.3-.1-.4.2-.3-.1-.6.1-.3-.2-.9-.3-.3-.1-.6-.1-.2-.1-.5-.2-.2-1 .3-.7h.3l.3-.1.1-.5.3-.1.1-.4-.2-.2.6-.4.4-.5.1.1.6-.5h.2l.9-.4.6.2.3-.1.5-.2.6-.1.3-.3.4.3zM1989.9 613.4l-.2.1.2-.9h.4l-.1.4-.3.4zM1978.5 611.4l-.2.3-.5.3v-.3l.4-.4.3.1zM1993.4 611l-.2-.2.1-.2.5-.5.3-.5-.3 1.1-.4.3zM1994.4 606l-.4.4-.8 1.1-.3.1-.7.4-.2.6-.4.2-.2.3-.1.2.3.1.6-.3.1-.1.3-.3.2-.3.6-.3.3-.3.6-.3v.3l-.5.7-.2.1.1.6-.3.3-.3-.3h-.4l-.5.1-.4.3-.7.1h-1l.5-.5-.4-.2-.6.2-.4.2v.2l-.3.1-.2.1-.1.4-.2.3-.3-.1v-.2l-.4-.1-.4.2-.2.5-.3.2h-.3v-.7l-.2-.4.1-.2-.1-.1-.6.2v-.4l.4-.3h.1l-.1-.5.3-.1.5.3.6-.4h.2l.3-.3h.2l.3-.3v-.2l.8-.1.9-.3.3-.1.4.1.5-.2.2-.4h.2l.2-.4.4.1.1-.2.2.1 1-.5.1.3.2-.1.2.1.3-.3.5-.2.1.1-.5.4h-.2 0z"/>
    <path id="_x30_" class="st0" d="M997.9 189.1h0z"/>
    <path id="_x31_" class="st0" d="M673.5 724.1h0z"/>
    <path id="_x32_" class="st0" d="M1798.2 719.3h0z"/>
</svg>
